<?xml version="1.0" encoding="UTF-8" standalone="no"?>
<!DOCTYPE svg PUBLIC "-//W3C//DTD SVG 1.1//EN"
 "http://www.w3.org/Graphics/SVG/1.1/DTD/svg11.dtd">
<!-- Generated by graphviz version 2.43.0 (0)
 -->
<!-- Title: hal_platform/h7rsxx/adc_impl.c Pages: 1 -->
<svg width="302pt" height="148pt"
 viewBox="0.00 0.00 302.00 148.00" xmlns="http://www.w3.org/2000/svg" xmlns:xlink="http://www.w3.org/1999/xlink">
<g id="graph0" class="graph" transform="scale(1 1) rotate(0) translate(4 144)">
<title>hal_platform/h7rsxx/adc_impl.c</title>
<!-- Node1 -->
<g id="Node000001" class="node">
<title>Node1</title>
<g id="a_Node000001"><a xlink:title=" ">
<polygon fill="#999999" stroke="#666666" points="185,-140 70,-140 70,-110 185,-110 185,-140"/>
<text text-anchor="start" x="78" y="-128" font-family="Helvetica,sans-Serif" font-size="10.00">hal_platform/h7rsxx</text>
<text text-anchor="middle" x="127.5" y="-117" font-family="Helvetica,sans-Serif" font-size="10.00">/adc_impl.c</text>
</a>
</g>
</g>
<!-- Node2 -->
<g id="Node000002" class="node">
<title>Node2</title>
<g id="a_Node000002"><a xlink:href="h7rsxx_2adc__impl_8h.html" target="_top" xlink:title=" ">
<polygon fill="white" stroke="#666666" points="72.5,-74 2.5,-74 2.5,-55 72.5,-55 72.5,-74"/>
<text text-anchor="middle" x="37.5" y="-62" font-family="Helvetica,sans-Serif" font-size="10.00">adc_impl.h</text>
</a>
</g>
</g>
<!-- Node1&#45;&gt;Node2 -->
<g id="edge1_Node000001_Node000002" class="edge">
<title>Node1&#45;&gt;Node2</title>
<g id="a_edge1_Node000001_Node000002"><a xlink:title=" ">
<path fill="none" stroke="#63b8ff" d="M105.71,-109.84C91.63,-100.68 73.37,-88.82 59.29,-79.66"/>
<polygon fill="#63b8ff" stroke="#63b8ff" points="61.01,-76.61 50.72,-74.09 57.2,-82.48 61.01,-76.61"/>
</a>
</g>
</g>
<!-- Node4 -->
<g id="Node000004" class="node">
<title>Node4</title>
<g id="a_Node000004"><a xlink:title=" ">
<polygon fill="#e0e0e0" stroke="#999999" points="164.5,-74 90.5,-74 90.5,-55 164.5,-55 164.5,-74"/>
<text text-anchor="middle" x="127.5" y="-62" font-family="Helvetica,sans-Serif" font-size="10.00">time/time.h</text>
</a>
</g>
</g>
<!-- Node1&#45;&gt;Node4 -->
<g id="edge3_Node000001_Node000004" class="edge">
<title>Node1&#45;&gt;Node4</title>
<g id="a_edge3_Node000001_Node000004"><a xlink:title=" ">
<path fill="none" stroke="#63b8ff" d="M127.5,-109.84C127.5,-102.21 127.5,-92.7 127.5,-84.45"/>
<polygon fill="#63b8ff" stroke="#63b8ff" points="131,-84.27 127.5,-74.27 124,-84.27 131,-84.27"/>
</a>
</g>
</g>
<!-- Node5 -->
<g id="Node000005" class="node">
<title>Node5</title>
<g id="a_Node000005"><a xlink:title=" ">
<polygon fill="#e0e0e0" stroke="#999999" points="294,-74 183,-74 183,-55 294,-55 294,-74"/>
<text text-anchor="middle" x="238.5" y="-62" font-family="Helvetica,sans-Serif" font-size="10.00">platform/sections.h</text>
</a>
</g>
</g>
<!-- Node1&#45;&gt;Node5 -->
<g id="edge4_Node000001_Node000005" class="edge">
<title>Node1&#45;&gt;Node5</title>
<g id="a_edge4_Node000001_Node000005"><a xlink:title=" ">
<path fill="none" stroke="#63b8ff" d="M154.09,-109.99C171.95,-100.58 195.34,-88.24 212.98,-78.95"/>
<polygon fill="#63b8ff" stroke="#63b8ff" points="214.89,-81.9 222.11,-74.14 211.63,-75.71 214.89,-81.9"/>
</a>
</g>
</g>
<!-- Node3 -->
<g id="Node000003" class="node">
<title>Node3</title>
<g id="a_Node000003"><a xlink:title=" ">
<polygon fill="#e0e0e0" stroke="#999999" points="75,-19 0,-19 0,0 75,0 75,-19"/>
<text text-anchor="middle" x="37.5" y="-7" font-family="Helvetica,sans-Serif" font-size="10.00">hal/uc/adc.h</text>
</a>
</g>
</g>
<!-- Node2&#45;&gt;Node3 -->
<g id="edge2_Node000002_Node000003" class="edge">
<title>Node2&#45;&gt;Node3</title>
<g id="a_edge2_Node000002_Node000003"><a xlink:title=" ">
<path fill="none" stroke="#63b8ff" d="M37.5,-54.75C37.5,-47.8 37.5,-37.85 37.5,-29.13"/>
<polygon fill="#63b8ff" stroke="#63b8ff" points="41,-29.09 37.5,-19.09 34,-29.09 41,-29.09"/>
</a>
</g>
</g>
</g>
</svg>
