<?xml version="1.0" encoding="UTF-8" standalone="no"?>
<!DOCTYPE svg PUBLIC "-//W3C//DTD SVG 1.1//EN"
 "http://www.w3.org/Graphics/SVG/1.1/DTD/svg11.dtd">
<!-- Generated by graphviz version 2.43.0 (0)
 -->
<!-- Title: hal_platform/u0xx/crypto_impl.c Pages: 1 -->
<svg width="168pt" height="151pt"
 viewBox="0.00 0.00 168.00 151.00" xmlns="http://www.w3.org/2000/svg" xmlns:xlink="http://www.w3.org/1999/xlink">
<g id="graph0" class="graph" transform="scale(1 1) rotate(0) translate(4 147)">
<title>hal_platform/u0xx/crypto_impl.c</title>
<!-- Node1 -->
<g id="node1" class="node">
<title>Node1</title>
<g id="a_node1"><a xlink:title=" ">
<polygon fill="#bfbfbf" stroke="black" points="18.5,-112.5 18.5,-142.5 158.5,-142.5 158.5,-112.5 18.5,-112.5"/>
<text text-anchor="start" x="26.5" y="-130.5" font-family="Helvetica,sans-Serif" font-size="10.00">hal_platform/u0xx/crypto</text>
<text text-anchor="middle" x="88.5" y="-119.5" font-family="Helvetica,sans-Serif" font-size="10.00">_impl.c</text>
</a>
</g>
</g>
<!-- Node2 -->
<g id="node2" class="node">
<title>Node2</title>
<g id="a_node2"><a xlink:href="u0xx_2crypto__impl_8h.html" target="_top" xlink:title=" ">
<polygon fill="none" stroke="black" points="47,-56.5 47,-75.5 130,-75.5 130,-56.5 47,-56.5"/>
<text text-anchor="middle" x="88.5" y="-63.5" font-family="Helvetica,sans-Serif" font-size="10.00">crypto_impl.h</text>
</a>
</g>
</g>
<!-- Node1&#45;&gt;Node2 -->
<g id="edge1" class="edge">
<title>Node1&#45;&gt;Node2</title>
<path fill="none" stroke="midnightblue" d="M88.5,-112.4C88.5,-104.47 88.5,-94.46 88.5,-85.86"/>
<polygon fill="midnightblue" stroke="midnightblue" points="92,-85.66 88.5,-75.66 85,-85.66 92,-85.66"/>
</g>
<!-- Node3 -->
<g id="node3" class="node">
<title>Node3</title>
<g id="a_node3"><a xlink:title=" ">
<polygon fill="none" stroke="#bfbfbf" points="0,-0.5 0,-19.5 89,-19.5 89,-0.5 0,-0.5"/>
<text text-anchor="middle" x="44.5" y="-7.5" font-family="Helvetica,sans-Serif" font-size="10.00">hal/uc/crypto.h</text>
</a>
</g>
</g>
<!-- Node2&#45;&gt;Node3 -->
<g id="edge2" class="edge">
<title>Node2&#45;&gt;Node3</title>
<path fill="none" stroke="midnightblue" d="M81.23,-56.08C74.96,-48.38 65.71,-37.03 58.07,-27.65"/>
<polygon fill="midnightblue" stroke="midnightblue" points="60.66,-25.29 51.63,-19.75 55.23,-29.71 60.66,-25.29"/>
</g>
<!-- Node4 -->
<g id="node4" class="node">
<title>Node4</title>
<g id="a_node4"><a xlink:title=" ">
<polygon fill="none" stroke="#bfbfbf" points="107,-0.5 107,-19.5 160,-19.5 160,-0.5 107,-0.5"/>
<text text-anchor="middle" x="133.5" y="-7.5" font-family="Helvetica,sans-Serif" font-size="10.00">string.h</text>
</a>
</g>
</g>
<!-- Node2&#45;&gt;Node4 -->
<g id="edge3" class="edge">
<title>Node2&#45;&gt;Node4</title>
<path fill="none" stroke="midnightblue" d="M95.93,-56.08C102.35,-48.38 111.81,-37.03 119.62,-27.65"/>
<polygon fill="midnightblue" stroke="midnightblue" points="122.49,-29.67 126.21,-19.75 117.12,-25.19 122.49,-29.67"/>
</g>
</g>
</svg>
