<?xml version="1.0" encoding="UTF-8" standalone="no"?>
<!DOCTYPE svg PUBLIC "-//W3C//DTD SVG 1.1//EN"
 "http://www.w3.org/Graphics/SVG/1.1/DTD/svg11.dtd">
<!-- Generated by graphviz version 2.43.0 (0)
 -->
<!-- Title: hal_platform/h7rsxx/entropy_handlers.c Pages: 1 -->
<svg width="266pt" height="148pt"
 viewBox="0.00 0.00 266.00 148.00" xmlns="http://www.w3.org/2000/svg" xmlns:xlink="http://www.w3.org/1999/xlink">
<g id="graph0" class="graph" transform="scale(1 1) rotate(0) translate(4 144)">
<title>hal_platform/h7rsxx/entropy_handlers.c</title>
<!-- Node1 -->
<g id="Node000001" class="node">
<title>Node1</title>
<g id="a_Node000001"><a xlink:title=" ">
<polygon fill="#999999" stroke="#666666" points="214.5,-140 99.5,-140 99.5,-110 214.5,-110 214.5,-140"/>
<text text-anchor="start" x="107.5" y="-128" font-family="Helvetica,sans-Serif" font-size="10.00">hal_platform/h7rsxx</text>
<text text-anchor="middle" x="157" y="-117" font-family="Helvetica,sans-Serif" font-size="10.00">/entropy_handlers.c</text>
</a>
</g>
</g>
<!-- Node2 -->
<g id="Node000002" class="node">
<title>Node2</title>
<g id="a_Node000002"><a xlink:href="h7rsxx_2entropy__handlers_8h.html" target="_top" xlink:title=" ">
<polygon fill="white" stroke="#666666" points="154,-74 44,-74 44,-55 154,-55 154,-74"/>
<text text-anchor="middle" x="99" y="-62" font-family="Helvetica,sans-Serif" font-size="10.00">entropy_handlers.h</text>
</a>
</g>
</g>
<!-- Node1&#45;&gt;Node2 -->
<g id="edge1_Node000001_Node000002" class="edge">
<title>Node1&#45;&gt;Node2</title>
<g id="a_edge1_Node000001_Node000002"><a xlink:title=" ">
<path fill="none" stroke="#63b8ff" d="M142.96,-109.84C134.45,-101.26 123.59,-90.3 114.78,-81.42"/>
<polygon fill="#63b8ff" stroke="#63b8ff" points="117.22,-78.9 107.69,-74.27 112.25,-83.83 117.22,-78.9"/>
</a>
</g>
</g>
<!-- Node5 -->
<g id="Node000005" class="node">
<title>Node5</title>
<g id="a_Node000005"><a xlink:title=" ">
<polygon fill="#e0e0e0" stroke="#999999" points="258,-74 172,-74 172,-55 258,-55 258,-74"/>
<text text-anchor="middle" x="215" y="-62" font-family="Helvetica,sans-Serif" font-size="10.00">irq_handlers.h</text>
</a>
</g>
</g>
<!-- Node1&#45;&gt;Node5 -->
<g id="edge4_Node000001_Node000005" class="edge">
<title>Node1&#45;&gt;Node5</title>
<g id="a_edge4_Node000001_Node000005"><a xlink:title=" ">
<path fill="none" stroke="#63b8ff" d="M171.04,-109.84C179.55,-101.26 190.41,-90.3 199.22,-81.42"/>
<polygon fill="#63b8ff" stroke="#63b8ff" points="201.75,-83.83 206.31,-74.27 196.78,-78.9 201.75,-83.83"/>
</a>
</g>
</g>
<!-- Node3 -->
<g id="Node000003" class="node">
<title>Node3</title>
<g id="a_Node000003"><a xlink:title=" ">
<polygon fill="#e0e0e0" stroke="#999999" points="94,-19 0,-19 0,0 94,0 94,-19"/>
<text text-anchor="middle" x="47" y="-7" font-family="Helvetica,sans-Serif" font-size="10.00">hal/uc/entropy.h</text>
</a>
</g>
</g>
<!-- Node2&#45;&gt;Node3 -->
<g id="edge2_Node000002_Node000003" class="edge">
<title>Node2&#45;&gt;Node3</title>
<g id="a_edge2_Node000002_Node000003"><a xlink:title=" ">
<path fill="none" stroke="#63b8ff" d="M90.41,-54.75C82.84,-47.03 71.62,-35.6 62.49,-26.28"/>
<polygon fill="#63b8ff" stroke="#63b8ff" points="64.93,-23.78 55.43,-19.09 59.93,-28.68 64.93,-23.78"/>
</a>
</g>
</g>
<!-- Node4 -->
<g id="Node000004" class="node">
<title>Node4</title>
<g id="a_Node000004"><a xlink:title=" ">
<polygon fill="#e0e0e0" stroke="#999999" points="189.5,-19 112.5,-19 112.5,0 189.5,0 189.5,-19"/>
<text text-anchor="middle" x="151" y="-7" font-family="Helvetica,sans-Serif" font-size="10.00">ds/bytebuf.h</text>
</a>
</g>
</g>
<!-- Node2&#45;&gt;Node4 -->
<g id="edge3_Node000002_Node000004" class="edge">
<title>Node2&#45;&gt;Node4</title>
<g id="a_edge3_Node000002_Node000004"><a xlink:title=" ">
<path fill="none" stroke="#63b8ff" d="M107.59,-54.75C115.16,-47.03 126.38,-35.6 135.51,-26.28"/>
<polygon fill="#63b8ff" stroke="#63b8ff" points="138.07,-28.68 142.57,-19.09 133.07,-23.78 138.07,-28.68"/>
</a>
</g>
</g>
</g>
</svg>
