<?xml version="1.0" encoding="UTF-8" standalone="no"?>
<!DOCTYPE svg PUBLIC "-//W3C//DTD SVG 1.1//EN"
 "http://www.w3.org/Graphics/SVG/1.1/DTD/svg11.dtd">
<!-- Generated by graphviz version 2.43.0 (0)
 -->
<!-- Title: hal_platform/f4xx/exti.h Pages: 1 -->
<svg width="142pt" height="162pt"
 viewBox="0.00 0.00 142.00 162.00" xmlns="http://www.w3.org/2000/svg" xmlns:xlink="http://www.w3.org/1999/xlink">
<g id="graph0" class="graph" transform="scale(1 1) rotate(0) translate(4 158)">
<title>hal_platform/f4xx/exti.h</title>
<!-- Node1 -->
<g id="node1" class="node">
<title>Node1</title>
<g id="a_node1"><a xlink:title=" ">
<polygon fill="#bfbfbf" stroke="black" points="0,-134.5 0,-153.5 134,-153.5 134,-134.5 0,-134.5"/>
<text text-anchor="middle" x="67" y="-141.5" font-family="Helvetica,sans-Serif" font-size="10.00">hal_platform/f4xx/exti.h</text>
</a>
</g>
</g>
<!-- Node2 -->
<g id="node2" class="node">
<title>Node2</title>
<g id="a_node2"><a xlink:href="f4xx_2gpio__impl_8h.html" target="_top" xlink:title=" ">
<polygon fill="none" stroke="black" points="3,-67.5 3,-97.5 131,-97.5 131,-67.5 3,-67.5"/>
<text text-anchor="start" x="11" y="-85.5" font-family="Helvetica,sans-Serif" font-size="10.00">hal_platform/f4xx/gpio</text>
<text text-anchor="middle" x="67" y="-74.5" font-family="Helvetica,sans-Serif" font-size="10.00">_impl.h</text>
</a>
</g>
</g>
<!-- Node1&#45;&gt;Node2 -->
<g id="edge1" class="edge">
<title>Node1&#45;&gt;Node2</title>
<path fill="none" stroke="midnightblue" d="M67,-124.23C67,-115.59 67,-105.5 67,-97.52"/>
<polygon fill="midnightblue" stroke="midnightblue" points="63.5,-124.48 67,-134.48 70.5,-124.48 63.5,-124.48"/>
</g>
<!-- Node3 -->
<g id="node3" class="node">
<title>Node3</title>
<g id="a_node3"><a xlink:href="f4xx_2gpio__impl_8c.html" target="_top" xlink:title=" ">
<polygon fill="none" stroke="black" points="3,-0.5 3,-30.5 131,-30.5 131,-0.5 3,-0.5"/>
<text text-anchor="start" x="11" y="-18.5" font-family="Helvetica,sans-Serif" font-size="10.00">hal_platform/f4xx/gpio</text>
<text text-anchor="middle" x="67" y="-7.5" font-family="Helvetica,sans-Serif" font-size="10.00">_impl.c</text>
</a>
</g>
</g>
<!-- Node2&#45;&gt;Node3 -->
<g id="edge2" class="edge">
<title>Node2&#45;&gt;Node3</title>
<path fill="none" stroke="midnightblue" d="M67,-57.11C67,-48.15 67,-38.32 67,-30.58"/>
<polygon fill="midnightblue" stroke="midnightblue" points="63.5,-57.4 67,-67.4 70.5,-57.4 63.5,-57.4"/>
</g>
</g>
</svg>
