<?xml version="1.0" encoding="UTF-8" standalone="no"?>
<!DOCTYPE svg PUBLIC "-//W3C//DTD SVG 1.1//EN"
 "http://www.w3.org/Graphics/SVG/1.1/DTD/svg11.dtd">
<!-- Generated by graphviz version 2.43.0 (0)
 -->
<!-- Title: hal_platform/f4xx/usb_handlers.h Pages: 1 -->
<svg width="308pt" height="151pt"
 viewBox="0.00 0.00 307.50 151.00" xmlns="http://www.w3.org/2000/svg" xmlns:xlink="http://www.w3.org/1999/xlink">
<g id="graph0" class="graph" transform="scale(1 1) rotate(0) translate(4 147)">
<title>hal_platform/f4xx/usb_handlers.h</title>
<!-- Node1 -->
<g id="node1" class="node">
<title>Node1</title>
<g id="a_node1"><a xlink:title=" ">
<polygon fill="#bfbfbf" stroke="black" points="91.5,-112.5 91.5,-142.5 215.5,-142.5 215.5,-112.5 91.5,-112.5"/>
<text text-anchor="start" x="99.5" y="-130.5" font-family="Helvetica,sans-Serif" font-size="10.00">hal_platform/f4xx/usb</text>
<text text-anchor="middle" x="153.5" y="-119.5" font-family="Helvetica,sans-Serif" font-size="10.00">_handlers.h</text>
</a>
</g>
</g>
<!-- Node2 -->
<g id="node2" class="node">
<title>Node2</title>
<g id="a_node2"><a xlink:href="f4xx_2usb__impl_8h.html" target="_top" xlink:title=" ">
<polygon fill="none" stroke="black" points="118.5,-56.5 118.5,-75.5 188.5,-75.5 188.5,-56.5 118.5,-56.5"/>
<text text-anchor="middle" x="153.5" y="-63.5" font-family="Helvetica,sans-Serif" font-size="10.00">usb_impl.h</text>
</a>
</g>
</g>
<!-- Node1&#45;&gt;Node2 -->
<g id="edge1" class="edge">
<title>Node1&#45;&gt;Node2</title>
<path fill="none" stroke="midnightblue" d="M153.5,-112.4C153.5,-104.47 153.5,-94.46 153.5,-85.86"/>
<polygon fill="midnightblue" stroke="midnightblue" points="157,-85.66 153.5,-75.66 150,-85.66 157,-85.66"/>
</g>
<!-- Node3 -->
<g id="node3" class="node">
<title>Node3</title>
<g id="a_node3"><a xlink:title=" ">
<polygon fill="none" stroke="#bfbfbf" points="0,-0.5 0,-19.5 75,-19.5 75,-0.5 0,-0.5"/>
<text text-anchor="middle" x="37.5" y="-7.5" font-family="Helvetica,sans-Serif" font-size="10.00">hal/uc/usb.h</text>
</a>
</g>
</g>
<!-- Node2&#45;&gt;Node3 -->
<g id="edge2" class="edge">
<title>Node2&#45;&gt;Node3</title>
<path fill="none" stroke="midnightblue" d="M135.12,-56.44C116.28,-47.68 86.77,-33.94 65.12,-23.86"/>
<polygon fill="midnightblue" stroke="midnightblue" points="66.34,-20.56 55.79,-19.52 63.38,-26.91 66.34,-20.56"/>
</g>
<!-- Node4 -->
<g id="node4" class="node">
<title>Node4</title>
<g id="a_node4"><a xlink:title=" ">
<polygon fill="none" stroke="#bfbfbf" points="93,-0.5 93,-19.5 140,-19.5 140,-0.5 93,-0.5"/>
<text text-anchor="middle" x="116.5" y="-7.5" font-family="Helvetica,sans-Serif" font-size="10.00">tusb.h</text>
</a>
</g>
</g>
<!-- Node2&#45;&gt;Node4 -->
<g id="edge3" class="edge">
<title>Node2&#45;&gt;Node4</title>
<path fill="none" stroke="midnightblue" d="M147.39,-56.08C142.22,-48.53 134.65,-37.49 128.31,-28.23"/>
<polygon fill="midnightblue" stroke="midnightblue" points="131.04,-26.02 122.5,-19.75 125.26,-29.98 131.04,-26.02"/>
</g>
<!-- Node5 -->
<g id="node5" class="node">
<title>Node5</title>
<g id="a_node5"><a xlink:title=" ">
<polygon fill="none" stroke="#bfbfbf" points="158,-0.5 158,-19.5 225,-19.5 225,-0.5 158,-0.5"/>
<text text-anchor="middle" x="191.5" y="-7.5" font-family="Helvetica,sans-Serif" font-size="10.00">hal/uc/id.h</text>
</a>
</g>
</g>
<!-- Node2&#45;&gt;Node5 -->
<g id="edge4" class="edge">
<title>Node2&#45;&gt;Node5</title>
<path fill="none" stroke="midnightblue" d="M159.77,-56.08C165.14,-48.46 173.02,-37.26 179.58,-27.94"/>
<polygon fill="midnightblue" stroke="midnightblue" points="182.45,-29.94 185.34,-19.75 176.72,-25.91 182.45,-29.94"/>
</g>
<!-- Node6 -->
<g id="node6" class="node">
<title>Node6</title>
<g id="a_node6"><a xlink:title=" ">
<polygon fill="none" stroke="#bfbfbf" points="243.5,-0.5 243.5,-19.5 299.5,-19.5 299.5,-0.5 243.5,-0.5"/>
<text text-anchor="middle" x="271.5" y="-7.5" font-family="Helvetica,sans-Serif" font-size="10.00">iomap.h</text>
</a>
</g>
</g>
<!-- Node2&#45;&gt;Node6 -->
<g id="edge5" class="edge">
<title>Node2&#45;&gt;Node6</title>
<path fill="none" stroke="midnightblue" d="M172.2,-56.44C191.44,-47.64 221.65,-33.81 243.7,-23.72"/>
<polygon fill="midnightblue" stroke="midnightblue" points="245.25,-26.86 252.89,-19.52 242.34,-20.5 245.25,-26.86"/>
</g>
</g>
</svg>
