<?xml version="1.0" encoding="UTF-8" standalone="no"?>
<!DOCTYPE svg PUBLIC "-//W3C//DTD SVG 1.1//EN"
 "http://www.w3.org/Graphics/SVG/1.1/DTD/svg11.dtd">
<!-- Generated by graphviz version 2.43.0 (0)
 -->
<!-- Title: hal_platform/f4xx/exti_handlers.h Pages: 1 -->
<svg width="280pt" height="170pt"
 viewBox="0.00 0.00 279.50 170.00" xmlns="http://www.w3.org/2000/svg" xmlns:xlink="http://www.w3.org/1999/xlink">
<g id="graph0" class="graph" transform="scale(1 1) rotate(0) translate(4 166)">
<title>hal_platform/f4xx/exti_handlers.h</title>
<!-- Node1 -->
<g id="Node000001" class="node">
<title>Node1</title>
<g id="a_Node000001"><a xlink:title=" ">
<polygon fill="#999999" stroke="#666666" points="197,-162 72,-162 72,-132 197,-132 197,-162"/>
<text text-anchor="start" x="80" y="-150" font-family="Helvetica,sans-Serif" font-size="10.00">hal_platform/f4xx/exti</text>
<text text-anchor="middle" x="134.5" y="-139" font-family="Helvetica,sans-Serif" font-size="10.00">_handlers.h</text>
</a>
</g>
</g>
<!-- Node2 -->
<g id="Node000002" class="node">
<title>Node2</title>
<g id="a_Node000002"><a xlink:href="f4xx_2exti__handlers_8c.html" target="_top" xlink:title=" ">
<polygon fill="white" stroke="#666666" points="125,-96 0,-96 0,-66 125,-66 125,-96"/>
<text text-anchor="start" x="8" y="-84" font-family="Helvetica,sans-Serif" font-size="10.00">hal_platform/f4xx/exti</text>
<text text-anchor="middle" x="62.5" y="-73" font-family="Helvetica,sans-Serif" font-size="10.00">_handlers.c</text>
</a>
</g>
</g>
<!-- Node1&#45;&gt;Node2 -->
<g id="edge1_Node000001_Node000002" class="edge">
<title>Node1&#45;&gt;Node2</title>
<g id="a_edge1_Node000001_Node000002"><a xlink:title=" ">
<path fill="none" stroke="#63b8ff" d="M110.79,-124.92C100.17,-115.49 87.93,-104.61 78.43,-96.16"/>
<polygon fill="#63b8ff" stroke="#63b8ff" points="108.72,-127.77 118.52,-131.8 113.37,-122.54 108.72,-127.77"/>
</a>
</g>
</g>
<!-- Node3 -->
<g id="Node000003" class="node">
<title>Node3</title>
<g id="a_Node000003"><a xlink:href="f4xx_2gpio__impl_8h.html" target="_top" xlink:title=" ">
<polygon fill="white" stroke="#666666" points="271.5,-96 143.5,-96 143.5,-66 271.5,-66 271.5,-96"/>
<text text-anchor="start" x="151.5" y="-84" font-family="Helvetica,sans-Serif" font-size="10.00">hal_platform/f4xx/gpio</text>
<text text-anchor="middle" x="207.5" y="-73" font-family="Helvetica,sans-Serif" font-size="10.00">_impl.h</text>
</a>
</g>
</g>
<!-- Node1&#45;&gt;Node3 -->
<g id="edge2_Node000001_Node000003" class="edge">
<title>Node1&#45;&gt;Node3</title>
<g id="a_edge2_Node000001_Node000003"><a xlink:title=" ">
<path fill="none" stroke="#63b8ff" d="M158.22,-125.2C169.06,-115.7 181.62,-104.69 191.34,-96.16"/>
<polygon fill="#63b8ff" stroke="#63b8ff" points="155.91,-122.57 150.7,-131.8 160.53,-127.84 155.91,-122.57"/>
</a>
</g>
</g>
<!-- Node4 -->
<g id="Node000004" class="node">
<title>Node4</title>
<g id="a_Node000004"><a xlink:href="f4xx_2gpio__impl_8c.html" target="_top" xlink:title=" ">
<polygon fill="white" stroke="#666666" points="271.5,-30 143.5,-30 143.5,0 271.5,0 271.5,-30"/>
<text text-anchor="start" x="151.5" y="-18" font-family="Helvetica,sans-Serif" font-size="10.00">hal_platform/f4xx/gpio</text>
<text text-anchor="middle" x="207.5" y="-7" font-family="Helvetica,sans-Serif" font-size="10.00">_impl.c</text>
</a>
</g>
</g>
<!-- Node3&#45;&gt;Node4 -->
<g id="edge3_Node000003_Node000004" class="edge">
<title>Node3&#45;&gt;Node4</title>
<g id="a_edge3_Node000003_Node000004"><a xlink:title=" ">
<path fill="none" stroke="#63b8ff" d="M207.5,-55.54C207.5,-46.96 207.5,-37.61 207.5,-30.16"/>
<polygon fill="#63b8ff" stroke="#63b8ff" points="204,-55.8 207.5,-65.8 211,-55.8 204,-55.8"/>
</a>
</g>
</g>
</g>
</svg>
