<?xml version="1.0" encoding="UTF-8" standalone="no"?>
<!DOCTYPE svg PUBLIC "-//W3C//DTD SVG 1.1//EN"
 "http://www.w3.org/Graphics/SVG/1.1/DTD/svg11.dtd">
<!-- Generated by graphviz version 2.43.0 (0)
 -->
<!-- Title: exti_handler Pages: 1 -->
<!--zoomable 767 -->

<svg id="main" version="1.1" xmlns="http://www.w3.org/2000/svg" xmlns:xlink="http://www.w3.org/1999/xlink" xml:space="preserve" onload="init(evt)">
<style type="text/css"><![CDATA[
.node, .edge {opacity: 0.7;}
.node.selected, .edge.selected {opacity: 1;}
.edge:hover path { stroke: red; }
.edge:hover polygon { stroke: red; fill: red; }
]]></style>

<defs>
  <circle id="rim" cx="0" cy="0" r="7"/>
  <circle id="rim2" cx="0" cy="0" r="3.5"/>
  <g id="zoomPlus">
    <use xlink:href="#rim" fill="#404040"><set attributeName="fill" to="#808080" begin="zoomplus.mouseover" end="zoomplus.mouseout"/></use>
    <path d="M-4,0h8M0,-4v8" fill="none" stroke="white" stroke-width="1.5" pointer-events="none"/>
  </g>
  <g id="zoomMin">
    <use xlink:href="#rim" fill="#404040"><set attributeName="fill" to="#808080" begin="zoomminus.mouseover" end="zoomminus.mouseout"/></use>
    <path d="M-4,0h8" fill="none" stroke="white" stroke-width="1.5" pointer-events="none"/>
  </g>
  <g id="arrowUp" transform="translate(30 24)">
    <use xlink:href="#rim"/>
    <path pointer-events="none" fill="none" stroke="white" stroke-width="1.5" d="M0,-3.0v7 M-2.5,-0.5L0,-3.0L2.5,-0.5"/>
  </g>
  <g id="arrowRight" transform="rotate(90) translate(36 -43)">
    <use xlink:href="#rim"/>
    <path pointer-events="none" fill="none" stroke="white" stroke-width="1.5" d="M0,-3.0v7 M-2.5,-0.5L0,-3.0L2.5,-0.5"/>
  </g>
  <g id="arrowDown" transform="rotate(180) translate(-30 -48)">
    <use xlink:href="#rim"/>
    <path pointer-events="none" fill="none" stroke="white" stroke-width="1.5" d="M0,-3.0v7 M-2.5,-0.5L0,-3.0L2.5,-0.5"/>
  </g>
  <g id="arrowLeft" transform="rotate(270) translate(-36 17)">
    <use xlink:href="#rim"/>
    <path pointer-events="none" fill="none" stroke="white" stroke-width="1.5" d="M0,-3.0v7 M-2.5,-0.5L0,-3.0L2.5,-0.5"/>
  </g>
  <g id="resetDef">
    <use xlink:href="#rim2" fill="#404040"><set attributeName="fill" to="#808080" begin="reset.mouseover" end="reset.mouseout"/></use>
  </g>
</defs>
<script type="application/ecmascript">
var viewWidth = 249;
var viewHeight = 767;
var sectionId = 'dynsection-8';
</script>
<script type="application/ecmascript" xlink:href="svg.min.js"/>
<svg id="graph" class="graph">
<g id="viewport">
<title>exti_handler</title>
<!-- Node1 -->
<g id="Node000001" class="node">
<title>Node1</title>
<g id="a_Node000001"><a xlink:title=" ">
<polygon fill="#999999" stroke="#666666" points="241,-389 164,-389 164,-370 241,-370 241,-389"/>
<text text-anchor="middle" x="202.5" y="-377" font-family="Helvetica,sans-Serif" font-size="10.00">exti_handler</text>
</a>
</g>
</g>
<!-- Node2 -->
<g id="Node000002" class="node">
<title>Node2</title>
<g id="a_Node000002"><a xlink:href="u0xx_2exti__handlers_8c.html#af5dd30f24d12ce01d03c375f0802671f" target="_top" xlink:title="This function handles EXTI lines 0&#45;1 interrupts.">
<polygon fill="white" stroke="#666666" points="122,-759 6,-759 6,-740 122,-740 122,-759"/>
<text text-anchor="middle" x="64" y="-747" font-family="Helvetica,sans-Serif" font-size="10.00">EXTI0_1_IRQHandler</text>
</a>
</g>
</g>
<!-- Node1&#45;&gt;Node2 -->
<g id="edge1_Node000001_Node000002" class="edge">
<title>Node1&#45;&gt;Node2</title>
<g id="a_edge1_Node000001_Node000002"><a xlink:title=" ">
<path fill="none" stroke="#63b8ff" d="M200.04,-398.98C194.68,-465.47 173.92,-682.13 128,-731.5 124.82,-734.92 121.05,-737.7 116.95,-739.96"/>
<polygon fill="#63b8ff" stroke="#63b8ff" points="203.53,-399.25 200.82,-389 196.55,-398.7 203.53,-399.25"/>
</a>
</g>
</g>
<!-- Node3 -->
<g id="Node000003" class="node">
<title>Node3</title>
<g id="a_Node000003"><a xlink:href="f4xx_2exti__handlers_8c.html#a17e9789a29a87d2df54f12b94dd1a0b6" target="_top" xlink:title="This function handles EXTI line0 interrupt.">
<polygon fill="white" stroke="#666666" points="116.5,-722 11.5,-722 11.5,-703 116.5,-703 116.5,-722"/>
<text text-anchor="middle" x="64" y="-710" font-family="Helvetica,sans-Serif" font-size="10.00">EXTI0_IRQHandler</text>
</a>
</g>
</g>
<!-- Node1&#45;&gt;Node3 -->
<g id="edge2_Node000001_Node000003" class="edge">
<title>Node1&#45;&gt;Node3</title>
<g id="a_edge2_Node000001_Node000003"><a xlink:title=" ">
<path fill="none" stroke="#63b8ff" d="M199.49,-399.31C192.79,-461.48 169.28,-651.14 128,-694.5 124.71,-697.96 120.8,-700.77 116.56,-703.05"/>
<polygon fill="#63b8ff" stroke="#63b8ff" points="202.98,-399.56 200.54,-389.25 196.02,-398.83 202.98,-399.56"/>
</a>
</g>
</g>
<!-- Node4 -->
<g id="Node000004" class="node">
<title>Node4</title>
<g id="a_Node000004"><a xlink:href="h7rsxx_2exti__handlers_8c.html#a3908d636f462dd2161f827b2492d1529" target="_top" xlink:title=" ">
<polygon fill="white" stroke="#666666" points="119.5,-685 8.5,-685 8.5,-666 119.5,-666 119.5,-685"/>
<text text-anchor="middle" x="64" y="-673" font-family="Helvetica,sans-Serif" font-size="10.00">EXTI10_IRQHandler</text>
</a>
</g>
</g>
<!-- Node1&#45;&gt;Node4 -->
<g id="edge3_Node000001_Node000004" class="edge">
<title>Node1&#45;&gt;Node4</title>
<g id="a_edge3_Node000001_Node000004"><a xlink:title=" ">
<path fill="none" stroke="#63b8ff" d="M198.84,-399.19C190.76,-456.25 164.78,-619.99 128,-657.5 124.66,-660.91 120.71,-663.69 116.46,-665.95"/>
<polygon fill="#63b8ff" stroke="#63b8ff" points="202.31,-399.66 200.22,-389.27 195.38,-398.7 202.31,-399.66"/>
</a>
</g>
</g>
<!-- Node5 -->
<g id="Node000005" class="node">
<title>Node5</title>
<g id="a_Node000005"><a xlink:href="h7rsxx_2exti__handlers_8c.html#a501e628a1389a069b4623e84054e6855" target="_top" xlink:title=" ">
<polygon fill="white" stroke="#666666" points="119.5,-648 8.5,-648 8.5,-629 119.5,-629 119.5,-648"/>
<text text-anchor="middle" x="64" y="-636" font-family="Helvetica,sans-Serif" font-size="10.00">EXTI11_IRQHandler</text>
</a>
</g>
</g>
<!-- Node1&#45;&gt;Node5 -->
<g id="edge4_Node000001_Node000005" class="edge">
<title>Node1&#45;&gt;Node5</title>
<g id="a_edge4_Node000001_Node000005"><a xlink:title=" ">
<path fill="none" stroke="#63b8ff" d="M201.46,-399.58C200.26,-445.49 190.71,-558.89 128,-620.5 124.51,-623.93 120.42,-626.71 116.02,-628.97"/>
<polygon fill="#63b8ff" stroke="#63b8ff" points="204.97,-399.49 201.62,-389.44 197.97,-399.38 204.97,-399.49"/>
</a>
</g>
</g>
<!-- Node6 -->
<g id="Node000006" class="node">
<title>Node6</title>
<g id="a_Node000006"><a xlink:href="h7rsxx_2exti__handlers_8c.html#ae790c1a3e247c378b85979c09bf00864" target="_top" xlink:title=" ">
<polygon fill="white" stroke="#666666" points="119.5,-611 8.5,-611 8.5,-592 119.5,-592 119.5,-611"/>
<text text-anchor="middle" x="64" y="-599" font-family="Helvetica,sans-Serif" font-size="10.00">EXTI12_IRQHandler</text>
</a>
</g>
</g>
<!-- Node1&#45;&gt;Node6 -->
<g id="edge5_Node000001_Node000006" class="edge">
<title>Node1&#45;&gt;Node6</title>
<g id="a_edge5_Node000001_Node000006"><a xlink:title=" ">
<path fill="none" stroke="#63b8ff" d="M200.19,-399.24C196.43,-439.81 182.05,-532.98 128,-583.5 124.34,-586.92 120.08,-589.69 115.53,-591.94"/>
<polygon fill="#63b8ff" stroke="#63b8ff" points="203.68,-399.52 201,-389.27 196.71,-398.95 203.68,-399.52"/>
</a>
</g>
</g>
<!-- Node7 -->
<g id="Node000007" class="node">
<title>Node7</title>
<g id="a_Node000007"><a xlink:href="h7rsxx_2exti__handlers_8c.html#a72722eb2754d8a9b2766b3f6c18c138d" target="_top" xlink:title=" ">
<polygon fill="white" stroke="#666666" points="119.5,-574 8.5,-574 8.5,-555 119.5,-555 119.5,-574"/>
<text text-anchor="middle" x="64" y="-562" font-family="Helvetica,sans-Serif" font-size="10.00">EXTI13_IRQHandler</text>
</a>
</g>
</g>
<!-- Node1&#45;&gt;Node7 -->
<g id="edge6_Node000001_Node000007" class="edge">
<title>Node1&#45;&gt;Node7</title>
<g id="a_edge6_Node000001_Node000007"><a xlink:title=" ">
<path fill="none" stroke="#63b8ff" d="M198.45,-398.97C191.95,-433.81 173.45,-506.86 128,-546.5 124.06,-549.94 119.5,-552.72 114.67,-554.98"/>
<polygon fill="#63b8ff" stroke="#63b8ff" points="201.9,-399.54 200.15,-389.09 195,-398.35 201.9,-399.54"/>
</a>
</g>
</g>
<!-- Node8 -->
<g id="Node000008" class="node">
<title>Node8</title>
<g id="a_Node000008"><a xlink:href="h7rsxx_2exti__handlers_8c.html#a3dc9fc7b634cba61248c09cfaa3884b4" target="_top" xlink:title=" ">
<polygon fill="white" stroke="#666666" points="119.5,-537 8.5,-537 8.5,-518 119.5,-518 119.5,-537"/>
<text text-anchor="middle" x="64" y="-525" font-family="Helvetica,sans-Serif" font-size="10.00">EXTI14_IRQHandler</text>
</a>
</g>
</g>
<!-- Node1&#45;&gt;Node8 -->
<g id="edge7_Node000001_Node000008" class="edge">
<title>Node1&#45;&gt;Node8</title>
<g id="a_edge7_Node000001_Node000008"><a xlink:title=" ">
<path fill="none" stroke="#63b8ff" d="M195.88,-398.59C186.53,-427.04 165.02,-480.33 128,-509.5 123.62,-512.95 118.61,-515.74 113.37,-517.99"/>
<polygon fill="#63b8ff" stroke="#63b8ff" points="199.24,-399.6 198.88,-389.01 192.56,-397.51 199.24,-399.6"/>
</a>
</g>
</g>
<!-- Node9 -->
<g id="Node000009" class="node">
<title>Node9</title>
<g id="a_Node000009"><a xlink:href="f4xx_2exti__handlers_8c.html#a738473a5b43f6c92b80ce1d3d6f77ed9" target="_top" xlink:title="This function handles EXTI line 10&#45;15 interrupts.">
<polygon fill="white" stroke="#666666" points="128,-500 0,-500 0,-481 128,-481 128,-500"/>
<text text-anchor="middle" x="64" y="-488" font-family="Helvetica,sans-Serif" font-size="10.00">EXTI15_10_IRQHandler</text>
</a>
</g>
</g>
<!-- Node1&#45;&gt;Node9 -->
<g id="edge8_Node000001_Node000009" class="edge">
<title>Node1&#45;&gt;Node9</title>
<g id="a_edge8_Node000001_Node000009"><a xlink:title=" ">
<path fill="none" stroke="#63b8ff" d="M191.67,-397.96C179.49,-419.08 156.78,-453.22 128,-472.5 122.9,-475.92 117.14,-478.7 111.24,-480.95"/>
<polygon fill="#63b8ff" stroke="#63b8ff" points="194.85,-399.46 196.65,-389.02 188.73,-396.06 194.85,-399.46"/>
</a>
</g>
</g>
<!-- Node10 -->
<g id="Node000010" class="node">
<title>Node10</title>
<g id="a_Node000010"><a xlink:href="h7rsxx_2exti__handlers_8c.html#a51e974a4f4d3974c7f57c55dc8eabe8c" target="_top" xlink:title=" ">
<polygon fill="white" stroke="#666666" points="119.5,-463 8.5,-463 8.5,-444 119.5,-444 119.5,-463"/>
<text text-anchor="middle" x="64" y="-451" font-family="Helvetica,sans-Serif" font-size="10.00">EXTI15_IRQHandler</text>
</a>
</g>
</g>
<!-- Node1&#45;&gt;Node10 -->
<g id="edge9_Node000001_Node000010" class="edge">
<title>Node1&#45;&gt;Node10</title>
<g id="a_edge9_Node000001_Node000010"><a xlink:title=" ">
<path fill="none" stroke="#63b8ff" d="M183.89,-395.96C169.74,-408.39 148.86,-425.04 128,-435.5 121.39,-438.81 114.08,-441.6 106.84,-443.93"/>
<polygon fill="#63b8ff" stroke="#63b8ff" points="186.3,-398.5 191.39,-389.21 181.62,-393.3 186.3,-398.5"/>
</a>
</g>
</g>
<!-- Node11 -->
<g id="Node000011" class="node">
<title>Node11</title>
<g id="a_Node000011"><a xlink:href="f4xx_2exti__handlers_8c.html#a49cfdd46eb8d0ef3e1987514aa9343dc" target="_top" xlink:title="This function handles EXTI line1 interrupt.">
<polygon fill="white" stroke="#666666" points="116.5,-426 11.5,-426 11.5,-407 116.5,-407 116.5,-426"/>
<text text-anchor="middle" x="64" y="-414" font-family="Helvetica,sans-Serif" font-size="10.00">EXTI1_IRQHandler</text>
</a>
</g>
</g>
<!-- Node1&#45;&gt;Node11 -->
<g id="edge10_Node000001_Node000011" class="edge">
<title>Node1&#45;&gt;Node11</title>
<g id="a_edge10_Node000001_Node000011"><a xlink:title=" ">
<path fill="none" stroke="#63b8ff" d="M156.53,-391.69C138.33,-396.62 117.62,-402.24 100.51,-406.88"/>
<polygon fill="#63b8ff" stroke="#63b8ff" points="157.61,-395.02 166.35,-389.03 155.78,-388.27 157.61,-395.02"/>
</a>
</g>
</g>
<!-- Node12 -->
<g id="Node000012" class="node">
<title>Node12</title>
<g id="a_Node000012"><a xlink:href="u0xx_2exti__handlers_8c.html#ae00a10bd0f2f4c129c84120e78ad4382" target="_top" xlink:title="This function handles EXTI lines 2&#45;3 interrupts.">
<polygon fill="white" stroke="#666666" points="122,-389 6,-389 6,-370 122,-370 122,-389"/>
<text text-anchor="middle" x="64" y="-377" font-family="Helvetica,sans-Serif" font-size="10.00">EXTI2_3_IRQHandler</text>
</a>
</g>
</g>
<!-- Node1&#45;&gt;Node12 -->
<g id="edge11_Node000001_Node000012" class="edge">
<title>Node1&#45;&gt;Node12</title>
<g id="a_edge11_Node000001_Node000012"><a xlink:title=" ">
<path fill="none" stroke="#63b8ff" d="M153.57,-379.5C143.44,-379.5 132.66,-379.5 122.24,-379.5"/>
<polygon fill="#63b8ff" stroke="#63b8ff" points="153.84,-383 163.84,-379.5 153.84,-376 153.84,-383"/>
</a>
</g>
</g>
<!-- Node13 -->
<g id="Node000013" class="node">
<title>Node13</title>
<g id="a_Node000013"><a xlink:href="f4xx_2exti__handlers_8c.html#ab5a1d9e9c8ef50e0cb9ddb5745a20a14" target="_top" xlink:title="This function handles EXTI line2 interrupt.">
<polygon fill="white" stroke="#666666" points="116.5,-352 11.5,-352 11.5,-333 116.5,-333 116.5,-352"/>
<text text-anchor="middle" x="64" y="-340" font-family="Helvetica,sans-Serif" font-size="10.00">EXTI2_IRQHandler</text>
</a>
</g>
</g>
<!-- Node1&#45;&gt;Node13 -->
<g id="edge12_Node000001_Node000013" class="edge">
<title>Node1&#45;&gt;Node13</title>
<g id="a_edge12_Node000001_Node000013"><a xlink:title=" ">
<path fill="none" stroke="#63b8ff" d="M156.53,-367.31C138.33,-362.38 117.62,-356.76 100.51,-352.12"/>
<polygon fill="#63b8ff" stroke="#63b8ff" points="155.78,-370.73 166.35,-369.97 157.61,-363.98 155.78,-370.73"/>
</a>
</g>
</g>
<!-- Node14 -->
<g id="Node000014" class="node">
<title>Node14</title>
<g id="a_Node000014"><a xlink:href="f4xx_2exti__handlers_8c.html#a30c045de96d18ec9c67a7b9e4350920f" target="_top" xlink:title="This function handles EXTI line3 interrupt.">
<polygon fill="white" stroke="#666666" points="116.5,-315 11.5,-315 11.5,-296 116.5,-296 116.5,-315"/>
<text text-anchor="middle" x="64" y="-303" font-family="Helvetica,sans-Serif" font-size="10.00">EXTI3_IRQHandler</text>
</a>
</g>
</g>
<!-- Node1&#45;&gt;Node14 -->
<g id="edge13_Node000001_Node000014" class="edge">
<title>Node1&#45;&gt;Node14</title>
<g id="a_edge13_Node000001_Node000014"><a xlink:title=" ">
<path fill="none" stroke="#63b8ff" d="M183.3,-363.01C169.12,-350.91 148.45,-334.83 128,-324.5 120.66,-320.79 112.46,-317.67 104.47,-315.09"/>
<polygon fill="#63b8ff" stroke="#63b8ff" points="181.02,-365.67 190.86,-369.61 185.63,-360.4 181.02,-365.67"/>
</a>
</g>
</g>
<!-- Node15 -->
<g id="Node000015" class="node">
<title>Node15</title>
<g id="a_Node000015"><a xlink:href="u0xx_2exti__handlers_8c.html#a3595b205bdfadf55a525f2d4f438d122" target="_top" xlink:title="This function handles EXTI line 4&#45;15 interrupts.">
<polygon fill="white" stroke="#666666" points="125,-278 3,-278 3,-259 125,-259 125,-278"/>
<text text-anchor="middle" x="64" y="-266" font-family="Helvetica,sans-Serif" font-size="10.00">EXTI4_15_IRQHandler</text>
</a>
</g>
</g>
<!-- Node1&#45;&gt;Node15 -->
<g id="edge14_Node000001_Node000015" class="edge">
<title>Node1&#45;&gt;Node15</title>
<g id="a_edge14_Node000001_Node000015"><a xlink:title=" ">
<path fill="none" stroke="#63b8ff" d="M191.38,-360.99C179.07,-340.14 156.36,-306.69 128,-287.5 122.32,-283.66 115.85,-280.57 109.26,-278.1"/>
<polygon fill="#63b8ff" stroke="#63b8ff" points="188.44,-362.89 196.44,-369.84 194.52,-359.42 188.44,-362.89"/>
</a>
</g>
</g>
<!-- Node16 -->
<g id="Node000016" class="node">
<title>Node16</title>
<g id="a_Node000016"><a xlink:href="f4xx_2exti__handlers_8c.html#a290cb997018c8d85d4b965b4a242842f" target="_top" xlink:title="This function handles EXTI line4 interrupts.">
<polygon fill="white" stroke="#666666" points="116.5,-241 11.5,-241 11.5,-222 116.5,-222 116.5,-241"/>
<text text-anchor="middle" x="64" y="-229" font-family="Helvetica,sans-Serif" font-size="10.00">EXTI4_IRQHandler</text>
</a>
</g>
</g>
<!-- Node1&#45;&gt;Node16 -->
<g id="edge15_Node000001_Node000016" class="edge">
<title>Node1&#45;&gt;Node16</title>
<g id="a_edge15_Node000001_Node000016"><a xlink:title=" ">
<path fill="none" stroke="#63b8ff" d="M195.65,-360.21C186.09,-331.96 164.46,-279.56 128,-250.5 123.09,-246.58 117.38,-243.47 111.44,-241"/>
<polygon fill="#63b8ff" stroke="#63b8ff" points="192.33,-361.31 198.72,-369.75 198.99,-359.16 192.33,-361.31"/>
</a>
</g>
</g>
<!-- Node17 -->
<g id="Node000017" class="node">
<title>Node17</title>
<g id="a_Node000017"><a xlink:href="h7rsxx_2exti__handlers_8c.html#ad6633b99684a2bbb518aae77c97c09c1" target="_top" xlink:title=" ">
<polygon fill="white" stroke="#666666" points="116.5,-204 11.5,-204 11.5,-185 116.5,-185 116.5,-204"/>
<text text-anchor="middle" x="64" y="-192" font-family="Helvetica,sans-Serif" font-size="10.00">EXTI5_IRQHandler</text>
</a>
</g>
</g>
<!-- Node1&#45;&gt;Node17 -->
<g id="edge16_Node000001_Node000017" class="edge">
<title>Node1&#45;&gt;Node17</title>
<g id="a_edge16_Node000001_Node000017"><a xlink:title=" ">
<path fill="none" stroke="#63b8ff" d="M198.27,-359.76C191.55,-325.05 172.78,-253.05 128,-213.5 123.63,-209.64 118.51,-206.57 113.09,-204.12"/>
<polygon fill="#63b8ff" stroke="#63b8ff" points="194.89,-360.77 200.11,-370 201.78,-359.54 194.89,-360.77"/>
</a>
</g>
</g>
<!-- Node18 -->
<g id="Node000018" class="node">
<title>Node18</title>
<g id="a_Node000018"><a xlink:href="h7rsxx_2exti__handlers_8c.html#abde3981aa9e60780c3955c7b6f055e03" target="_top" xlink:title=" ">
<polygon fill="white" stroke="#666666" points="116.5,-167 11.5,-167 11.5,-148 116.5,-148 116.5,-167"/>
<text text-anchor="middle" x="64" y="-155" font-family="Helvetica,sans-Serif" font-size="10.00">EXTI6_IRQHandler</text>
</a>
</g>
</g>
<!-- Node1&#45;&gt;Node18 -->
<g id="edge17_Node000001_Node000018" class="edge">
<title>Node1&#45;&gt;Node18</title>
<g id="a_edge17_Node000001_Node000018"><a xlink:title=" ">
<path fill="none" stroke="#63b8ff" d="M200.08,-359.66C196.1,-319.27 181.37,-227.04 128,-176.5 123.94,-172.65 119.12,-169.58 113.99,-167.13"/>
<polygon fill="#63b8ff" stroke="#63b8ff" points="196.61,-360.15 200.95,-369.81 203.58,-359.55 196.61,-360.15"/>
</a>
</g>
</g>
<!-- Node19 -->
<g id="Node000019" class="node">
<title>Node19</title>
<g id="a_Node000019"><a xlink:href="h7rsxx_2exti__handlers_8c.html#a344f002e20ead7d83a064a552744f6f2" target="_top" xlink:title=" ">
<polygon fill="white" stroke="#666666" points="116.5,-130 11.5,-130 11.5,-111 116.5,-111 116.5,-130"/>
<text text-anchor="middle" x="64" y="-118" font-family="Helvetica,sans-Serif" font-size="10.00">EXTI7_IRQHandler</text>
</a>
</g>
</g>
<!-- Node1&#45;&gt;Node19 -->
<g id="edge18_Node000001_Node000019" class="edge">
<title>Node1&#45;&gt;Node19</title>
<g id="a_edge18_Node000001_Node000019"><a xlink:title=" ">
<path fill="none" stroke="#63b8ff" d="M201.37,-359.56C199.98,-313.97 190.06,-201.29 128,-139.5 124.11,-135.63 119.47,-132.54 114.49,-130.08"/>
<polygon fill="#63b8ff" stroke="#63b8ff" points="197.88,-359.71 201.57,-369.64 204.87,-359.57 197.88,-359.71"/>
</a>
</g>
</g>
<!-- Node20 -->
<g id="Node000020" class="node">
<title>Node20</title>
<g id="a_Node000020"><a xlink:href="h7rsxx_2exti__handlers_8c.html#ac3afb2a7be61f0fb40b615b440fd1ba1" target="_top" xlink:title=" ">
<polygon fill="white" stroke="#666666" points="116.5,-93 11.5,-93 11.5,-74 116.5,-74 116.5,-93"/>
<text text-anchor="middle" x="64" y="-81" font-family="Helvetica,sans-Serif" font-size="10.00">EXTI8_IRQHandler</text>
</a>
</g>
</g>
<!-- Node1&#45;&gt;Node20 -->
<g id="edge19_Node000001_Node000020" class="edge">
<title>Node1&#45;&gt;Node20</title>
<g id="a_edge19_Node000001_Node000020"><a xlink:title=" ">
<path fill="none" stroke="#63b8ff" d="M202.35,-359.65C203.38,-309.38 198.91,-175.83 128,-102.5 124.27,-98.64 119.78,-95.56 114.95,-93.1"/>
<polygon fill="#63b8ff" stroke="#63b8ff" points="198.85,-359.71 202.04,-369.82 205.85,-359.93 198.85,-359.71"/>
</a>
</g>
</g>
<!-- Node21 -->
<g id="Node000021" class="node">
<title>Node21</title>
<g id="a_Node000021"><a xlink:href="f4xx_2exti__handlers_8c.html#a7b2096b8b2643286dc3a7e5110e5ae85" target="_top" xlink:title="This function handles EXTI line 5&#45;9 interrupts.">
<polygon fill="white" stroke="#666666" points="122,-56 6,-56 6,-37 122,-37 122,-56"/>
<text text-anchor="middle" x="64" y="-44" font-family="Helvetica,sans-Serif" font-size="10.00">EXTI9_5_IRQHandler</text>
</a>
</g>
</g>
<!-- Node1&#45;&gt;Node21 -->
<g id="edge20_Node000001_Node000021" class="edge">
<title>Node1&#45;&gt;Node21</title>
<g id="a_edge20_Node000001_Node000021"><a xlink:title=" ">
<path fill="none" stroke="#63b8ff" d="M199.45,-359.78C192.64,-297.88 168.86,-109.02 128,-65.5 124.4,-61.67 120.06,-58.6 115.37,-56.15"/>
<polygon fill="#63b8ff" stroke="#63b8ff" points="195.98,-360.22 200.53,-369.79 202.94,-359.48 195.98,-360.22"/>
</a>
</g>
</g>
<!-- Node22 -->
<g id="Node000022" class="node">
<title>Node22</title>
<g id="a_Node000022"><a xlink:href="h7rsxx_2exti__handlers_8c.html#a60a312fc3bed216a7a53d9a737df23b6" target="_top" xlink:title=" ">
<polygon fill="white" stroke="#666666" points="116.5,-19 11.5,-19 11.5,0 116.5,0 116.5,-19"/>
<text text-anchor="middle" x="64" y="-7" font-family="Helvetica,sans-Serif" font-size="10.00">EXTI9_IRQHandler</text>
</a>
</g>
</g>
<!-- Node1&#45;&gt;Node22 -->
<g id="edge21_Node000001_Node000022" class="edge">
<title>Node1&#45;&gt;Node22</title>
<g id="a_edge21_Node000001_Node000022"><a xlink:title=" ">
<path fill="none" stroke="#63b8ff" d="M199.97,-359.67C194.44,-292.93 173.35,-77.95 128,-28.5 124.45,-24.63 120.14,-21.53 115.46,-19.06"/>
<polygon fill="#63b8ff" stroke="#63b8ff" points="196.49,-360.01 200.78,-369.7 203.46,-359.45 196.49,-360.01"/>
</a>
</g>
</g>
</g>
</svg>

<g id="navigator" transform="translate(0 0)" fill="#404254">
  <rect fill="#f2f5e9" fill-opacity="0.5" stroke="#606060" stroke-width=".5" x="0" y="0" width="60" height="60"/>
  <use id="zoomplus" xlink:href="#zoomPlus" x="17" y="9" onmousedown="handleZoom(evt,'in')"/>
  <use id="zoomminus" xlink:href="#zoomMin" x="42" y="9" onmousedown="handleZoom(evt,'out')"/>
  <use id="reset" xlink:href="#resetDef" x="30" y="36" onmousedown="handleReset()"/>
   <use id="arrowup" xlink:href="#arrowUp" x="0" y="0" onmousedown="handlePan(0,-1)"/>
  <use id="arrowright" xlink:href="#arrowRight" x="0" y="0" onmousedown="handlePan(1,0)"/>
  <use id="arrowdown" xlink:href="#arrowDown" x="0" y="0" onmousedown="handlePan(0,1)"/>
  <use id="arrowleft" xlink:href="#arrowLeft" x="0" y="0" onmousedown="handlePan(-1,0)"/>
</g>
<svg viewBox="0 0 15 15" width="100%" height="30px" preserveAspectRatio="xMaxYMin meet">
 <g id="arrow_out" transform="scale(0.3 0.3)">
  <a xlink:href="f4xx_2exti__handlers_8c_ace4802f0dcdcb019f1528b7e018fb5dd_icgraph_org.svg" target="_base">
   <rect id="button" ry="5" rx="5" y="6" x="6" height="38" width="38"
        fill="#f2f5e9" fill-opacity="0.5" stroke="#606060" stroke-width="1.0"/>
   <path id="arrow"
     d="M 11.500037,31.436501 C 11.940474,20.09759 22.043105,11.32322 32.158766,21.979434 L 37.068811,17.246167 C 37.068811,17.246167 37.088388,32 37.088388,32 L 22.160133,31.978069 C 22.160133,31.978069 26.997745,27.140456 26.997745,27.140456 C 18.528582,18.264221 13.291696,25.230495 11.500037,31.436501 z"
     style="fill:#404040;"/>
  </a>
 </g>
</svg>

<style type='text/css'>
<![CDATA[
[data-mouse-over-selected='false'] { opacity: 0.7; }
[data-mouse-over-selected='true']  { opacity: 1.0; }
]]>
</style>
<script type="application/ecmascript"><![CDATA[
document.addEventListener('DOMContentLoaded', (event) => {
  highlightEdges();
  highlightAdjacentNodes();
});
]]></script>
</svg>
