<?xml version="1.0" encoding="UTF-8" standalone="no"?>
<!DOCTYPE svg PUBLIC "-//W3C//DTD SVG 1.1//EN"
 "http://www.w3.org/Graphics/SVG/1.1/DTD/svg11.dtd">
<!-- Generated by graphviz version 2.43.0 (0)
 -->
<!-- Title: hal_platform/f4xx/exti_handlers.h Pages: 1 -->
<svg width="280pt" height="173pt"
 viewBox="0.00 0.00 279.50 173.00" xmlns="http://www.w3.org/2000/svg" xmlns:xlink="http://www.w3.org/1999/xlink">
<g id="graph0" class="graph" transform="scale(1 1) rotate(0) translate(4 169)">
<title>hal_platform/f4xx/exti_handlers.h</title>
<!-- Node1 -->
<g id="node1" class="node">
<title>Node1</title>
<g id="a_node1"><a xlink:title=" ">
<polygon fill="#bfbfbf" stroke="black" points="72,-134.5 72,-164.5 197,-164.5 197,-134.5 72,-134.5"/>
<text text-anchor="start" x="80" y="-152.5" font-family="Helvetica,sans-Serif" font-size="10.00">hal_platform/f4xx/exti</text>
<text text-anchor="middle" x="134.5" y="-141.5" font-family="Helvetica,sans-Serif" font-size="10.00">_handlers.h</text>
</a>
</g>
</g>
<!-- Node2 -->
<g id="node2" class="node">
<title>Node2</title>
<g id="a_node2"><a xlink:href="f4xx_2exti__handlers_8c.html" target="_top" xlink:title=" ">
<polygon fill="none" stroke="black" points="0,-67.5 0,-97.5 125,-97.5 125,-67.5 0,-67.5"/>
<text text-anchor="start" x="8" y="-85.5" font-family="Helvetica,sans-Serif" font-size="10.00">hal_platform/f4xx/exti</text>
<text text-anchor="middle" x="62.5" y="-74.5" font-family="Helvetica,sans-Serif" font-size="10.00">_handlers.c</text>
</a>
</g>
</g>
<!-- Node1&#45;&gt;Node2 -->
<g id="edge1" class="edge">
<title>Node1&#45;&gt;Node2</title>
<path fill="none" stroke="midnightblue" d="M111.35,-127.6C100.48,-117.78 87.8,-106.34 78.09,-97.58"/>
<polygon fill="midnightblue" stroke="midnightblue" points="109.11,-130.29 118.88,-134.4 113.8,-125.1 109.11,-130.29"/>
</g>
<!-- Node3 -->
<g id="node3" class="node">
<title>Node3</title>
<g id="a_node3"><a xlink:href="f4xx_2gpio__impl_8h.html" target="_top" xlink:title=" ">
<polygon fill="none" stroke="black" points="143.5,-67.5 143.5,-97.5 271.5,-97.5 271.5,-67.5 143.5,-67.5"/>
<text text-anchor="start" x="151.5" y="-85.5" font-family="Helvetica,sans-Serif" font-size="10.00">hal_platform/f4xx/gpio</text>
<text text-anchor="middle" x="207.5" y="-74.5" font-family="Helvetica,sans-Serif" font-size="10.00">_impl.h</text>
</a>
</g>
</g>
<!-- Node1&#45;&gt;Node3 -->
<g id="edge2" class="edge">
<title>Node1&#45;&gt;Node3</title>
<path fill="none" stroke="midnightblue" d="M157.97,-127.6C169,-117.78 181.84,-106.34 191.69,-97.58"/>
<polygon fill="midnightblue" stroke="midnightblue" points="155.48,-125.13 150.34,-134.4 160.14,-130.36 155.48,-125.13"/>
</g>
<!-- Node4 -->
<g id="node4" class="node">
<title>Node4</title>
<g id="a_node4"><a xlink:href="f4xx_2gpio__impl_8c.html" target="_top" xlink:title=" ">
<polygon fill="none" stroke="black" points="143.5,-0.5 143.5,-30.5 271.5,-30.5 271.5,-0.5 143.5,-0.5"/>
<text text-anchor="start" x="151.5" y="-18.5" font-family="Helvetica,sans-Serif" font-size="10.00">hal_platform/f4xx/gpio</text>
<text text-anchor="middle" x="207.5" y="-7.5" font-family="Helvetica,sans-Serif" font-size="10.00">_impl.c</text>
</a>
</g>
</g>
<!-- Node3&#45;&gt;Node4 -->
<g id="edge3" class="edge">
<title>Node3&#45;&gt;Node4</title>
<path fill="none" stroke="midnightblue" d="M207.5,-57.11C207.5,-48.15 207.5,-38.32 207.5,-30.58"/>
<polygon fill="midnightblue" stroke="midnightblue" points="204,-57.4 207.5,-67.4 211,-57.4 204,-57.4"/>
</g>
</g>
</svg>
