<?xml version="1.0" encoding="UTF-8" standalone="no"?>
<!DOCTYPE svg PUBLIC "-//W3C//DTD SVG 1.1//EN"
 "http://www.w3.org/Graphics/SVG/1.1/DTD/svg11.dtd">
<!-- Generated by graphviz version 2.43.0 (0)
 -->
<!-- Title: hal_platform/f4xx/entropy_handlers.h Pages: 1 -->
<svg width="198pt" height="95pt"
 viewBox="0.00 0.00 197.50 95.00" xmlns="http://www.w3.org/2000/svg" xmlns:xlink="http://www.w3.org/1999/xlink">
<g id="graph0" class="graph" transform="scale(1 1) rotate(0) translate(4 91)">
<title>hal_platform/f4xx/entropy_handlers.h</title>
<!-- Node1 -->
<g id="node1" class="node">
<title>Node1</title>
<g id="a_node1"><a xlink:title=" ">
<polygon fill="#bfbfbf" stroke="black" points="27,-56.5 27,-86.5 171,-86.5 171,-56.5 27,-56.5"/>
<text text-anchor="start" x="35" y="-74.5" font-family="Helvetica,sans-Serif" font-size="10.00">hal_platform/f4xx/entropy</text>
<text text-anchor="middle" x="99" y="-63.5" font-family="Helvetica,sans-Serif" font-size="10.00">_handlers.h</text>
</a>
</g>
</g>
<!-- Node2 -->
<g id="node2" class="node">
<title>Node2</title>
<g id="a_node2"><a xlink:title=" ">
<polygon fill="none" stroke="#bfbfbf" points="0,-0.5 0,-19.5 94,-19.5 94,-0.5 0,-0.5"/>
<text text-anchor="middle" x="47" y="-7.5" font-family="Helvetica,sans-Serif" font-size="10.00">hal/uc/entropy.h</text>
</a>
</g>
</g>
<!-- Node1&#45;&gt;Node2 -->
<g id="edge1" class="edge">
<title>Node1&#45;&gt;Node2</title>
<path fill="none" stroke="midnightblue" d="M86.68,-56.4C79.04,-47.66 69.21,-36.41 61.24,-27.3"/>
<polygon fill="midnightblue" stroke="midnightblue" points="63.78,-24.88 54.57,-19.66 58.51,-29.49 63.78,-24.88"/>
</g>
<!-- Node3 -->
<g id="node3" class="node">
<title>Node3</title>
<g id="a_node3"><a xlink:title=" ">
<polygon fill="none" stroke="#bfbfbf" points="112.5,-0.5 112.5,-19.5 189.5,-19.5 189.5,-0.5 112.5,-0.5"/>
<text text-anchor="middle" x="151" y="-7.5" font-family="Helvetica,sans-Serif" font-size="10.00">ds/bytebuf.h</text>
</a>
</g>
</g>
<!-- Node1&#45;&gt;Node3 -->
<g id="edge2" class="edge">
<title>Node1&#45;&gt;Node3</title>
<path fill="none" stroke="midnightblue" d="M111.32,-56.4C118.96,-47.66 128.79,-36.41 136.76,-27.3"/>
<polygon fill="midnightblue" stroke="midnightblue" points="139.49,-29.49 143.43,-19.66 134.22,-24.88 139.49,-29.49"/>
</g>
</g>
</svg>
