<?xml version="1.0" encoding="UTF-8" standalone="no"?>
<!DOCTYPE svg PUBLIC "-//W3C//DTD SVG 1.1//EN"
 "http://www.w3.org/Graphics/SVG/1.1/DTD/svg11.dtd">
<!-- Generated by graphviz version 2.43.0 (0)
 -->
<!-- Title: hal_platform/f4xx/exti_handlers.c Pages: 1 -->
<svg width="635pt" height="95pt"
 viewBox="0.00 0.00 635.00 95.00" xmlns="http://www.w3.org/2000/svg" xmlns:xlink="http://www.w3.org/1999/xlink">
<g id="graph0" class="graph" transform="scale(1 1) rotate(0) translate(4 91)">
<title>hal_platform/f4xx/exti_handlers.c</title>
<!-- Node1 -->
<g id="node1" class="node">
<title>Node1</title>
<g id="a_node1"><a xlink:title=" ">
<polygon fill="#bfbfbf" stroke="black" points="250.5,-56.5 250.5,-86.5 375.5,-86.5 375.5,-56.5 250.5,-56.5"/>
<text text-anchor="start" x="258.5" y="-74.5" font-family="Helvetica,sans-Serif" font-size="10.00">hal_platform/f4xx/exti</text>
<text text-anchor="middle" x="313" y="-63.5" font-family="Helvetica,sans-Serif" font-size="10.00">_handlers.c</text>
</a>
</g>
</g>
<!-- Node2 -->
<g id="node2" class="node">
<title>Node2</title>
<g id="a_node2"><a xlink:title=" ">
<polygon fill="none" stroke="#bfbfbf" points="0,-0.5 0,-19.5 98,-19.5 98,-0.5 0,-0.5"/>
<text text-anchor="middle" x="49" y="-7.5" font-family="Helvetica,sans-Serif" font-size="10.00">stm32f4xx_hal.h</text>
</a>
</g>
</g>
<!-- Node1&#45;&gt;Node2 -->
<g id="edge1" class="edge">
<title>Node1&#45;&gt;Node2</title>
<path fill="none" stroke="midnightblue" d="M250.77,-56.47C203.63,-45.85 139.84,-31.47 96.7,-21.75"/>
<polygon fill="midnightblue" stroke="midnightblue" points="97.27,-18.29 86.74,-19.51 95.73,-25.12 97.27,-18.29"/>
</g>
<!-- Node3 -->
<g id="node3" class="node">
<title>Node3</title>
<g id="a_node3"><a xlink:title=" ">
<polygon fill="none" stroke="#bfbfbf" points="116,-0.5 116,-19.5 196,-19.5 196,-0.5 116,-0.5"/>
<text text-anchor="middle" x="156" y="-7.5" font-family="Helvetica,sans-Serif" font-size="10.00">application.h</text>
</a>
</g>
</g>
<!-- Node1&#45;&gt;Node3 -->
<g id="edge2" class="edge">
<title>Node1&#45;&gt;Node3</title>
<path fill="none" stroke="midnightblue" d="M275.79,-56.4C249.22,-46.33 213.81,-32.91 188.39,-23.28"/>
<polygon fill="midnightblue" stroke="midnightblue" points="189.44,-19.93 178.84,-19.66 186.96,-26.47 189.44,-19.93"/>
</g>
<!-- Node4 -->
<g id="node4" class="node">
<title>Node4</title>
<g id="a_node4"><a xlink:title=" ">
<polygon fill="none" stroke="#bfbfbf" points="214,-0.5 214,-19.5 300,-19.5 300,-0.5 214,-0.5"/>
<text text-anchor="middle" x="257" y="-7.5" font-family="Helvetica,sans-Serif" font-size="10.00">irq_handlers.h</text>
</a>
</g>
</g>
<!-- Node1&#45;&gt;Node4 -->
<g id="edge3" class="edge">
<title>Node1&#45;&gt;Node4</title>
<path fill="none" stroke="midnightblue" d="M299.73,-56.4C291.42,-47.58 280.7,-36.18 272.08,-27.02"/>
<polygon fill="midnightblue" stroke="midnightblue" points="274.55,-24.54 265.15,-19.66 269.45,-29.34 274.55,-24.54"/>
</g>
<!-- Node5 -->
<g id="node5" class="node">
<title>Node5</title>
<g id="a_node5"><a xlink:title=" ">
<polygon fill="none" stroke="#bfbfbf" points="318.5,-0.5 318.5,-19.5 419.5,-19.5 419.5,-0.5 318.5,-0.5"/>
<text text-anchor="middle" x="369" y="-7.5" font-family="Helvetica,sans-Serif" font-size="10.00">platform/debug.h</text>
</a>
</g>
</g>
<!-- Node1&#45;&gt;Node5 -->
<g id="edge4" class="edge">
<title>Node1&#45;&gt;Node5</title>
<path fill="none" stroke="midnightblue" d="M326.27,-56.4C334.58,-47.58 345.3,-36.18 353.92,-27.02"/>
<polygon fill="midnightblue" stroke="midnightblue" points="356.55,-29.34 360.85,-19.66 351.45,-24.54 356.55,-29.34"/>
</g>
<!-- Node6 -->
<g id="node6" class="node">
<title>Node6</title>
<g id="a_node6"><a xlink:title=" ">
<polygon fill="none" stroke="#bfbfbf" points="437.5,-0.5 437.5,-19.5 516.5,-19.5 516.5,-0.5 437.5,-0.5"/>
<text text-anchor="middle" x="477" y="-7.5" font-family="Helvetica,sans-Serif" font-size="10.00">hal/uc/gpio.h</text>
</a>
</g>
</g>
<!-- Node1&#45;&gt;Node6 -->
<g id="edge5" class="edge">
<title>Node1&#45;&gt;Node6</title>
<path fill="none" stroke="midnightblue" d="M351.87,-56.4C379.75,-46.28 416.94,-32.79 443.51,-23.15"/>
<polygon fill="midnightblue" stroke="midnightblue" points="444.93,-26.36 453.14,-19.66 442.54,-19.78 444.93,-26.36"/>
</g>
<!-- Node7 -->
<g id="node7" class="node">
<title>Node7</title>
<g id="a_node7"><a xlink:href="f4xx_2exti__handlers_8h.html" target="_top" xlink:title=" ">
<polygon fill="none" stroke="black" points="535,-0.5 535,-19.5 627,-19.5 627,-0.5 535,-0.5"/>
<text text-anchor="middle" x="581" y="-7.5" font-family="Helvetica,sans-Serif" font-size="10.00">exti_handlers.h</text>
</a>
</g>
</g>
<!-- Node1&#45;&gt;Node7 -->
<g id="edge6" class="edge">
<title>Node1&#45;&gt;Node7</title>
<path fill="none" stroke="midnightblue" d="M375.83,-56.55C423.77,-45.91 488.83,-31.46 532.73,-21.72"/>
<polygon fill="midnightblue" stroke="midnightblue" points="533.58,-25.11 542.59,-19.53 532.07,-18.28 533.58,-25.11"/>
</g>
</g>
</svg>
