<?xml version="1.0" encoding="UTF-8" standalone="no"?>
<!DOCTYPE svg PUBLIC "-//W3C//DTD SVG 1.1//EN"
 "http://www.w3.org/Graphics/SVG/1.1/DTD/svg11.dtd">
<!-- Generated by graphviz version 2.43.0 (0)
 -->
<!-- Title: hal_platform/f4xx/usb_impl.h Pages: 1 -->
<svg width="416pt" height="170pt"
 viewBox="0.00 0.00 416.00 170.00" xmlns="http://www.w3.org/2000/svg" xmlns:xlink="http://www.w3.org/1999/xlink">
<g id="graph0" class="graph" transform="scale(1 1) rotate(0) translate(4 166)">
<title>hal_platform/f4xx/usb_impl.h</title>
<!-- Node1 -->
<g id="Node000001" class="node">
<title>Node1</title>
<g id="a_Node000001"><a xlink:title=" ">
<polygon fill="#999999" stroke="#666666" points="266,-162 142,-162 142,-132 266,-132 266,-162"/>
<text text-anchor="start" x="150" y="-150" font-family="Helvetica,sans-Serif" font-size="10.00">hal_platform/f4xx/usb</text>
<text text-anchor="middle" x="204" y="-139" font-family="Helvetica,sans-Serif" font-size="10.00">_impl.h</text>
</a>
</g>
</g>
<!-- Node2 -->
<g id="Node000002" class="node">
<title>Node2</title>
<g id="a_Node000002"><a xlink:href="f4xx_2usb__descriptors_8c.html" target="_top" xlink:title=" ">
<polygon fill="white" stroke="#666666" points="124,-96 0,-96 0,-66 124,-66 124,-96"/>
<text text-anchor="start" x="8" y="-84" font-family="Helvetica,sans-Serif" font-size="10.00">hal_platform/f4xx/usb</text>
<text text-anchor="middle" x="62" y="-73" font-family="Helvetica,sans-Serif" font-size="10.00">_descriptors.c</text>
</a>
</g>
</g>
<!-- Node1&#45;&gt;Node2 -->
<g id="edge1_Node000001_Node000002" class="edge">
<title>Node1&#45;&gt;Node2</title>
<g id="a_edge1_Node000001_Node000002"><a xlink:title=" ">
<path fill="none" stroke="#63b8ff" d="M163.58,-127.78C141.2,-117.69 113.79,-105.34 93.09,-96.01"/>
<polygon fill="#63b8ff" stroke="#63b8ff" points="162.28,-131.04 172.84,-131.95 165.16,-124.65 162.28,-131.04"/>
</a>
</g>
</g>
<!-- Node3 -->
<g id="Node000003" class="node">
<title>Node3</title>
<g id="a_Node000003"><a xlink:href="f4xx_2usb__handlers_8h.html" target="_top" xlink:title=" ">
<polygon fill="white" stroke="#666666" points="266,-96 142,-96 142,-66 266,-66 266,-96"/>
<text text-anchor="start" x="150" y="-84" font-family="Helvetica,sans-Serif" font-size="10.00">hal_platform/f4xx/usb</text>
<text text-anchor="middle" x="204" y="-73" font-family="Helvetica,sans-Serif" font-size="10.00">_handlers.h</text>
</a>
</g>
</g>
<!-- Node1&#45;&gt;Node3 -->
<g id="edge2_Node000001_Node000003" class="edge">
<title>Node1&#45;&gt;Node3</title>
<g id="a_edge2_Node000001_Node000003"><a xlink:title=" ">
<path fill="none" stroke="#63b8ff" d="M204,-121.54C204,-112.96 204,-103.61 204,-96.16"/>
<polygon fill="#63b8ff" stroke="#63b8ff" points="200.5,-121.8 204,-131.8 207.5,-121.8 200.5,-121.8"/>
</a>
</g>
</g>
<!-- Node5 -->
<g id="Node000005" class="node">
<title>Node5</title>
<g id="a_Node000005"><a xlink:href="f4xx_2usb__impl_8c.html" target="_top" xlink:title=" ">
<polygon fill="white" stroke="#666666" points="408,-96 284,-96 284,-66 408,-66 408,-96"/>
<text text-anchor="start" x="292" y="-84" font-family="Helvetica,sans-Serif" font-size="10.00">hal_platform/f4xx/usb</text>
<text text-anchor="middle" x="346" y="-73" font-family="Helvetica,sans-Serif" font-size="10.00">_impl.c</text>
</a>
</g>
</g>
<!-- Node1&#45;&gt;Node5 -->
<g id="edge4_Node000001_Node000005" class="edge">
<title>Node1&#45;&gt;Node5</title>
<g id="a_edge4_Node000001_Node000005"><a xlink:title=" ">
<path fill="none" stroke="#63b8ff" d="M244.42,-127.78C266.8,-117.69 294.21,-105.34 314.91,-96.01"/>
<polygon fill="#63b8ff" stroke="#63b8ff" points="242.84,-124.65 235.16,-131.95 245.72,-131.04 242.84,-124.65"/>
</a>
</g>
</g>
<!-- Node4 -->
<g id="Node000004" class="node">
<title>Node4</title>
<g id="a_Node000004"><a xlink:href="f4xx_2usb__handlers_8c.html" target="_top" xlink:title=" ">
<polygon fill="white" stroke="#666666" points="266,-30 142,-30 142,0 266,0 266,-30"/>
<text text-anchor="start" x="150" y="-18" font-family="Helvetica,sans-Serif" font-size="10.00">hal_platform/f4xx/usb</text>
<text text-anchor="middle" x="204" y="-7" font-family="Helvetica,sans-Serif" font-size="10.00">_handlers.c</text>
</a>
</g>
</g>
<!-- Node3&#45;&gt;Node4 -->
<g id="edge3_Node000003_Node000004" class="edge">
<title>Node3&#45;&gt;Node4</title>
<g id="a_edge3_Node000003_Node000004"><a xlink:title=" ">
<path fill="none" stroke="#63b8ff" d="M204,-55.54C204,-46.96 204,-37.61 204,-30.16"/>
<polygon fill="#63b8ff" stroke="#63b8ff" points="200.5,-55.8 204,-65.8 207.5,-55.8 200.5,-55.8"/>
</a>
</g>
</g>
</g>
</svg>
