<?xml version="1.0" encoding="UTF-8" standalone="no"?>
<!DOCTYPE svg PUBLIC "-//W3C//DTD SVG 1.1//EN"
 "http://www.w3.org/Graphics/SVG/1.1/DTD/svg11.dtd">
<!-- Generated by graphviz version 2.43.0 (0)
 -->
<!-- Title: exti_handler Pages: 1 -->
<!--zoomable 674 -->
<svg id="main" version="1.1" xmlns="http://www.w3.org/2000/svg" xmlns:xlink="http://www.w3.org/1999/xlink" xml:space="preserve" onload="init(evt)">
<style type="text/css"><![CDATA[
.edge:hover path { stroke: red; }
.edge:hover polygon { stroke: red; fill: red; }
]]></style>
<script type="text/javascript"><![CDATA[
var edges = document.getElementsByTagName('g');
if (edges && edges.length) {
  for (var i=0;i<edges.length;i++) {
    if (edges[i].id.substr(0,4)=='edge') {
      edges[i].setAttribute('class','edge');
    }
  }
}
]]></script>
        <defs>
                <circle id="rim" cx="0" cy="0" r="7"/>
                <circle id="rim2" cx="0" cy="0" r="3.5"/>
                <g id="zoomPlus">
                        <use xlink:href="#rim" fill="#404040">
                                <set attributeName="fill" to="#808080" begin="zoomplus.mouseover" end="zoomplus.mouseout"/>
                        </use>
                        <path d="M-4,0h8M0,-4v8" fill="none" stroke="white" stroke-width="1.5" pointer-events="none"/>
                </g>
                <g id="zoomMin">
                        <use xlink:href="#rim" fill="#404040">
                                <set attributeName="fill" to="#808080" begin="zoomminus.mouseover" end="zoomminus.mouseout"/>
                        </use>
                        <path d="M-4,0h8" fill="none" stroke="white" stroke-width="1.5" pointer-events="none"/>
                </g>
                <g id="dirArrow">
                        <path fill="none" stroke="white" stroke-width="1.5" d="M0,-3.0v7 M-2.5,-0.5L0,-3.0L2.5,-0.5"/>
                </g>
               <g id="resetDef">
                       <use xlink:href="#rim2" fill="#404040">
                               <set attributeName="fill" to="#808080" begin="reset.mouseover" end="reset.mouseout"/>
                       </use>
               </g>
        </defs>

<script type="text/javascript">
var viewWidth = 249;
var viewHeight = 674;
var sectionId = 'dynsection-8';
</script>
<script xlink:href="svgpan.js"/>
<svg id="graph" class="graph">
<g id="viewport">
<title>exti_handler</title>
<!-- Node1 -->
<g id="node1" class="node">
<title>Node1</title>
<g id="a_node1"><a xlink:title=" ">
<polygon fill="#bfbfbf" stroke="black" points="164,-323.5 164,-342.5 241,-342.5 241,-323.5 164,-323.5"/>
<text text-anchor="middle" x="202.5" y="-330.5" font-family="Helvetica,sans-Serif" font-size="10.00">exti_handler</text>
</a>
</g>
</g>
<!-- Node2 -->
<g id="node2" class="node">
<title>Node2</title>
<g id="a_node2"><a xlink:href="f4xx_2exti__handlers_8c.html#a17e9789a29a87d2df54f12b94dd1a0b6" target="_top" xlink:title="This function handles EXTI line0 interrupt.">
<polygon fill="none" stroke="black" points="11.5,-646.5 11.5,-665.5 116.5,-665.5 116.5,-646.5 11.5,-646.5"/>
<text text-anchor="middle" x="64" y="-653.5" font-family="Helvetica,sans-Serif" font-size="10.00">EXTI0_IRQHandler</text>
</a>
</g>
</g>
<!-- Node1&#45;&gt;Node2 -->
<g id="edge1" class="edge">
<title>Node1&#45;&gt;Node2</title>
<path fill="none" stroke="midnightblue" d="M199.27,-352.88C192.07,-413.6 167.61,-595.12 128,-637 124.31,-640.9 119.85,-644.01 115.03,-646.49"/>
<polygon fill="midnightblue" stroke="midnightblue" points="202.77,-353.05 200.45,-342.71 195.82,-352.24 202.77,-353.05"/>
</g>
<!-- Node3 -->
<g id="node3" class="node">
<title>Node3</title>
<g id="a_node3"><a xlink:href="h7rsxx_2exti__handlers_8c.html#a3908d636f462dd2161f827b2492d1529" target="_top" xlink:title=" ">
<polygon fill="none" stroke="black" points="8.5,-608.5 8.5,-627.5 119.5,-627.5 119.5,-608.5 8.5,-608.5"/>
<text text-anchor="middle" x="64" y="-615.5" font-family="Helvetica,sans-Serif" font-size="10.00">EXTI10_IRQHandler</text>
</a>
</g>
</g>
<!-- Node1&#45;&gt;Node3 -->
<g id="edge2" class="edge">
<title>Node1&#45;&gt;Node3</title>
<path fill="none" stroke="midnightblue" d="M202.09,-352.72C202.43,-401.52 196.35,-529.04 128,-599 124.25,-602.84 119.75,-605.91 114.91,-608.37"/>
<polygon fill="midnightblue" stroke="midnightblue" points="205.58,-352.5 201.91,-342.57 198.59,-352.63 205.58,-352.5"/>
</g>
<!-- Node4 -->
<g id="node4" class="node">
<title>Node4</title>
<g id="a_node4"><a xlink:href="h7rsxx_2exti__handlers_8c.html#a501e628a1389a069b4623e84054e6855" target="_top" xlink:title=" ">
<polygon fill="none" stroke="black" points="8.5,-570.5 8.5,-589.5 119.5,-589.5 119.5,-570.5 8.5,-570.5"/>
<text text-anchor="middle" x="64" y="-577.5" font-family="Helvetica,sans-Serif" font-size="10.00">EXTI11_IRQHandler</text>
</a>
</g>
</g>
<!-- Node1&#45;&gt;Node4 -->
<g id="edge3" class="edge">
<title>Node1&#45;&gt;Node4</title>
<path fill="none" stroke="midnightblue" d="M200.98,-353.12C198.74,-397.2 187.13,-502.98 128,-561 124.09,-564.84 119.42,-567.91 114.43,-570.36"/>
<polygon fill="midnightblue" stroke="midnightblue" points="204.49,-352.99 201.39,-342.86 197.5,-352.72 204.49,-352.99"/>
</g>
<!-- Node5 -->
<g id="node5" class="node">
<title>Node5</title>
<g id="a_node5"><a xlink:href="h7rsxx_2exti__handlers_8c.html#ae790c1a3e247c378b85979c09bf00864" target="_top" xlink:title=" ">
<polygon fill="none" stroke="black" points="8.5,-532.5 8.5,-551.5 119.5,-551.5 119.5,-532.5 8.5,-532.5"/>
<text text-anchor="middle" x="64" y="-539.5" font-family="Helvetica,sans-Serif" font-size="10.00">EXTI12_IRQHandler</text>
</a>
</g>
</g>
<!-- Node1&#45;&gt;Node5 -->
<g id="edge4" class="edge">
<title>Node1&#45;&gt;Node5</title>
<path fill="none" stroke="midnightblue" d="M199.51,-352.87C194.58,-391.35 178.31,-476.38 128,-523 123.81,-526.88 118.85,-529.97 113.59,-532.43"/>
<polygon fill="midnightblue" stroke="midnightblue" points="203.03,-352.84 200.7,-342.51 196.08,-352.05 203.03,-352.84"/>
</g>
<!-- Node6 -->
<g id="node6" class="node">
<title>Node6</title>
<g id="a_node6"><a xlink:href="h7rsxx_2exti__handlers_8c.html#a72722eb2754d8a9b2766b3f6c18c138d" target="_top" xlink:title=" ">
<polygon fill="none" stroke="black" points="8.5,-494.5 8.5,-513.5 119.5,-513.5 119.5,-494.5 8.5,-494.5"/>
<text text-anchor="middle" x="64" y="-501.5" font-family="Helvetica,sans-Serif" font-size="10.00">EXTI13_IRQHandler</text>
</a>
</g>
</g>
<!-- Node1&#45;&gt;Node6 -->
<g id="edge5" class="edge">
<title>Node1&#45;&gt;Node6</title>
<path fill="none" stroke="midnightblue" d="M197.33,-352.91C189.49,-385.36 169.48,-449.59 128,-485 123.48,-488.86 118.2,-491.93 112.65,-494.38"/>
<polygon fill="midnightblue" stroke="midnightblue" points="200.81,-353.38 199.61,-342.85 193.98,-351.83 200.81,-353.38"/>
</g>
<!-- Node7 -->
<g id="node7" class="node">
<title>Node7</title>
<g id="a_node7"><a xlink:href="h7rsxx_2exti__handlers_8c.html#a3dc9fc7b634cba61248c09cfaa3884b4" target="_top" xlink:title=" ">
<polygon fill="none" stroke="black" points="8.5,-456.5 8.5,-475.5 119.5,-475.5 119.5,-456.5 8.5,-456.5"/>
<text text-anchor="middle" x="64" y="-463.5" font-family="Helvetica,sans-Serif" font-size="10.00">EXTI14_IRQHandler</text>
</a>
</g>
</g>
<!-- Node1&#45;&gt;Node7 -->
<g id="edge6" class="edge">
<title>Node1&#45;&gt;Node7</title>
<path fill="none" stroke="midnightblue" d="M194.13,-352.19C183.4,-377.6 161.08,-422.08 128,-447 122.89,-450.85 117,-453.92 110.92,-456.38"/>
<polygon fill="midnightblue" stroke="midnightblue" points="197.51,-353.16 198.02,-342.58 191.02,-350.54 197.51,-353.16"/>
</g>
<!-- Node8 -->
<g id="node8" class="node">
<title>Node8</title>
<g id="a_node8"><a xlink:href="f4xx_2exti__handlers_8c.html#a738473a5b43f6c92b80ce1d3d6f77ed9" target="_top" xlink:title="This function handles EXTI line 10&#45;15 interrupts.">
<polygon fill="none" stroke="black" points="0,-418.5 0,-437.5 128,-437.5 128,-418.5 0,-418.5"/>
<text text-anchor="middle" x="64" y="-425.5" font-family="Helvetica,sans-Serif" font-size="10.00">EXTI15_10_IRQHandler</text>
</a>
</g>
</g>
<!-- Node1&#45;&gt;Node8 -->
<g id="edge7" class="edge">
<title>Node1&#45;&gt;Node8</title>
<path fill="none" stroke="midnightblue" d="M188.63,-350.84C175.3,-368.09 152.96,-393.78 128,-409 121.76,-412.81 114.7,-415.9 107.62,-418.39"/>
<polygon fill="midnightblue" stroke="midnightblue" points="191.55,-352.79 194.75,-342.69 185.95,-348.59 191.55,-352.79"/>
</g>
<!-- Node9 -->
<g id="node9" class="node">
<title>Node9</title>
<g id="a_node9"><a xlink:href="h7rsxx_2exti__handlers_8c.html#a51e974a4f4d3974c7f57c55dc8eabe8c" target="_top" xlink:title=" ">
<polygon fill="none" stroke="black" points="8.5,-380.5 8.5,-399.5 119.5,-399.5 119.5,-380.5 8.5,-380.5"/>
<text text-anchor="middle" x="64" y="-387.5" font-family="Helvetica,sans-Serif" font-size="10.00">EXTI15_IRQHandler</text>
</a>
</g>
</g>
<!-- Node1&#45;&gt;Node9 -->
<g id="edge8" class="edge">
<title>Node1&#45;&gt;Node9</title>
<path fill="none" stroke="midnightblue" d="M176.03,-347.65C162.13,-355.26 144.44,-364.34 128,-371 119.32,-374.52 109.73,-377.73 100.72,-380.48"/>
<polygon fill="midnightblue" stroke="midnightblue" points="177.95,-350.58 184.98,-342.66 174.54,-344.47 177.95,-350.58"/>
</g>
<!-- Node10 -->
<g id="node10" class="node">
<title>Node10</title>
<g id="a_node10"><a xlink:href="f4xx_2exti__handlers_8c.html#a49cfdd46eb8d0ef3e1987514aa9343dc" target="_top" xlink:title="This function handles EXTI line1 interrupt.">
<polygon fill="none" stroke="black" points="11.5,-342.5 11.5,-361.5 116.5,-361.5 116.5,-342.5 11.5,-342.5"/>
<text text-anchor="middle" x="64" y="-349.5" font-family="Helvetica,sans-Serif" font-size="10.00">EXTI1_IRQHandler</text>
</a>
</g>
</g>
<!-- Node1&#45;&gt;Node10 -->
<g id="edge9" class="edge">
<title>Node1&#45;&gt;Node10</title>
<path fill="none" stroke="midnightblue" d="M153.6,-339.67C141.62,-341.33 128.73,-343.13 116.59,-344.82"/>
<polygon fill="midnightblue" stroke="midnightblue" points="154.42,-343.09 163.84,-338.24 153.45,-336.15 154.42,-343.09"/>
</g>
<!-- Node11 -->
<g id="node11" class="node">
<title>Node11</title>
<g id="a_node11"><a xlink:href="f4xx_2exti__handlers_8c.html#ab5a1d9e9c8ef50e0cb9ddb5745a20a14" target="_top" xlink:title="This function handles EXTI line2 interrupt.">
<polygon fill="none" stroke="black" points="11.5,-304.5 11.5,-323.5 116.5,-323.5 116.5,-304.5 11.5,-304.5"/>
<text text-anchor="middle" x="64" y="-311.5" font-family="Helvetica,sans-Serif" font-size="10.00">EXTI2_IRQHandler</text>
</a>
</g>
</g>
<!-- Node1&#45;&gt;Node11 -->
<g id="edge10" class="edge">
<title>Node1&#45;&gt;Node11</title>
<path fill="none" stroke="midnightblue" d="M153.6,-326.33C141.62,-324.67 128.73,-322.87 116.59,-321.18"/>
<polygon fill="midnightblue" stroke="midnightblue" points="153.45,-329.85 163.84,-327.76 154.42,-322.91 153.45,-329.85"/>
</g>
<!-- Node12 -->
<g id="node12" class="node">
<title>Node12</title>
<g id="a_node12"><a xlink:href="f4xx_2exti__handlers_8c.html#a30c045de96d18ec9c67a7b9e4350920f" target="_top" xlink:title="This function handles EXTI line3 interrupt.">
<polygon fill="none" stroke="black" points="11.5,-266.5 11.5,-285.5 116.5,-285.5 116.5,-266.5 11.5,-266.5"/>
<text text-anchor="middle" x="64" y="-273.5" font-family="Helvetica,sans-Serif" font-size="10.00">EXTI3_IRQHandler</text>
</a>
</g>
</g>
<!-- Node1&#45;&gt;Node12 -->
<g id="edge11" class="edge">
<title>Node1&#45;&gt;Node12</title>
<path fill="none" stroke="midnightblue" d="M176.03,-318.35C162.13,-310.74 144.44,-301.66 128,-295 119.32,-291.48 109.73,-288.27 100.72,-285.52"/>
<polygon fill="midnightblue" stroke="midnightblue" points="174.54,-321.53 184.98,-323.34 177.95,-315.42 174.54,-321.53"/>
</g>
<!-- Node13 -->
<g id="node13" class="node">
<title>Node13</title>
<g id="a_node13"><a xlink:href="f4xx_2exti__handlers_8c.html#a290cb997018c8d85d4b965b4a242842f" target="_top" xlink:title="This function handles EXTI line4 interrupts.">
<polygon fill="none" stroke="black" points="11.5,-228.5 11.5,-247.5 116.5,-247.5 116.5,-228.5 11.5,-228.5"/>
<text text-anchor="middle" x="64" y="-235.5" font-family="Helvetica,sans-Serif" font-size="10.00">EXTI4_IRQHandler</text>
</a>
</g>
</g>
<!-- Node1&#45;&gt;Node13 -->
<g id="edge12" class="edge">
<title>Node1&#45;&gt;Node13</title>
<path fill="none" stroke="midnightblue" d="M188.63,-315.16C175.3,-297.91 152.96,-272.22 128,-257 121.76,-253.19 114.7,-250.1 107.62,-247.61"/>
<polygon fill="midnightblue" stroke="midnightblue" points="185.95,-317.41 194.75,-323.31 191.55,-313.21 185.95,-317.41"/>
</g>
<!-- Node14 -->
<g id="node14" class="node">
<title>Node14</title>
<g id="a_node14"><a xlink:href="h7rsxx_2exti__handlers_8c.html#ad6633b99684a2bbb518aae77c97c09c1" target="_top" xlink:title=" ">
<polygon fill="none" stroke="black" points="11.5,-190.5 11.5,-209.5 116.5,-209.5 116.5,-190.5 11.5,-190.5"/>
<text text-anchor="middle" x="64" y="-197.5" font-family="Helvetica,sans-Serif" font-size="10.00">EXTI5_IRQHandler</text>
</a>
</g>
</g>
<!-- Node1&#45;&gt;Node14 -->
<g id="edge13" class="edge">
<title>Node1&#45;&gt;Node14</title>
<path fill="none" stroke="midnightblue" d="M194.13,-313.81C183.4,-288.4 161.08,-243.92 128,-219 122.89,-215.15 117,-212.08 110.92,-209.62"/>
<polygon fill="midnightblue" stroke="midnightblue" points="191.02,-315.46 198.02,-323.42 197.51,-312.84 191.02,-315.46"/>
</g>
<!-- Node15 -->
<g id="node15" class="node">
<title>Node15</title>
<g id="a_node15"><a xlink:href="h7rsxx_2exti__handlers_8c.html#abde3981aa9e60780c3955c7b6f055e03" target="_top" xlink:title=" ">
<polygon fill="none" stroke="black" points="11.5,-152.5 11.5,-171.5 116.5,-171.5 116.5,-152.5 11.5,-152.5"/>
<text text-anchor="middle" x="64" y="-159.5" font-family="Helvetica,sans-Serif" font-size="10.00">EXTI6_IRQHandler</text>
</a>
</g>
</g>
<!-- Node1&#45;&gt;Node15 -->
<g id="edge14" class="edge">
<title>Node1&#45;&gt;Node15</title>
<path fill="none" stroke="midnightblue" d="M197.33,-313.09C189.49,-280.64 169.48,-216.41 128,-181 123.48,-177.14 118.2,-174.07 112.65,-171.62"/>
<polygon fill="midnightblue" stroke="midnightblue" points="193.98,-314.17 199.61,-323.15 200.81,-312.62 193.98,-314.17"/>
</g>
<!-- Node16 -->
<g id="node16" class="node">
<title>Node16</title>
<g id="a_node16"><a xlink:href="h7rsxx_2exti__handlers_8c.html#a344f002e20ead7d83a064a552744f6f2" target="_top" xlink:title=" ">
<polygon fill="none" stroke="black" points="11.5,-114.5 11.5,-133.5 116.5,-133.5 116.5,-114.5 11.5,-114.5"/>
<text text-anchor="middle" x="64" y="-121.5" font-family="Helvetica,sans-Serif" font-size="10.00">EXTI7_IRQHandler</text>
</a>
</g>
</g>
<!-- Node1&#45;&gt;Node16 -->
<g id="edge15" class="edge">
<title>Node1&#45;&gt;Node16</title>
<path fill="none" stroke="midnightblue" d="M199.51,-313.13C194.58,-274.65 178.31,-189.62 128,-143 123.81,-139.12 118.85,-136.03 113.59,-133.57"/>
<polygon fill="midnightblue" stroke="midnightblue" points="196.08,-313.95 200.7,-323.49 203.03,-313.16 196.08,-313.95"/>
</g>
<!-- Node17 -->
<g id="node17" class="node">
<title>Node17</title>
<g id="a_node17"><a xlink:href="h7rsxx_2exti__handlers_8c.html#ac3afb2a7be61f0fb40b615b440fd1ba1" target="_top" xlink:title=" ">
<polygon fill="none" stroke="black" points="11.5,-76.5 11.5,-95.5 116.5,-95.5 116.5,-76.5 11.5,-76.5"/>
<text text-anchor="middle" x="64" y="-83.5" font-family="Helvetica,sans-Serif" font-size="10.00">EXTI8_IRQHandler</text>
</a>
</g>
</g>
<!-- Node1&#45;&gt;Node17 -->
<g id="edge16" class="edge">
<title>Node1&#45;&gt;Node17</title>
<path fill="none" stroke="midnightblue" d="M200.98,-312.88C198.74,-268.8 187.13,-163.02 128,-105 124.09,-101.16 119.42,-98.09 114.43,-95.64"/>
<polygon fill="midnightblue" stroke="midnightblue" points="197.5,-313.28 201.39,-323.14 204.49,-313.01 197.5,-313.28"/>
</g>
<!-- Node18 -->
<g id="node18" class="node">
<title>Node18</title>
<g id="a_node18"><a xlink:href="f4xx_2exti__handlers_8c.html#a7b2096b8b2643286dc3a7e5110e5ae85" target="_top" xlink:title="This function handles EXTI line 5&#45;9 interrupts.">
<polygon fill="none" stroke="black" points="6,-38.5 6,-57.5 122,-57.5 122,-38.5 6,-38.5"/>
<text text-anchor="middle" x="64" y="-45.5" font-family="Helvetica,sans-Serif" font-size="10.00">EXTI9_5_IRQHandler</text>
</a>
</g>
</g>
<!-- Node1&#45;&gt;Node18 -->
<g id="edge17" class="edge">
<title>Node1&#45;&gt;Node18</title>
<path fill="none" stroke="midnightblue" d="M202.09,-313.28C202.43,-264.48 196.35,-136.96 128,-67 124.25,-63.16 119.75,-60.09 114.91,-57.63"/>
<polygon fill="midnightblue" stroke="midnightblue" points="198.59,-313.37 201.91,-323.43 205.58,-313.5 198.59,-313.37"/>
</g>
<!-- Node19 -->
<g id="node19" class="node">
<title>Node19</title>
<g id="a_node19"><a xlink:href="h7rsxx_2exti__handlers_8c.html#a60a312fc3bed216a7a53d9a737df23b6" target="_top" xlink:title=" ">
<polygon fill="none" stroke="black" points="11.5,-0.5 11.5,-19.5 116.5,-19.5 116.5,-0.5 11.5,-0.5"/>
<text text-anchor="middle" x="64" y="-7.5" font-family="Helvetica,sans-Serif" font-size="10.00">EXTI9_IRQHandler</text>
</a>
</g>
</g>
<!-- Node1&#45;&gt;Node19 -->
<g id="edge18" class="edge">
<title>Node1&#45;&gt;Node19</title>
<path fill="none" stroke="midnightblue" d="M199.27,-313.12C192.07,-252.4 167.61,-70.88 128,-29 124.31,-25.1 119.85,-21.99 115.03,-19.51"/>
<polygon fill="midnightblue" stroke="midnightblue" points="195.82,-313.76 200.45,-323.29 202.77,-312.95 195.82,-313.76"/>
</g>
</g>
</svg>
        <g id="navigator" transform="translate(0 0)" fill="#404254">
                <rect fill="#f2f5e9" fill-opacity="0.5" stroke="#606060" stroke-width=".5" x="0" y="0" width="60" height="60"/>
                <use id="zoomplus" xlink:href="#zoomPlus" x="17" y="9" onmousedown="handleZoom(evt,'in')"/>
                <use id="zoomminus" xlink:href="#zoomMin" x="42" y="9" onmousedown="handleZoom(evt,'out')"/>
                <use id="reset" xlink:href="#resetDef" x="30" y="36" onmousedown="handleReset()"/>
                <g id="arrowUp" xlink:href="#dirArrow" transform="translate(30 24)" onmousedown="handlePan(0,-1)">
                  <use xlink:href="#rim" fill="#404040">
                        <set attributeName="fill" to="#808080" begin="arrowUp.mouseover" end="arrowUp.mouseout"/>
                  </use>
                  <path fill="none" stroke="white" stroke-width="1.5" d="M0,-3.0v7 M-2.5,-0.5L0,-3.0L2.5,-0.5"/>
                </g>
                <g id="arrowRight" xlink:href="#dirArrow" transform="rotate(90) translate(36 -43)" onmousedown="handlePan(1,0)">
                  <use xlink:href="#rim" fill="#404040">
                        <set attributeName="fill" to="#808080" begin="arrowRight.mouseover" end="arrowRight.mouseout"/>
                  </use>
                  <path fill="none" stroke="white" stroke-width="1.5" d="M0,-3.0v7 M-2.5,-0.5L0,-3.0L2.5,-0.5"/>
                </g>
                <g id="arrowDown" xlink:href="#dirArrow" transform="rotate(180) translate(-30 -48)" onmousedown="handlePan(0,1)">
                  <use xlink:href="#rim" fill="#404040">
                        <set attributeName="fill" to="#808080" begin="arrowDown.mouseover" end="arrowDown.mouseout"/>
                  </use>
                  <path fill="none" stroke="white" stroke-width="1.5" d="M0,-3.0v7 M-2.5,-0.5L0,-3.0L2.5,-0.5"/>
                </g>
                <g id="arrowLeft" xlink:href="#dirArrow" transform="rotate(270) translate(-36 17)" onmousedown="handlePan(-1,0)">
                  <use xlink:href="#rim" fill="#404040">
                        <set attributeName="fill" to="#808080" begin="arrowLeft.mouseover" end="arrowLeft.mouseout"/>
                  </use>
                  <path fill="none" stroke="white" stroke-width="1.5" d="M0,-3.0v7 M-2.5,-0.5L0,-3.0L2.5,-0.5"/>
                </g>
        </g>
        <svg viewBox="0 0 15 15" width="100%" height="30px" preserveAspectRatio="xMaxYMin meet">
         <g id="arrow_out" transform="scale(0.3 0.3)">
          <a xlink:href="f4xx_2exti__handlers_8c_ace4802f0dcdcb019f1528b7e018fb5dd_icgraph_org.svg" target="_base">
           <rect id="button" ry="5" rx="5" y="6" x="6" height="38" width="38"
                fill="#f2f5e9" fill-opacity="0.5" stroke="#606060" stroke-width="1.0"/>
           <path id="arrow"
             d="M 11.500037,31.436501 C 11.940474,20.09759 22.043105,11.32322 32.158766,21.979434 L 37.068811,17.246167 C 37.068811,17.246167 37.088388,32 37.088388,32 L 22.160133,31.978069 C 22.160133,31.978069 26.997745,27.140456 26.997745,27.140456 C 18.528582,18.264221 13.291696,25.230495 11.500037,31.436501 z"
             style="fill:#404040;"/>
          </a>
         </g>
        </svg>
</svg>
