<?xml version="1.0" encoding="UTF-8" standalone="no"?>
<!DOCTYPE svg PUBLIC "-//W3C//DTD SVG 1.1//EN"
 "http://www.w3.org/Graphics/SVG/1.1/DTD/svg11.dtd">
<!-- Generated by graphviz version 2.43.0 (0)
 -->
<!-- Title: hal_platform/families.h Pages: 1 -->
<!--zoomable 95 -->
<svg id="main" version="1.1" xmlns="http://www.w3.org/2000/svg" xmlns:xlink="http://www.w3.org/1999/xlink" xml:space="preserve" onload="init(evt)">
<style type="text/css"><![CDATA[
.edge:hover path { stroke: red; }
.edge:hover polygon { stroke: red; fill: red; }
]]></style>
<script type="text/javascript"><![CDATA[
var edges = document.getElementsByTagName('g');
if (edges && edges.length) {
  for (var i=0;i<edges.length;i++) {
    if (edges[i].id.substr(0,4)=='edge') {
      edges[i].setAttribute('class','edge');
    }
  }
}
]]></script>
        <defs>
                <circle id="rim" cx="0" cy="0" r="7"/>
                <circle id="rim2" cx="0" cy="0" r="3.5"/>
                <g id="zoomPlus">
                        <use xlink:href="#rim" fill="#404040">
                                <set attributeName="fill" to="#808080" begin="zoomplus.mouseover" end="zoomplus.mouseout"/>
                        </use>
                        <path d="M-4,0h8M0,-4v8" fill="none" stroke="white" stroke-width="1.5" pointer-events="none"/>
                </g>
                <g id="zoomMin">
                        <use xlink:href="#rim" fill="#404040">
                                <set attributeName="fill" to="#808080" begin="zoomminus.mouseover" end="zoomminus.mouseout"/>
                        </use>
                        <path d="M-4,0h8" fill="none" stroke="white" stroke-width="1.5" pointer-events="none"/>
                </g>
                <g id="dirArrow">
                        <path fill="none" stroke="white" stroke-width="1.5" d="M0,-3.0v7 M-2.5,-0.5L0,-3.0L2.5,-0.5"/>
                </g>
               <g id="resetDef">
                       <use xlink:href="#rim2" fill="#404040">
                               <set attributeName="fill" to="#808080" begin="reset.mouseover" end="reset.mouseout"/>
                       </use>
               </g>
        </defs>

<script type="text/javascript">
var viewWidth = 3901;
var viewHeight = 95;
var sectionId = 'dynsection-0';
</script>
<script xlink:href="svgpan.js"/>
<svg id="graph" class="graph">
<g id="viewport">
<title>hal_platform/families.h</title>
<!-- Node1 -->
<g id="node1" class="node">
<title>Node1</title>
<g id="a_node1"><a xlink:title=" ">
<polygon fill="#bfbfbf" stroke="black" points="1895,-67.5 1895,-86.5 2026,-86.5 2026,-67.5 1895,-67.5"/>
<text text-anchor="middle" x="1960.5" y="-74.5" font-family="Helvetica,sans-Serif" font-size="10.00">hal_platform/families.h</text>
</a>
</g>
</g>
<!-- Node2 -->
<g id="node2" class="node">
<title>Node2</title>
<g id="a_node2"><a xlink:href="adc__handlers_8h.html" target="_top" xlink:title=" ">
<polygon fill="none" stroke="black" points="0,-6 0,-25 155,-25 155,-6 0,-6"/>
<text text-anchor="middle" x="77.5" y="-13" font-family="Helvetica,sans-Serif" font-size="10.00">hal_platform/adc_handlers.h</text>
</a>
</g>
</g>
<!-- Node1&#45;&gt;Node2 -->
<g id="edge1" class="edge">
<title>Node1&#45;&gt;Node2</title>
<path fill="none" stroke="midnightblue" d="M1884.72,-75.54C1588.11,-73.5 505.42,-63.94 163.5,-31 149.48,-29.65 134.3,-27.37 120.65,-25.01"/>
<polygon fill="midnightblue" stroke="midnightblue" points="1884.92,-79.04 1894.94,-75.61 1884.96,-72.04 1884.92,-79.04"/>
</g>
<!-- Node3 -->
<g id="node3" class="node">
<title>Node3</title>
<g id="a_node3"><a xlink:href="adc__impl_8h.html" target="_top" xlink:title=" ">
<polygon fill="none" stroke="black" points="173,-6 173,-25 308,-25 308,-6 173,-6"/>
<text text-anchor="middle" x="240.5" y="-13" font-family="Helvetica,sans-Serif" font-size="10.00">hal_platform/adc_impl.h</text>
</a>
</g>
</g>
<!-- Node1&#45;&gt;Node3 -->
<g id="edge2" class="edge">
<title>Node1&#45;&gt;Node3</title>
<path fill="none" stroke="midnightblue" d="M1884.68,-75.55C1604.33,-73.62 626.51,-64.59 316.5,-31 304.08,-29.65 290.65,-27.37 278.59,-25.01"/>
<polygon fill="midnightblue" stroke="midnightblue" points="1884.73,-79.05 1894.75,-75.62 1884.78,-72.05 1884.73,-79.05"/>
</g>
<!-- Node4 -->
<g id="node4" class="node">
<title>Node4</title>
<g id="a_node4"><a xlink:href="core__handlers_8h.html" target="_top" xlink:title=" ">
<polygon fill="none" stroke="black" points="326,-6 326,-25 485,-25 485,-6 326,-6"/>
<text text-anchor="middle" x="405.5" y="-13" font-family="Helvetica,sans-Serif" font-size="10.00">hal_platform/core_handlers.h</text>
</a>
</g>
</g>
<!-- Node1&#45;&gt;Node4 -->
<g id="edge3" class="edge">
<title>Node1&#45;&gt;Node4</title>
<path fill="none" stroke="midnightblue" d="M1884.72,-75C1624.37,-71.38 767.54,-57.66 493.5,-31 479.32,-29.62 463.97,-27.36 450.12,-25.03"/>
<polygon fill="midnightblue" stroke="midnightblue" points="1884.78,-78.51 1894.83,-75.14 1884.88,-71.51 1884.78,-78.51"/>
</g>
<!-- Node5 -->
<g id="node5" class="node">
<title>Node5</title>
<g id="a_node5"><a xlink:href="core__impl_8h.html" target="_top" xlink:title=" ">
<polygon fill="none" stroke="black" points="503,-6 503,-25 642,-25 642,-6 503,-6"/>
<text text-anchor="middle" x="572.5" y="-13" font-family="Helvetica,sans-Serif" font-size="10.00">hal_platform/core_impl.h</text>
</a>
</g>
</g>
<!-- Node1&#45;&gt;Node5 -->
<g id="edge4" class="edge">
<title>Node1&#45;&gt;Node5</title>
<path fill="none" stroke="midnightblue" d="M1884.75,-74.89C1643.09,-71.1 892.19,-57.47 650.5,-31 637.9,-29.62 624.29,-27.36 612.01,-25.03"/>
<polygon fill="midnightblue" stroke="midnightblue" points="1884.8,-78.39 1894.85,-75.04 1884.9,-71.39 1884.8,-78.39"/>
</g>
<!-- Node6 -->
<g id="node6" class="node">
<title>Node6</title>
<g id="a_node6"><a xlink:href="crypto__handlers_8h.html" target="_top" xlink:title=" ">
<polygon fill="none" stroke="black" points="660,-0.5 660,-30.5 773,-30.5 773,-0.5 660,-0.5"/>
<text text-anchor="start" x="668" y="-18.5" font-family="Helvetica,sans-Serif" font-size="10.00">hal_platform/crypto</text>
<text text-anchor="middle" x="716.5" y="-7.5" font-family="Helvetica,sans-Serif" font-size="10.00">_handlers.h</text>
</a>
</g>
</g>
<!-- Node1&#45;&gt;Node6 -->
<g id="edge5" class="edge">
<title>Node1&#45;&gt;Node6</title>
<path fill="none" stroke="midnightblue" d="M1884.7,-74.9C1659.37,-71.36 996.07,-58.79 781.5,-31 778.75,-30.64 775.94,-30.23 773.11,-29.76"/>
<polygon fill="midnightblue" stroke="midnightblue" points="1884.72,-78.4 1894.77,-75.06 1884.83,-71.41 1884.72,-78.4"/>
</g>
<!-- Node7 -->
<g id="node7" class="node">
<title>Node7</title>
<g id="a_node7"><a xlink:href="crypto__impl_8h.html" target="_top" xlink:title=" ">
<polygon fill="none" stroke="black" points="791,-0.5 791,-30.5 904,-30.5 904,-0.5 791,-0.5"/>
<text text-anchor="start" x="799" y="-18.5" font-family="Helvetica,sans-Serif" font-size="10.00">hal_platform/crypto</text>
<text text-anchor="middle" x="847.5" y="-7.5" font-family="Helvetica,sans-Serif" font-size="10.00">_impl.h</text>
</a>
</g>
</g>
<!-- Node1&#45;&gt;Node7 -->
<g id="edge6" class="edge">
<title>Node1&#45;&gt;Node7</title>
<path fill="none" stroke="midnightblue" d="M1884.74,-74.45C1677.02,-69.93 1101.45,-55.5 913.5,-31 910.48,-30.61 907.38,-30.14 904.27,-29.63"/>
<polygon fill="midnightblue" stroke="midnightblue" points="1884.87,-77.95 1894.94,-74.67 1885.02,-70.95 1884.87,-77.95"/>
</g>
<!-- Node8 -->
<g id="node8" class="node">
<title>Node8</title>
<g id="a_node8"><a xlink:href="dma__handlers_8h.html" target="_top" xlink:title=" ">
<polygon fill="none" stroke="black" points="922.5,-6 922.5,-25 1082.5,-25 1082.5,-6 922.5,-6"/>
<text text-anchor="middle" x="1002.5" y="-13" font-family="Helvetica,sans-Serif" font-size="10.00">hal_platform/dma_handlers.h</text>
</a>
</g>
</g>
<!-- Node1&#45;&gt;Node8 -->
<g id="edge7" class="edge">
<title>Node1&#45;&gt;Node8</title>
<path fill="none" stroke="midnightblue" d="M1884.79,-74.87C1733.61,-72 1383.71,-62.27 1091.5,-31 1077.65,-29.52 1062.67,-27.31 1049.02,-25.07"/>
<polygon fill="midnightblue" stroke="midnightblue" points="1884.84,-78.37 1894.9,-75.06 1884.97,-71.37 1884.84,-78.37"/>
</g>
<!-- Node9 -->
<g id="node9" class="node">
<title>Node9</title>
<g id="a_node9"><a xlink:href="dma__impl_8h.html" target="_top" xlink:title=" ">
<polygon fill="none" stroke="black" points="1100.5,-6 1100.5,-25 1240.5,-25 1240.5,-6 1100.5,-6"/>
<text text-anchor="middle" x="1170.5" y="-13" font-family="Helvetica,sans-Serif" font-size="10.00">hal_platform/dma_impl.h</text>
</a>
</g>
</g>
<!-- Node1&#45;&gt;Node9 -->
<g id="edge8" class="edge">
<title>Node1&#45;&gt;Node9</title>
<path fill="none" stroke="midnightblue" d="M1884.31,-74.13C1753.87,-70.28 1479.58,-59.3 1249.5,-31 1237.18,-29.49 1223.88,-27.27 1211.77,-25.03"/>
<polygon fill="midnightblue" stroke="midnightblue" points="1884.49,-77.64 1894.58,-74.43 1884.69,-70.64 1884.49,-77.64"/>
</g>
<!-- Node10 -->
<g id="node10" class="node">
<title>Node10</title>
<g id="a_node10"><a xlink:href="eeprom__impl_8h.html" target="_top" xlink:title=" ">
<polygon fill="none" stroke="black" points="1259,-0.5 1259,-30.5 1378,-30.5 1378,-0.5 1259,-0.5"/>
<text text-anchor="start" x="1267" y="-18.5" font-family="Helvetica,sans-Serif" font-size="10.00">hal_platform/eeprom</text>
<text text-anchor="middle" x="1318.5" y="-7.5" font-family="Helvetica,sans-Serif" font-size="10.00">_impl.h</text>
</a>
</g>
</g>
<!-- Node1&#45;&gt;Node10 -->
<g id="edge9" class="edge">
<title>Node1&#45;&gt;Node10</title>
<path fill="none" stroke="midnightblue" d="M1884.75,-73.24C1774.59,-68.52 1563.96,-56.76 1386.5,-31 1383.75,-30.6 1380.95,-30.16 1378.12,-29.68"/>
<polygon fill="midnightblue" stroke="midnightblue" points="1884.63,-76.74 1894.76,-73.67 1884.92,-69.75 1884.63,-76.74"/>
</g>
<!-- Node11 -->
<g id="node11" class="node">
<title>Node11</title>
<g id="a_node11"><a xlink:href="entropy__handlers_8h.html" target="_top" xlink:title=" ">
<polygon fill="none" stroke="black" points="1396,-0.5 1396,-30.5 1515,-30.5 1515,-0.5 1396,-0.5"/>
<text text-anchor="start" x="1404" y="-18.5" font-family="Helvetica,sans-Serif" font-size="10.00">hal_platform/entropy</text>
<text text-anchor="middle" x="1455.5" y="-7.5" font-family="Helvetica,sans-Serif" font-size="10.00">_handlers.h</text>
</a>
</g>
</g>
<!-- Node1&#45;&gt;Node11 -->
<g id="edge10" class="edge">
<title>Node1&#45;&gt;Node11</title>
<path fill="none" stroke="midnightblue" d="M1884.6,-70.67C1797.18,-63.96 1649.42,-50.85 1523.5,-31 1520.76,-30.57 1517.96,-30.1 1515.14,-29.6"/>
<polygon fill="midnightblue" stroke="midnightblue" points="1884.46,-74.17 1894.69,-71.44 1884.99,-67.19 1884.46,-74.17"/>
</g>
<!-- Node12 -->
<g id="node12" class="node">
<title>Node12</title>
<g id="a_node12"><a xlink:href="entropy__impl_8h.html" target="_top" xlink:title=" ">
<polygon fill="none" stroke="black" points="1533,-0.5 1533,-30.5 1652,-30.5 1652,-0.5 1533,-0.5"/>
<text text-anchor="start" x="1541" y="-18.5" font-family="Helvetica,sans-Serif" font-size="10.00">hal_platform/entropy</text>
<text text-anchor="middle" x="1592.5" y="-7.5" font-family="Helvetica,sans-Serif" font-size="10.00">_impl.h</text>
</a>
</g>
</g>
<!-- Node1&#45;&gt;Node12 -->
<g id="edge11" class="edge">
<title>Node1&#45;&gt;Node12</title>
<path fill="none" stroke="midnightblue" d="M1886.51,-66.08C1825.88,-57.65 1737.93,-44.77 1661.5,-31 1658.49,-30.46 1655.41,-29.88 1652.3,-29.29"/>
<polygon fill="midnightblue" stroke="midnightblue" points="1886.36,-69.59 1896.75,-67.49 1887.32,-62.66 1886.36,-69.59"/>
</g>
<!-- Node13 -->
<g id="node13" class="node">
<title>Node13</title>
<g id="a_node13"><a xlink:href="exti_8h.html" target="_top" xlink:title=" ">
<polygon fill="none" stroke="black" points="1670.5,-6 1670.5,-25 1780.5,-25 1780.5,-6 1670.5,-6"/>
<text text-anchor="middle" x="1725.5" y="-13" font-family="Helvetica,sans-Serif" font-size="10.00">hal_platform/exti.h</text>
</a>
</g>
</g>
<!-- Node1&#45;&gt;Node13 -->
<g id="edge12" class="edge">
<title>Node1&#45;&gt;Node13</title>
<path fill="none" stroke="midnightblue" d="M1916.93,-64.97C1871.3,-53.41 1800.61,-35.52 1759.11,-25.01"/>
<polygon fill="midnightblue" stroke="midnightblue" points="1916.28,-68.41 1926.83,-67.48 1918,-61.63 1916.28,-68.41"/>
</g>
<!-- Node14 -->
<g id="node14" class="node">
<title>Node14</title>
<g id="a_node14"><a xlink:href="exti__handlers_8h.html" target="_top" xlink:title=" ">
<polygon fill="none" stroke="black" points="1799,-6 1799,-25 1956,-25 1956,-6 1799,-6"/>
<text text-anchor="middle" x="1877.5" y="-13" font-family="Helvetica,sans-Serif" font-size="10.00">hal_platform/exti_handlers.h</text>
</a>
</g>
</g>
<!-- Node1&#45;&gt;Node14 -->
<g id="edge13" class="edge">
<title>Node1&#45;&gt;Node14</title>
<path fill="none" stroke="midnightblue" d="M1940.43,-61.61C1924.47,-50.17 1902.67,-34.55 1889.37,-25.01"/>
<polygon fill="midnightblue" stroke="midnightblue" points="1938.44,-64.49 1948.61,-67.48 1942.52,-58.8 1938.44,-64.49"/>
</g>
<!-- Node15 -->
<g id="node15" class="node">
<title>Node15</title>
<g id="a_node15"><a xlink:href="gpio__impl_8h.html" target="_top" xlink:title=" ">
<polygon fill="none" stroke="black" points="1974,-6 1974,-25 2113,-25 2113,-6 1974,-6"/>
<text text-anchor="middle" x="2043.5" y="-13" font-family="Helvetica,sans-Serif" font-size="10.00">hal_platform/gpio_impl.h</text>
</a>
</g>
</g>
<!-- Node1&#45;&gt;Node15 -->
<g id="edge14" class="edge">
<title>Node1&#45;&gt;Node15</title>
<path fill="none" stroke="midnightblue" d="M1980.57,-61.61C1996.53,-50.17 2018.33,-34.55 2031.63,-25.01"/>
<polygon fill="midnightblue" stroke="midnightblue" points="1978.48,-58.8 1972.39,-67.48 1982.56,-64.49 1978.48,-58.8"/>
</g>
<!-- Node16 -->
<g id="node16" class="node">
<title>Node16</title>
<g id="a_node16"><a xlink:href="id__impl_8h.html" target="_top" xlink:title=" ">
<polygon fill="none" stroke="black" points="2131,-6 2131,-25 2258,-25 2258,-6 2131,-6"/>
<text text-anchor="middle" x="2194.5" y="-13" font-family="Helvetica,sans-Serif" font-size="10.00">hal_platform/id_impl.h</text>
</a>
</g>
</g>
<!-- Node1&#45;&gt;Node16 -->
<g id="edge15" class="edge">
<title>Node1&#45;&gt;Node16</title>
<path fill="none" stroke="midnightblue" d="M2003.88,-64.97C2049.32,-53.41 2119.71,-35.52 2161.04,-25.01"/>
<polygon fill="midnightblue" stroke="midnightblue" points="2002.86,-61.62 1994.03,-67.48 2004.58,-68.4 2002.86,-61.62"/>
</g>
<!-- Node17 -->
<g id="node17" class="node">
<title>Node17</title>
<g id="a_node17"><a xlink:href="rtc__handlers_8h.html" target="_top" xlink:title=" ">
<polygon fill="none" stroke="black" points="2276,-6 2276,-25 2427,-25 2427,-6 2276,-6"/>
<text text-anchor="middle" x="2351.5" y="-13" font-family="Helvetica,sans-Serif" font-size="10.00">hal_platform/rtc_handlers.h</text>
</a>
</g>
</g>
<!-- Node1&#45;&gt;Node17 -->
<g id="edge16" class="edge">
<title>Node1&#45;&gt;Node17</title>
<path fill="none" stroke="midnightblue" d="M2031.84,-66.07C2094.11,-57.27 2186.88,-43.87 2267.5,-31 2279.05,-29.16 2291.46,-27.07 2303.12,-25.07"/>
<polygon fill="midnightblue" stroke="midnightblue" points="2031.14,-62.63 2021.73,-67.49 2032.12,-69.56 2031.14,-62.63"/>
</g>
<!-- Node18 -->
<g id="node18" class="node">
<title>Node18</title>
<g id="a_node18"><a xlink:href="rtc__impl_8h.html" target="_top" xlink:title=" ">
<polygon fill="none" stroke="black" points="2445,-6 2445,-25 2576,-25 2576,-6 2445,-6"/>
<text text-anchor="middle" x="2510.5" y="-13" font-family="Helvetica,sans-Serif" font-size="10.00">hal_platform/rtc_impl.h</text>
</a>
</g>
</g>
<!-- Node1&#45;&gt;Node18 -->
<g id="edge17" class="edge">
<title>Node1&#45;&gt;Node18</title>
<path fill="none" stroke="midnightblue" d="M2036.19,-71.17C2130.33,-64.63 2295.81,-51.38 2436.5,-31 2447.64,-29.39 2459.65,-27.22 2470.68,-25.05"/>
<polygon fill="midnightblue" stroke="midnightblue" points="2035.93,-67.68 2026.19,-71.86 2036.41,-74.67 2035.93,-67.68"/>
</g>
<!-- Node19 -->
<g id="node19" class="node">
<title>Node19</title>
<g id="a_node19"><a xlink:href="shared__handlers_8h.html" target="_top" xlink:title=" ">
<polygon fill="none" stroke="black" points="2594,-0.5 2594,-30.5 2709,-30.5 2709,-0.5 2594,-0.5"/>
<text text-anchor="start" x="2602" y="-18.5" font-family="Helvetica,sans-Serif" font-size="10.00">hal_platform/shared</text>
<text text-anchor="middle" x="2651.5" y="-7.5" font-family="Helvetica,sans-Serif" font-size="10.00">_handlers.h</text>
</a>
</g>
</g>
<!-- Node1&#45;&gt;Node19 -->
<g id="edge18" class="edge">
<title>Node1&#45;&gt;Node19</title>
<path fill="none" stroke="midnightblue" d="M2036.08,-74.08C2153.97,-70.29 2388.57,-59.57 2585.5,-31 2588.29,-30.6 2591.13,-30.14 2594,-29.65"/>
<polygon fill="midnightblue" stroke="midnightblue" points="2035.95,-70.58 2026.07,-74.39 2036.17,-77.58 2035.95,-70.58"/>
</g>
<!-- Node20 -->
<g id="node20" class="node">
<title>Node20</title>
<g id="a_node20"><a xlink:href="timer__handlers_8h.html" target="_top" xlink:title=" ">
<polygon fill="none" stroke="black" points="2727.5,-0.5 2727.5,-30.5 2835.5,-30.5 2835.5,-0.5 2727.5,-0.5"/>
<text text-anchor="start" x="2735.5" y="-18.5" font-family="Helvetica,sans-Serif" font-size="10.00">hal_platform/timer</text>
<text text-anchor="middle" x="2781.5" y="-7.5" font-family="Helvetica,sans-Serif" font-size="10.00">_handlers.h</text>
</a>
</g>
</g>
<!-- Node1&#45;&gt;Node20 -->
<g id="edge19" class="edge">
<title>Node1&#45;&gt;Node20</title>
<path fill="none" stroke="midnightblue" d="M2036.39,-75.67C2173.35,-74.16 2470.67,-66.62 2718.5,-31 2721.39,-30.58 2724.34,-30.1 2727.31,-29.58"/>
<polygon fill="midnightblue" stroke="midnightblue" points="2035.98,-72.18 2026.01,-75.78 2036.05,-79.18 2035.98,-72.18"/>
</g>
<!-- Node21 -->
<g id="node21" class="node">
<title>Node21</title>
<g id="a_node21"><a xlink:href="timer__impl_8h.html" target="_top" xlink:title=" ">
<polygon fill="none" stroke="black" points="2853.5,-0.5 2853.5,-30.5 2961.5,-30.5 2961.5,-0.5 2853.5,-0.5"/>
<text text-anchor="start" x="2861.5" y="-18.5" font-family="Helvetica,sans-Serif" font-size="10.00">hal_platform/timer</text>
<text text-anchor="middle" x="2907.5" y="-7.5" font-family="Helvetica,sans-Serif" font-size="10.00">_impl.h</text>
</a>
</g>
</g>
<!-- Node1&#45;&gt;Node21 -->
<g id="edge20" class="edge">
<title>Node1&#45;&gt;Node21</title>
<path fill="none" stroke="midnightblue" d="M2036.27,-76.6C2189.63,-76.84 2547.5,-72.41 2844.5,-31 2847.39,-30.6 2850.34,-30.13 2853.32,-29.61"/>
<polygon fill="midnightblue" stroke="midnightblue" points="2036.03,-73.1 2026.02,-76.58 2036.02,-80.1 2036.03,-73.1"/>
</g>
<!-- Node22 -->
<g id="node22" class="node">
<title>Node22</title>
<g id="a_node22"><a xlink:href="uart__handlers_8h.html" target="_top" xlink:title=" ">
<polygon fill="none" stroke="black" points="2979.5,-6 2979.5,-25 3137.5,-25 3137.5,-6 2979.5,-6"/>
<text text-anchor="middle" x="3058.5" y="-13" font-family="Helvetica,sans-Serif" font-size="10.00">hal_platform/uart_handlers.h</text>
</a>
</g>
</g>
<!-- Node1&#45;&gt;Node22 -->
<g id="edge21" class="edge">
<title>Node1&#45;&gt;Node22</title>
<path fill="none" stroke="midnightblue" d="M2036.29,-75.69C2204.73,-74.34 2622.78,-67.26 2970.5,-31 2984.36,-29.55 2999.35,-27.33 3012.97,-25.06"/>
<polygon fill="midnightblue" stroke="midnightblue" points="2036.25,-72.19 2026.28,-75.77 2036.31,-79.19 2036.25,-72.19"/>
</g>
<!-- Node23 -->
<g id="node23" class="node">
<title>Node23</title>
<g id="a_node23"><a xlink:href="uart__impl_8h.html" target="_top" xlink:title=" ">
<polygon fill="none" stroke="black" points="3156,-6 3156,-25 3293,-25 3293,-6 3156,-6"/>
<text text-anchor="middle" x="3224.5" y="-13" font-family="Helvetica,sans-Serif" font-size="10.00">hal_platform/uart_impl.h</text>
</a>
</g>
</g>
<!-- Node1&#45;&gt;Node23 -->
<g id="edge22" class="edge">
<title>Node1&#45;&gt;Node23</title>
<path fill="none" stroke="midnightblue" d="M2036.32,-74.57C2262.48,-70.08 2930.07,-55.09 3146.5,-31 3159.09,-29.6 3172.71,-27.33 3184.99,-25"/>
<polygon fill="midnightblue" stroke="midnightblue" points="2036.13,-71.07 2026.2,-74.77 2036.27,-78.07 2036.13,-71.07"/>
</g>
<!-- Node24 -->
<g id="node24" class="node">
<title>Node24</title>
<g id="a_node24"><a xlink:href="uc__map__impl_8h.html" target="_top" xlink:title=" ">
<polygon fill="none" stroke="black" points="3311.5,-0.5 3311.5,-30.5 3431.5,-30.5 3431.5,-0.5 3311.5,-0.5"/>
<text text-anchor="start" x="3319.5" y="-18.5" font-family="Helvetica,sans-Serif" font-size="10.00">hal_platform/uc_map</text>
<text text-anchor="middle" x="3371.5" y="-7.5" font-family="Helvetica,sans-Serif" font-size="10.00">_impl.h</text>
</a>
</g>
</g>
<!-- Node1&#45;&gt;Node24 -->
<g id="edge23" class="edge">
<title>Node1&#45;&gt;Node24</title>
<path fill="none" stroke="midnightblue" d="M2036.42,-75.19C2282.21,-72.29 3054.67,-60.97 3302.5,-31 3305.42,-30.65 3308.39,-30.23 3311.39,-29.77"/>
<polygon fill="midnightblue" stroke="midnightblue" points="2036.11,-71.69 2026.16,-75.31 2036.2,-78.69 2036.11,-71.69"/>
</g>
<!-- Node25 -->
<g id="node25" class="node">
<title>Node25</title>
<g id="a_node25"><a xlink:href="usb__handlers_8h.html" target="_top" xlink:title=" ">
<polygon fill="none" stroke="black" points="3450,-6 3450,-25 3605,-25 3605,-6 3450,-6"/>
<text text-anchor="middle" x="3527.5" y="-13" font-family="Helvetica,sans-Serif" font-size="10.00">hal_platform/usb_handlers.h</text>
</a>
</g>
</g>
<!-- Node1&#45;&gt;Node25 -->
<g id="edge24" class="edge">
<title>Node1&#45;&gt;Node25</title>
<path fill="none" stroke="midnightblue" d="M2036.51,-75.04C2298.63,-71.53 3163.9,-58.13 3440.5,-31 3454.52,-29.62 3469.7,-27.37 3483.39,-25.03"/>
<polygon fill="midnightblue" stroke="midnightblue" points="2036.28,-71.55 2026.33,-75.18 2036.37,-78.55 2036.28,-71.55"/>
</g>
<!-- Node26 -->
<g id="node26" class="node">
<title>Node26</title>
<g id="a_node26"><a xlink:href="usb__impl_8h.html" target="_top" xlink:title=" ">
<polygon fill="none" stroke="black" points="3623,-6 3623,-25 3758,-25 3758,-6 3623,-6"/>
<text text-anchor="middle" x="3690.5" y="-13" font-family="Helvetica,sans-Serif" font-size="10.00">hal_platform/usb_impl.h</text>
</a>
</g>
</g>
<!-- Node1&#45;&gt;Node26 -->
<g id="edge25" class="edge">
<title>Node1&#45;&gt;Node26</title>
<path fill="none" stroke="midnightblue" d="M2036.3,-75.56C2317.73,-73.68 3302.42,-64.79 3614.5,-31 3626.92,-29.66 3640.35,-27.37 3652.41,-25.01"/>
<polygon fill="midnightblue" stroke="midnightblue" points="2036.17,-72.06 2026.19,-75.63 2036.21,-79.06 2036.17,-72.06"/>
</g>
<!-- Node27 -->
<g id="node27" class="node">
<title>Node27</title>
<g id="a_node27"><a xlink:href="usbcdc__impl_8h.html" target="_top" xlink:title=" ">
<polygon fill="none" stroke="black" points="3776.5,-0.5 3776.5,-30.5 3892.5,-30.5 3892.5,-0.5 3776.5,-0.5"/>
<text text-anchor="start" x="3784.5" y="-18.5" font-family="Helvetica,sans-Serif" font-size="10.00">hal_platform/usbcdc</text>
<text text-anchor="middle" x="3834.5" y="-7.5" font-family="Helvetica,sans-Serif" font-size="10.00">_impl.h</text>
</a>
</g>
</g>
<!-- Node1&#45;&gt;Node27 -->
<g id="edge26" class="edge">
<title>Node1&#45;&gt;Node27</title>
<path fill="none" stroke="midnightblue" d="M2036.75,-76.01C2335.2,-75.77 3424.53,-72.01 3767.5,-31 3770.34,-30.66 3773.23,-30.26 3776.14,-29.81"/>
<polygon fill="midnightblue" stroke="midnightblue" points="2036.47,-72.51 2026.47,-76.02 2036.47,-79.51 2036.47,-72.51"/>
</g>
</g>
</svg>
        <g id="navigator" transform="translate(0 0)" fill="#404254">
                <rect fill="#f2f5e9" fill-opacity="0.5" stroke="#606060" stroke-width=".5" x="0" y="0" width="60" height="60"/>
                <use id="zoomplus" xlink:href="#zoomPlus" x="17" y="9" onmousedown="handleZoom(evt,'in')"/>
                <use id="zoomminus" xlink:href="#zoomMin" x="42" y="9" onmousedown="handleZoom(evt,'out')"/>
                <use id="reset" xlink:href="#resetDef" x="30" y="36" onmousedown="handleReset()"/>
                <g id="arrowUp" xlink:href="#dirArrow" transform="translate(30 24)" onmousedown="handlePan(0,-1)">
                  <use xlink:href="#rim" fill="#404040">
                        <set attributeName="fill" to="#808080" begin="arrowUp.mouseover" end="arrowUp.mouseout"/>
                  </use>
                  <path fill="none" stroke="white" stroke-width="1.5" d="M0,-3.0v7 M-2.5,-0.5L0,-3.0L2.5,-0.5"/>
                </g>
                <g id="arrowRight" xlink:href="#dirArrow" transform="rotate(90) translate(36 -43)" onmousedown="handlePan(1,0)">
                  <use xlink:href="#rim" fill="#404040">
                        <set attributeName="fill" to="#808080" begin="arrowRight.mouseover" end="arrowRight.mouseout"/>
                  </use>
                  <path fill="none" stroke="white" stroke-width="1.5" d="M0,-3.0v7 M-2.5,-0.5L0,-3.0L2.5,-0.5"/>
                </g>
                <g id="arrowDown" xlink:href="#dirArrow" transform="rotate(180) translate(-30 -48)" onmousedown="handlePan(0,1)">
                  <use xlink:href="#rim" fill="#404040">
                        <set attributeName="fill" to="#808080" begin="arrowDown.mouseover" end="arrowDown.mouseout"/>
                  </use>
                  <path fill="none" stroke="white" stroke-width="1.5" d="M0,-3.0v7 M-2.5,-0.5L0,-3.0L2.5,-0.5"/>
                </g>
                <g id="arrowLeft" xlink:href="#dirArrow" transform="rotate(270) translate(-36 17)" onmousedown="handlePan(-1,0)">
                  <use xlink:href="#rim" fill="#404040">
                        <set attributeName="fill" to="#808080" begin="arrowLeft.mouseover" end="arrowLeft.mouseout"/>
                  </use>
                  <path fill="none" stroke="white" stroke-width="1.5" d="M0,-3.0v7 M-2.5,-0.5L0,-3.0L2.5,-0.5"/>
                </g>
        </g>
        <svg viewBox="0 0 15 15" width="100%" height="30px" preserveAspectRatio="xMaxYMin meet">
         <g id="arrow_out" transform="scale(0.3 0.3)">
          <a xlink:href="families_8h__dep__incl_org.svg" target="_base">
           <rect id="button" ry="5" rx="5" y="6" x="6" height="38" width="38"
                fill="#f2f5e9" fill-opacity="0.5" stroke="#606060" stroke-width="1.0"/>
           <path id="arrow"
             d="M 11.500037,31.436501 C 11.940474,20.09759 22.043105,11.32322 32.158766,21.979434 L 37.068811,17.246167 C 37.068811,17.246167 37.088388,32 37.088388,32 L 22.160133,31.978069 C 22.160133,31.978069 26.997745,27.140456 26.997745,27.140456 C 18.528582,18.264221 13.291696,25.230495 11.500037,31.436501 z"
             style="fill:#404040;"/>
          </a>
         </g>
        </svg>
</svg>
