<?xml version="1.0" encoding="UTF-8" standalone="no"?>
<!DOCTYPE svg PUBLIC "-//W3C//DTD SVG 1.1//EN"
 "http://www.w3.org/Graphics/SVG/1.1/DTD/svg11.dtd">
<!-- Generated by graphviz version 2.43.0 (0)
 -->
<!-- Title: hal_platform/families.h Pages: 1 -->
<!--zoomable 93 -->

<svg id="main" version="1.1" xmlns="http://www.w3.org/2000/svg" xmlns:xlink="http://www.w3.org/1999/xlink" xml:space="preserve" onload="init(evt)">
<style type="text/css"><![CDATA[
.node, .edge {opacity: 0.7;}
.node.selected, .edge.selected {opacity: 1;}
.edge:hover path { stroke: red; }
.edge:hover polygon { stroke: red; fill: red; }
]]></style>

<defs>
  <circle id="rim" cx="0" cy="0" r="7"/>
  <circle id="rim2" cx="0" cy="0" r="3.5"/>
  <g id="zoomPlus">
    <use xlink:href="#rim" fill="#404040"><set attributeName="fill" to="#808080" begin="zoomplus.mouseover" end="zoomplus.mouseout"/></use>
    <path d="M-4,0h8M0,-4v8" fill="none" stroke="white" stroke-width="1.5" pointer-events="none"/>
  </g>
  <g id="zoomMin">
    <use xlink:href="#rim" fill="#404040"><set attributeName="fill" to="#808080" begin="zoomminus.mouseover" end="zoomminus.mouseout"/></use>
    <path d="M-4,0h8" fill="none" stroke="white" stroke-width="1.5" pointer-events="none"/>
  </g>
  <g id="arrowUp" transform="translate(30 24)">
    <use xlink:href="#rim"/>
    <path pointer-events="none" fill="none" stroke="white" stroke-width="1.5" d="M0,-3.0v7 M-2.5,-0.5L0,-3.0L2.5,-0.5"/>
  </g>
  <g id="arrowRight" transform="rotate(90) translate(36 -43)">
    <use xlink:href="#rim"/>
    <path pointer-events="none" fill="none" stroke="white" stroke-width="1.5" d="M0,-3.0v7 M-2.5,-0.5L0,-3.0L2.5,-0.5"/>
  </g>
  <g id="arrowDown" transform="rotate(180) translate(-30 -48)">
    <use xlink:href="#rim"/>
    <path pointer-events="none" fill="none" stroke="white" stroke-width="1.5" d="M0,-3.0v7 M-2.5,-0.5L0,-3.0L2.5,-0.5"/>
  </g>
  <g id="arrowLeft" transform="rotate(270) translate(-36 17)">
    <use xlink:href="#rim"/>
    <path pointer-events="none" fill="none" stroke="white" stroke-width="1.5" d="M0,-3.0v7 M-2.5,-0.5L0,-3.0L2.5,-0.5"/>
  </g>
  <g id="resetDef">
    <use xlink:href="#rim2" fill="#404040"><set attributeName="fill" to="#808080" begin="reset.mouseover" end="reset.mouseout"/></use>
  </g>
</defs>
<script type="application/ecmascript">
var viewWidth = 4034;
var viewHeight = 93;
var sectionId = 'dynsection-0';
</script>
<script type="application/ecmascript" xlink:href="svg.min.js"/>
<svg id="graph" class="graph">
<g id="viewport">
<title>hal_platform/families.h</title>
<!-- Node1 -->
<g id="Node000001" class="node">
<title>Node1</title>
<g id="a_Node000001"><a xlink:title=" ">
<polygon fill="#999999" stroke="#666666" points="2109,-85 1978,-85 1978,-66 2109,-66 2109,-85"/>
<text text-anchor="middle" x="2043.5" y="-73" font-family="Helvetica,sans-Serif" font-size="10.00">hal_platform/families.h</text>
</a>
</g>
</g>
<!-- Node2 -->
<g id="Node000002" class="node">
<title>Node2</title>
<g id="a_Node000002"><a xlink:href="adc__handlers_8h.html" target="_top" xlink:title=" ">
<polygon fill="white" stroke="#666666" points="155,-24.5 0,-24.5 0,-5.5 155,-5.5 155,-24.5"/>
<text text-anchor="middle" x="77.5" y="-12.5" font-family="Helvetica,sans-Serif" font-size="10.00">hal_platform/adc_handlers.h</text>
</a>
</g>
</g>
<!-- Node1&#45;&gt;Node2 -->
<g id="edge1_Node000001_Node000002" class="edge">
<title>Node1&#45;&gt;Node2</title>
<g id="a_edge1_Node000001_Node000002"><a xlink:title=" ">
<path fill="none" stroke="#63b8ff" d="M1967.79,-74.1C1662.7,-72.28 522.7,-63.33 163.5,-30 150.09,-28.76 135.62,-26.69 122.43,-24.51"/>
<polygon fill="#63b8ff" stroke="#63b8ff" points="1967.84,-77.6 1977.86,-74.16 1967.88,-70.6 1967.84,-77.6"/>
</a>
</g>
</g>
<!-- Node3 -->
<g id="Node000003" class="node">
<title>Node3</title>
<g id="a_Node000003"><a xlink:href="adc__impl_8h.html" target="_top" xlink:title=" ">
<polygon fill="white" stroke="#666666" points="308,-24.5 173,-24.5 173,-5.5 308,-5.5 308,-24.5"/>
<text text-anchor="middle" x="240.5" y="-12.5" font-family="Helvetica,sans-Serif" font-size="10.00">hal_platform/adc_impl.h</text>
</a>
</g>
</g>
<!-- Node1&#45;&gt;Node3 -->
<g id="edge2_Node000001_Node000003" class="edge">
<title>Node1&#45;&gt;Node3</title>
<g id="a_edge2_Node000001_Node000003"><a xlink:title=" ">
<path fill="none" stroke="#63b8ff" d="M1967.32,-74.12C1677.52,-72.44 643.58,-64.13 316.5,-30 304.62,-28.76 291.82,-26.69 280.17,-24.52"/>
<polygon fill="#63b8ff" stroke="#63b8ff" points="1967.71,-77.62 1977.73,-74.18 1967.75,-70.62 1967.71,-77.62"/>
</a>
</g>
</g>
<!-- Node4 -->
<g id="Node000004" class="node">
<title>Node4</title>
<g id="a_Node000004"><a xlink:href="core__handlers_8h.html" target="_top" xlink:title=" ">
<polygon fill="white" stroke="#666666" points="485,-24.5 326,-24.5 326,-5.5 485,-5.5 485,-24.5"/>
<text text-anchor="middle" x="405.5" y="-12.5" font-family="Helvetica,sans-Serif" font-size="10.00">hal_platform/core_handlers.h</text>
</a>
</g>
</g>
<!-- Node1&#45;&gt;Node4 -->
<g id="edge3_Node000001_Node000004" class="edge">
<title>Node1&#45;&gt;Node4</title>
<g id="a_edge3_Node000001_Node000004"><a xlink:title=" ">
<path fill="none" stroke="#63b8ff" d="M1967.56,-73.62C1697.56,-70.28 784.6,-57.22 493.5,-30 479.95,-28.73 465.31,-26.68 451.94,-24.54"/>
<polygon fill="#63b8ff" stroke="#63b8ff" points="1967.61,-77.12 1977.66,-73.74 1967.7,-70.12 1967.61,-77.12"/>
</a>
</g>
</g>
<!-- Node5 -->
<g id="Node000005" class="node">
<title>Node5</title>
<g id="a_Node000005"><a xlink:href="core__impl_8h.html" target="_top" xlink:title=" ">
<polygon fill="white" stroke="#666666" points="642,-24.5 503,-24.5 503,-5.5 642,-5.5 642,-24.5"/>
<text text-anchor="middle" x="572.5" y="-12.5" font-family="Helvetica,sans-Serif" font-size="10.00">hal_platform/core_impl.h</text>
</a>
</g>
</g>
<!-- Node1&#45;&gt;Node5 -->
<g id="edge4_Node000001_Node000005" class="edge">
<title>Node1&#45;&gt;Node5</title>
<g id="a_edge4_Node000001_Node000005"><a xlink:title=" ">
<path fill="none" stroke="#63b8ff" d="M1967.73,-73.54C1716.04,-70.1 909.21,-57.2 650.5,-30 638.46,-28.73 625.48,-26.68 613.63,-24.54"/>
<polygon fill="#63b8ff" stroke="#63b8ff" points="1967.82,-77.04 1977.87,-73.67 1967.92,-70.04 1967.82,-77.04"/>
</a>
</g>
</g>
<!-- Node6 -->
<g id="Node000006" class="node">
<title>Node6</title>
<g id="a_Node000006"><a xlink:href="crypto__handlers_8h.html" target="_top" xlink:title=" ">
<polygon fill="white" stroke="#666666" points="773,-30 660,-30 660,0 773,0 773,-30"/>
<text text-anchor="start" x="668" y="-18" font-family="Helvetica,sans-Serif" font-size="10.00">hal_platform/crypto</text>
<text text-anchor="middle" x="716.5" y="-7" font-family="Helvetica,sans-Serif" font-size="10.00">_handlers.h</text>
</a>
</g>
</g>
<!-- Node1&#45;&gt;Node6 -->
<g id="edge5_Node000001_Node000006" class="edge">
<title>Node1&#45;&gt;Node6</title>
<g id="a_edge5_Node000001_Node000006"><a xlink:title=" ">
<path fill="none" stroke="#63b8ff" d="M1967.71,-73.59C1731.88,-70.47 1013.02,-58.79 781.5,-30 778.75,-29.66 775.95,-29.26 773.12,-28.81"/>
<polygon fill="#63b8ff" stroke="#63b8ff" points="1967.86,-77.09 1977.91,-73.72 1967.95,-70.09 1967.86,-77.09"/>
</a>
</g>
</g>
<!-- Node7 -->
<g id="Node000007" class="node">
<title>Node7</title>
<g id="a_Node000007"><a xlink:href="crypto__impl_8h.html" target="_top" xlink:title=" ">
<polygon fill="white" stroke="#666666" points="904,-30 791,-30 791,0 904,0 904,-30"/>
<text text-anchor="start" x="799" y="-18" font-family="Helvetica,sans-Serif" font-size="10.00">hal_platform/crypto</text>
<text text-anchor="middle" x="847.5" y="-7" font-family="Helvetica,sans-Serif" font-size="10.00">_impl.h</text>
</a>
</g>
</g>
<!-- Node1&#45;&gt;Node7 -->
<g id="edge6_Node000001_Node000007" class="edge">
<title>Node1&#45;&gt;Node7</title>
<g id="a_edge6_Node000001_Node000007"><a xlink:title=" ">
<path fill="none" stroke="#63b8ff" d="M1967.87,-73.2C1749.13,-69.16 1118.34,-55.57 913.5,-30 910.48,-29.62 907.39,-29.18 904.28,-28.68"/>
<polygon fill="#63b8ff" stroke="#63b8ff" points="1967.91,-76.7 1977.97,-73.38 1968.04,-69.7 1967.91,-76.7"/>
</a>
</g>
</g>
<!-- Node8 -->
<g id="Node000008" class="node">
<title>Node8</title>
<g id="a_Node000008"><a xlink:href="dma__handlers_8h.html" target="_top" xlink:title=" ">
<polygon fill="white" stroke="#666666" points="1082.5,-24.5 922.5,-24.5 922.5,-5.5 1082.5,-5.5 1082.5,-24.5"/>
<text text-anchor="middle" x="1002.5" y="-12.5" font-family="Helvetica,sans-Serif" font-size="10.00">hal_platform/dma_handlers.h</text>
</a>
</g>
</g>
<!-- Node1&#45;&gt;Node8 -->
<g id="edge7_Node000001_Node000008" class="edge">
<title>Node1&#45;&gt;Node8</title>
<g id="a_edge7_Node000001_Node000008"><a xlink:title=" ">
<path fill="none" stroke="#63b8ff" d="M1967.5,-73.76C1805.88,-71.58 1416.26,-63.03 1091.5,-30 1078.12,-28.64 1063.68,-26.61 1050.41,-24.52"/>
<polygon fill="#63b8ff" stroke="#63b8ff" points="1967.77,-77.27 1977.82,-73.9 1967.86,-70.27 1967.77,-77.27"/>
</a>
</g>
</g>
<!-- Node9 -->
<g id="Node000009" class="node">
<title>Node9</title>
<g id="a_Node000009"><a xlink:href="dma__impl_8h.html" target="_top" xlink:title=" ">
<polygon fill="white" stroke="#666666" points="1240.5,-24.5 1100.5,-24.5 1100.5,-5.5 1240.5,-5.5 1240.5,-24.5"/>
<text text-anchor="middle" x="1170.5" y="-12.5" font-family="Helvetica,sans-Serif" font-size="10.00">hal_platform/dma_impl.h</text>
</a>
</g>
</g>
<!-- Node1&#45;&gt;Node9 -->
<g id="edge8_Node000001_Node000009" class="edge">
<title>Node1&#45;&gt;Node9</title>
<g id="a_edge8_Node000001_Node000009"><a xlink:title=" ">
<path fill="none" stroke="#63b8ff" d="M1967.61,-73.26C1826,-70.28 1512.07,-60.51 1249.5,-30 1237.74,-28.63 1225.08,-26.63 1213.41,-24.57"/>
<polygon fill="#63b8ff" stroke="#63b8ff" points="1967.85,-76.76 1977.92,-73.47 1967.99,-69.77 1967.85,-76.76"/>
</a>
</g>
</g>
<!-- Node10 -->
<g id="Node000010" class="node">
<title>Node10</title>
<g id="a_Node000010"><a xlink:href="eeprom__impl_8h.html" target="_top" xlink:title=" ">
<polygon fill="white" stroke="#666666" points="1378,-30 1259,-30 1259,0 1378,0 1378,-30"/>
<text text-anchor="start" x="1267" y="-18" font-family="Helvetica,sans-Serif" font-size="10.00">hal_platform/eeprom</text>
<text text-anchor="middle" x="1318.5" y="-7" font-family="Helvetica,sans-Serif" font-size="10.00">_impl.h</text>
</a>
</g>
</g>
<!-- Node1&#45;&gt;Node10 -->
<g id="edge9_Node000001_Node000010" class="edge">
<title>Node1&#45;&gt;Node10</title>
<g id="a_edge9_Node000001_Node000010"><a xlink:title=" ">
<path fill="none" stroke="#63b8ff" d="M1967.89,-72.7C1845.32,-69.05 1595.84,-58.51 1386.5,-30 1383.75,-29.63 1380.95,-29.21 1378.13,-28.75"/>
<polygon fill="#63b8ff" stroke="#63b8ff" points="1967.83,-76.2 1977.93,-73 1968.03,-69.21 1967.83,-76.2"/>
</a>
</g>
</g>
<!-- Node11 -->
<g id="Node000011" class="node">
<title>Node11</title>
<g id="a_Node000011"><a xlink:href="entropy__handlers_8h.html" target="_top" xlink:title=" ">
<polygon fill="white" stroke="#666666" points="1515,-30 1396,-30 1396,0 1515,0 1515,-30"/>
<text text-anchor="start" x="1404" y="-18" font-family="Helvetica,sans-Serif" font-size="10.00">hal_platform/entropy</text>
<text text-anchor="middle" x="1455.5" y="-7" font-family="Helvetica,sans-Serif" font-size="10.00">_handlers.h</text>
</a>
</g>
</g>
<!-- Node1&#45;&gt;Node11 -->
<g id="edge10_Node000001_Node000011" class="edge">
<title>Node1&#45;&gt;Node11</title>
<g id="a_edge10_Node000001_Node000011"><a xlink:title=" ">
<path fill="none" stroke="#63b8ff" d="M1967.8,-70.82C1866.29,-65.25 1680.63,-52.82 1523.5,-30 1520.76,-29.6 1517.96,-29.16 1515.13,-28.69"/>
<polygon fill="#63b8ff" stroke="#63b8ff" points="1967.78,-74.32 1977.96,-71.37 1968.16,-67.33 1967.78,-74.32"/>
</a>
</g>
</g>
<!-- Node12 -->
<g id="Node000012" class="node">
<title>Node12</title>
<g id="a_Node000012"><a xlink:href="entropy__impl_8h.html" target="_top" xlink:title=" ">
<polygon fill="white" stroke="#666666" points="1652,-30 1533,-30 1533,0 1652,0 1652,-30"/>
<text text-anchor="start" x="1541" y="-18" font-family="Helvetica,sans-Serif" font-size="10.00">hal_platform/entropy</text>
<text text-anchor="middle" x="1592.5" y="-7" font-family="Helvetica,sans-Serif" font-size="10.00">_impl.h</text>
</a>
</g>
</g>
<!-- Node1&#45;&gt;Node12 -->
<g id="edge11_Node000001_Node000012" class="edge">
<title>Node1&#45;&gt;Node12</title>
<g id="a_edge11_Node000001_Node000012"><a xlink:title=" ">
<path fill="none" stroke="#63b8ff" d="M1967.58,-67.56C1890.31,-60.05 1767.2,-46.85 1661.5,-30 1658.48,-29.52 1655.4,-29 1652.28,-28.45"/>
<polygon fill="#63b8ff" stroke="#63b8ff" points="1967.41,-71.06 1977.7,-68.53 1968.09,-64.09 1967.41,-71.06"/>
</a>
</g>
</g>
<!-- Node13 -->
<g id="Node000013" class="node">
<title>Node13</title>
<g id="a_Node000013"><a xlink:href="exti_8h.html" target="_top" xlink:title=" ">
<polygon fill="white" stroke="#666666" points="1780.5,-24.5 1670.5,-24.5 1670.5,-5.5 1780.5,-5.5 1780.5,-24.5"/>
<text text-anchor="middle" x="1725.5" y="-12.5" font-family="Helvetica,sans-Serif" font-size="10.00">hal_platform/exti.h</text>
</a>
</g>
</g>
<!-- Node1&#45;&gt;Node13 -->
<g id="edge12_Node000001_Node000013" class="edge">
<title>Node1&#45;&gt;Node13</title>
<g id="a_edge12_Node000001_Node000013"><a xlink:title=" ">
<path fill="none" stroke="#63b8ff" d="M1980.86,-64.28C1929.37,-55.69 1854.56,-42.81 1789.5,-30 1781.02,-28.33 1771.93,-26.42 1763.35,-24.55"/>
<polygon fill="#63b8ff" stroke="#63b8ff" points="1980.4,-67.75 1990.84,-65.94 1981.55,-60.84 1980.4,-67.75"/>
</a>
</g>
</g>
<!-- Node14 -->
<g id="Node000014" class="node">
<title>Node14</title>
<g id="a_Node000014"><a xlink:href="exti__handlers_8h.html" target="_top" xlink:title=" ">
<polygon fill="white" stroke="#666666" points="1956,-24.5 1799,-24.5 1799,-5.5 1956,-5.5 1956,-24.5"/>
<text text-anchor="middle" x="1877.5" y="-12.5" font-family="Helvetica,sans-Serif" font-size="10.00">hal_platform/exti_handlers.h</text>
</a>
</g>
</g>
<!-- Node1&#45;&gt;Node14 -->
<g id="edge13_Node000001_Node000014" class="edge">
<title>Node1&#45;&gt;Node14</title>
<g id="a_edge13_Node000001_Node000014"><a xlink:title=" ">
<path fill="none" stroke="#63b8ff" d="M2009.52,-62.52C1977.42,-51.21 1930.08,-34.53 1901.67,-24.52"/>
<polygon fill="#63b8ff" stroke="#63b8ff" points="2008.77,-65.97 2019.36,-65.99 2011.09,-59.37 2008.77,-65.97"/>
</a>
</g>
</g>
<!-- Node15 -->
<g id="Node000015" class="node">
<title>Node15</title>
<g id="a_Node000015"><a xlink:href="gpio__impl_8h.html" target="_top" xlink:title=" ">
<polygon fill="white" stroke="#666666" points="2113,-24.5 1974,-24.5 1974,-5.5 2113,-5.5 2113,-24.5"/>
<text text-anchor="middle" x="2043.5" y="-12.5" font-family="Helvetica,sans-Serif" font-size="10.00">hal_platform/gpio_impl.h</text>
</a>
</g>
</g>
<!-- Node1&#45;&gt;Node15 -->
<g id="edge14_Node000001_Node000015" class="edge">
<title>Node1&#45;&gt;Node15</title>
<g id="a_edge14_Node000001_Node000015"><a xlink:title=" ">
<path fill="none" stroke="#63b8ff" d="M2043.5,-55.66C2043.5,-45.24 2043.5,-32.8 2043.5,-24.67"/>
<polygon fill="#63b8ff" stroke="#63b8ff" points="2040,-55.87 2043.5,-65.87 2047,-55.87 2040,-55.87"/>
</a>
</g>
</g>
<!-- Node16 -->
<g id="Node000016" class="node">
<title>Node16</title>
<g id="a_Node000016"><a xlink:href="id__impl_8h.html" target="_top" xlink:title=" ">
<polygon fill="white" stroke="#666666" points="2258,-24.5 2131,-24.5 2131,-5.5 2258,-5.5 2258,-24.5"/>
<text text-anchor="middle" x="2194.5" y="-12.5" font-family="Helvetica,sans-Serif" font-size="10.00">hal_platform/id_impl.h</text>
</a>
</g>
</g>
<!-- Node1&#45;&gt;Node16 -->
<g id="edge15_Node000001_Node000016" class="edge">
<title>Node1&#45;&gt;Node16</title>
<g id="a_edge15_Node000001_Node000016"><a xlink:title=" ">
<path fill="none" stroke="#63b8ff" d="M2074.79,-62.38C2103.98,-51.07 2146.78,-34.49 2172.52,-24.52"/>
<polygon fill="#63b8ff" stroke="#63b8ff" points="2073.52,-59.12 2065.46,-65.99 2076.05,-65.64 2073.52,-59.12"/>
</a>
</g>
</g>
<!-- Node17 -->
<g id="Node000017" class="node">
<title>Node17</title>
<g id="a_Node000017"><a xlink:href="qdelay__impl_8h.html" target="_top" xlink:title=" ">
<polygon fill="white" stroke="#666666" points="2391,-30 2276,-30 2276,0 2391,0 2391,-30"/>
<text text-anchor="start" x="2284" y="-18" font-family="Helvetica,sans-Serif" font-size="10.00">hal_platform/qdelay</text>
<text text-anchor="middle" x="2333.5" y="-7" font-family="Helvetica,sans-Serif" font-size="10.00">_impl.h</text>
</a>
</g>
</g>
<!-- Node1&#45;&gt;Node17 -->
<g id="edge16_Node000001_Node000017" class="edge">
<title>Node1&#45;&gt;Node17</title>
<g id="a_edge16_Node000001_Node000017"><a xlink:title=" ">
<path fill="none" stroke="#63b8ff" d="M2097.24,-64.03C2142.64,-55.13 2209.37,-41.94 2267.5,-30 2270.25,-29.43 2273.07,-28.85 2275.92,-28.26"/>
<polygon fill="#63b8ff" stroke="#63b8ff" points="2096.46,-60.61 2087.31,-65.97 2097.8,-67.48 2096.46,-60.61"/>
</a>
</g>
</g>
<!-- Node18 -->
<g id="Node000018" class="node">
<title>Node18</title>
<g id="a_Node000018"><a xlink:href="rtc__handlers_8h.html" target="_top" xlink:title=" ">
<polygon fill="white" stroke="#666666" points="2560,-24.5 2409,-24.5 2409,-5.5 2560,-5.5 2560,-24.5"/>
<text text-anchor="middle" x="2484.5" y="-12.5" font-family="Helvetica,sans-Serif" font-size="10.00">hal_platform/rtc_handlers.h</text>
</a>
</g>
</g>
<!-- Node1&#45;&gt;Node18 -->
<g id="edge17_Node000001_Node000018" class="edge">
<title>Node1&#45;&gt;Node18</title>
<g id="a_edge17_Node000001_Node000018"><a xlink:title=" ">
<path fill="none" stroke="#63b8ff" d="M2119.02,-66C2191.36,-57.64 2303.54,-44.12 2400.5,-30 2411.77,-28.36 2423.85,-26.44 2435.25,-24.56"/>
<polygon fill="#63b8ff" stroke="#63b8ff" points="2118.61,-62.52 2109.08,-67.14 2119.41,-69.48 2118.61,-62.52"/>
</a>
</g>
</g>
<!-- Node19 -->
<g id="Node000019" class="node">
<title>Node19</title>
<g id="a_Node000019"><a xlink:href="rtc__impl_8h.html" target="_top" xlink:title=" ">
<polygon fill="white" stroke="#666666" points="2709,-24.5 2578,-24.5 2578,-5.5 2709,-5.5 2709,-24.5"/>
<text text-anchor="middle" x="2643.5" y="-12.5" font-family="Helvetica,sans-Serif" font-size="10.00">hal_platform/rtc_impl.h</text>
</a>
</g>
</g>
<!-- Node1&#45;&gt;Node19 -->
<g id="edge18_Node000001_Node000019" class="edge">
<title>Node1&#45;&gt;Node19</title>
<g id="a_edge18_Node000001_Node000019"><a xlink:title=" ">
<path fill="none" stroke="#63b8ff" d="M2119.6,-70.52C2222.13,-64.59 2410.16,-51.75 2569.5,-30 2580.25,-28.53 2591.81,-26.54 2602.52,-24.53"/>
<polygon fill="#63b8ff" stroke="#63b8ff" points="2119.12,-67.04 2109.34,-71.1 2119.52,-74.03 2119.12,-67.04"/>
</a>
</g>
</g>
<!-- Node20 -->
<g id="Node000020" class="node">
<title>Node20</title>
<g id="a_Node000020"><a xlink:href="shared__handlers_8h.html" target="_top" xlink:title=" ">
<polygon fill="white" stroke="#666666" points="2842,-30 2727,-30 2727,0 2842,0 2842,-30"/>
<text text-anchor="start" x="2735" y="-18" font-family="Helvetica,sans-Serif" font-size="10.00">hal_platform/shared</text>
<text text-anchor="middle" x="2784.5" y="-7" font-family="Helvetica,sans-Serif" font-size="10.00">_handlers.h</text>
</a>
</g>
</g>
<!-- Node1&#45;&gt;Node20 -->
<g id="edge19_Node000001_Node000020" class="edge">
<title>Node1&#45;&gt;Node20</title>
<g id="a_edge19_Node000001_Node000020"><a xlink:title=" ">
<path fill="none" stroke="#63b8ff" d="M2119.71,-73.03C2245.13,-69.81 2502.66,-59.85 2718.5,-30 2721.28,-29.61 2724.13,-29.18 2726.99,-28.71"/>
<polygon fill="#63b8ff" stroke="#63b8ff" points="2119.36,-69.53 2109.45,-73.28 2119.54,-76.53 2119.36,-69.53"/>
</a>
</g>
</g>
<!-- Node21 -->
<g id="Node000021" class="node">
<title>Node21</title>
<g id="a_Node000021"><a xlink:href="timer__handlers_8h.html" target="_top" xlink:title=" ">
<polygon fill="white" stroke="#666666" points="2968.5,-30 2860.5,-30 2860.5,0 2968.5,0 2968.5,-30"/>
<text text-anchor="start" x="2868.5" y="-18" font-family="Helvetica,sans-Serif" font-size="10.00">hal_platform/timer</text>
<text text-anchor="middle" x="2914.5" y="-7" font-family="Helvetica,sans-Serif" font-size="10.00">_handlers.h</text>
</a>
</g>
</g>
<!-- Node1&#45;&gt;Node21 -->
<g id="edge20_Node000001_Node000021" class="edge">
<title>Node1&#45;&gt;Node21</title>
<g id="a_edge20_Node000001_Node000021"><a xlink:title=" ">
<path fill="none" stroke="#63b8ff" d="M2119.06,-74.45C2262.52,-73.45 2583.92,-66.85 2851.5,-30 2854.39,-29.6 2857.34,-29.14 2860.31,-28.63"/>
<polygon fill="#63b8ff" stroke="#63b8ff" points="2119.02,-70.95 2109.04,-74.51 2119.07,-77.95 2119.02,-70.95"/>
</a>
</g>
</g>
<!-- Node22 -->
<g id="Node000022" class="node">
<title>Node22</title>
<g id="a_Node000022"><a xlink:href="timer__impl_8h.html" target="_top" xlink:title=" ">
<polygon fill="white" stroke="#666666" points="3094.5,-30 2986.5,-30 2986.5,0 3094.5,0 3094.5,-30"/>
<text text-anchor="start" x="2994.5" y="-18" font-family="Helvetica,sans-Serif" font-size="10.00">hal_platform/timer</text>
<text text-anchor="middle" x="3040.5" y="-7" font-family="Helvetica,sans-Serif" font-size="10.00">_impl.h</text>
</a>
</g>
</g>
<!-- Node1&#45;&gt;Node22 -->
<g id="edge21_Node000001_Node000022" class="edge">
<title>Node1&#45;&gt;Node22</title>
<g id="a_edge21_Node000001_Node000022"><a xlink:title=" ">
<path fill="none" stroke="#63b8ff" d="M2119.43,-75.27C2279.06,-75.91 2660.84,-72.41 2977.5,-30 2980.39,-29.61 2983.34,-29.16 2986.31,-28.66"/>
<polygon fill="#63b8ff" stroke="#63b8ff" points="2119.26,-71.76 2109.24,-75.22 2119.22,-78.76 2119.26,-71.76"/>
</a>
</g>
</g>
<!-- Node23 -->
<g id="Node000023" class="node">
<title>Node23</title>
<g id="a_Node000023"><a xlink:href="uart__handlers_8h.html" target="_top" xlink:title=" ">
<polygon fill="white" stroke="#666666" points="3270.5,-24.5 3112.5,-24.5 3112.5,-5.5 3270.5,-5.5 3270.5,-24.5"/>
<text text-anchor="middle" x="3191.5" y="-12.5" font-family="Helvetica,sans-Serif" font-size="10.00">hal_platform/uart_handlers.h</text>
</a>
</g>
</g>
<!-- Node1&#45;&gt;Node23 -->
<g id="edge22_Node000001_Node000023" class="edge">
<title>Node1&#45;&gt;Node23</title>
<g id="a_edge22_Node000001_Node000023"><a xlink:title=" ">
<path fill="none" stroke="#63b8ff" d="M2119.21,-74.33C2293.39,-73.27 2735.8,-66.84 3103.5,-30 3116.74,-28.67 3131.01,-26.66 3144.13,-24.57"/>
<polygon fill="#63b8ff" stroke="#63b8ff" points="2119.11,-70.83 2109.13,-74.38 2119.15,-77.83 2119.11,-70.83"/>
</a>
</g>
</g>
<!-- Node24 -->
<g id="Node000024" class="node">
<title>Node24</title>
<g id="a_Node000024"><a xlink:href="uart__impl_8h.html" target="_top" xlink:title=" ">
<polygon fill="white" stroke="#666666" points="3426,-24.5 3289,-24.5 3289,-5.5 3426,-5.5 3426,-24.5"/>
<text text-anchor="middle" x="3357.5" y="-12.5" font-family="Helvetica,sans-Serif" font-size="10.00">hal_platform/uart_impl.h</text>
</a>
</g>
</g>
<!-- Node1&#45;&gt;Node24 -->
<g id="edge23_Node000001_Node000024" class="edge">
<title>Node1&#45;&gt;Node24</title>
<g id="a_edge23_Node000001_Node000024"><a xlink:title=" ">
<path fill="none" stroke="#63b8ff" d="M2119.3,-73.18C2351.8,-68.9 3052.82,-54.3 3279.5,-30 3291.54,-28.71 3304.52,-26.65 3316.37,-24.51"/>
<polygon fill="#63b8ff" stroke="#63b8ff" points="2119.18,-69.68 2109.24,-73.36 2119.31,-76.68 2119.18,-69.68"/>
</a>
</g>
</g>
<!-- Node25 -->
<g id="Node000025" class="node">
<title>Node25</title>
<g id="a_Node000025"><a xlink:href="uc__map__impl_8h.html" target="_top" xlink:title=" ">
<polygon fill="white" stroke="#666666" points="3564.5,-30 3444.5,-30 3444.5,0 3564.5,0 3564.5,-30"/>
<text text-anchor="start" x="3452.5" y="-18" font-family="Helvetica,sans-Serif" font-size="10.00">hal_platform/uc_map</text>
<text text-anchor="middle" x="3504.5" y="-7" font-family="Helvetica,sans-Serif" font-size="10.00">_impl.h</text>
</a>
</g>
</g>
<!-- Node1&#45;&gt;Node25 -->
<g id="edge24_Node000001_Node000025" class="edge">
<title>Node1&#45;&gt;Node25</title>
<g id="a_edge24_Node000001_Node000025"><a xlink:title=" ">
<path fill="none" stroke="#63b8ff" d="M2119.24,-73.76C2370.83,-71.03 3177.3,-60.1 3435.5,-30 3438.41,-29.66 3441.39,-29.26 3444.38,-28.82"/>
<polygon fill="#63b8ff" stroke="#63b8ff" points="2119.07,-70.26 2109.1,-73.87 2119.14,-77.26 2119.07,-70.26"/>
</a>
</g>
</g>
<!-- Node26 -->
<g id="Node000026" class="node">
<title>Node26</title>
<g id="a_Node000026"><a xlink:href="usb__handlers_8h.html" target="_top" xlink:title=" ">
<polygon fill="white" stroke="#666666" points="3738,-24.5 3583,-24.5 3583,-5.5 3738,-5.5 3738,-24.5"/>
<text text-anchor="middle" x="3660.5" y="-12.5" font-family="Helvetica,sans-Serif" font-size="10.00">hal_platform/usb_handlers.h</text>
</a>
</g>
</g>
<!-- Node1&#45;&gt;Node26 -->
<g id="edge25_Node000001_Node000026" class="edge">
<title>Node1&#45;&gt;Node26</title>
<g id="a_edge25_Node000001_Node000026"><a xlink:title=" ">
<path fill="none" stroke="#63b8ff" d="M2119.37,-73.61C2387.03,-70.24 3286.51,-57.15 3573.5,-30 3586.9,-28.73 3601.37,-26.68 3614.59,-24.54"/>
<polygon fill="#63b8ff" stroke="#63b8ff" points="2119.32,-70.11 2109.36,-73.73 2119.4,-77.1 2119.32,-70.11"/>
</a>
</g>
</g>
<!-- Node27 -->
<g id="Node000027" class="node">
<title>Node27</title>
<g id="a_Node000027"><a xlink:href="usb__impl_8h.html" target="_top" xlink:title=" ">
<polygon fill="white" stroke="#666666" points="3891,-24.5 3756,-24.5 3756,-5.5 3891,-5.5 3891,-24.5"/>
<text text-anchor="middle" x="3823.5" y="-12.5" font-family="Helvetica,sans-Serif" font-size="10.00">hal_platform/usb_impl.h</text>
</a>
</g>
</g>
<!-- Node1&#45;&gt;Node27 -->
<g id="edge26_Node000001_Node000027" class="edge">
<title>Node1&#45;&gt;Node27</title>
<g id="a_edge26_Node000001_Node000027"><a xlink:title=" ">
<path fill="none" stroke="#63b8ff" d="M2119.63,-74.09C2406.9,-72.31 3425.14,-63.69 3747.5,-30 3759.38,-28.76 3772.18,-26.69 3783.83,-24.52"/>
<polygon fill="#63b8ff" stroke="#63b8ff" points="2119.3,-70.59 2109.32,-74.16 2119.34,-77.59 2119.3,-70.59"/>
</a>
</g>
</g>
<!-- Node28 -->
<g id="Node000028" class="node">
<title>Node28</title>
<g id="a_Node000028"><a xlink:href="usbcdc__impl_8h.html" target="_top" xlink:title=" ">
<polygon fill="white" stroke="#666666" points="4025.5,-30 3909.5,-30 3909.5,0 4025.5,0 4025.5,-30"/>
<text text-anchor="start" x="3917.5" y="-18" font-family="Helvetica,sans-Serif" font-size="10.00">hal_platform/usbcdc</text>
<text text-anchor="middle" x="3967.5" y="-7" font-family="Helvetica,sans-Serif" font-size="10.00">_impl.h</text>
</a>
</g>
</g>
<!-- Node1&#45;&gt;Node28 -->
<g id="edge27_Node000001_Node000028" class="edge">
<title>Node1&#45;&gt;Node28</title>
<g id="a_edge27_Node000001_Node000028"><a xlink:title=" ">
<path fill="none" stroke="#63b8ff" d="M2119.35,-74.52C2422.39,-74.33 3546.92,-70.83 3900.5,-30 3903.33,-29.67 3906.22,-29.28 3909.14,-28.85"/>
<polygon fill="#63b8ff" stroke="#63b8ff" points="2119.34,-71.02 2109.34,-74.53 2119.34,-78.02 2119.34,-71.02"/>
</a>
</g>
</g>
</g>
</svg>

<g id="navigator" transform="translate(0 0)" fill="#404254">
  <rect fill="#f2f5e9" fill-opacity="0.5" stroke="#606060" stroke-width=".5" x="0" y="0" width="60" height="60"/>
  <use id="zoomplus" xlink:href="#zoomPlus" x="17" y="9" onmousedown="handleZoom(evt,'in')"/>
  <use id="zoomminus" xlink:href="#zoomMin" x="42" y="9" onmousedown="handleZoom(evt,'out')"/>
  <use id="reset" xlink:href="#resetDef" x="30" y="36" onmousedown="handleReset()"/>
   <use id="arrowup" xlink:href="#arrowUp" x="0" y="0" onmousedown="handlePan(0,-1)"/>
  <use id="arrowright" xlink:href="#arrowRight" x="0" y="0" onmousedown="handlePan(1,0)"/>
  <use id="arrowdown" xlink:href="#arrowDown" x="0" y="0" onmousedown="handlePan(0,1)"/>
  <use id="arrowleft" xlink:href="#arrowLeft" x="0" y="0" onmousedown="handlePan(-1,0)"/>
</g>
<svg viewBox="0 0 15 15" width="100%" height="30px" preserveAspectRatio="xMaxYMin meet">
 <g id="arrow_out" transform="scale(0.3 0.3)">
  <a xlink:href="families_8h__dep__incl_org.svg" target="_base">
   <rect id="button" ry="5" rx="5" y="6" x="6" height="38" width="38"
        fill="#f2f5e9" fill-opacity="0.5" stroke="#606060" stroke-width="1.0"/>
   <path id="arrow"
     d="M 11.500037,31.436501 C 11.940474,20.09759 22.043105,11.32322 32.158766,21.979434 L 37.068811,17.246167 C 37.068811,17.246167 37.088388,32 37.088388,32 L 22.160133,31.978069 C 22.160133,31.978069 26.997745,27.140456 26.997745,27.140456 C 18.528582,18.264221 13.291696,25.230495 11.500037,31.436501 z"
     style="fill:#404040;"/>
  </a>
 </g>
</svg>

<style type='text/css'>
<![CDATA[
[data-mouse-over-selected='false'] { opacity: 0.7; }
[data-mouse-over-selected='true']  { opacity: 1.0; }
]]>
</style>
<script type="application/ecmascript"><![CDATA[
document.addEventListener('DOMContentLoaded', (event) => {
  highlightEdges();
  highlightAdjacentNodes();
});
]]></script>
</svg>
