<?xml version="1.0" encoding="UTF-8" standalone="no"?>
<!DOCTYPE svg PUBLIC "-//W3C//DTD SVG 1.1//EN"
 "http://www.w3.org/Graphics/SVG/1.1/DTD/svg11.dtd">
<!-- Generated by graphviz version 2.43.0 (0)
 -->
<!-- Title: hal_platform/families.h Pages: 1 -->
<svg width="3901pt" height="93pt"
 viewBox="0.00 0.00 3900.50 93.00" xmlns="http://www.w3.org/2000/svg" xmlns:xlink="http://www.w3.org/1999/xlink">
<g id="graph0" class="graph" transform="scale(1 1) rotate(0) translate(4 89)">
<title>hal_platform/families.h</title>
<!-- Node1 -->
<g id="Node000001" class="node">
<title>Node1</title>
<g id="a_Node000001"><a xlink:title=" ">
<polygon fill="#999999" stroke="#666666" points="2026,-85 1895,-85 1895,-66 2026,-66 2026,-85"/>
<text text-anchor="middle" x="1960.5" y="-73" font-family="Helvetica,sans-Serif" font-size="10.00">hal_platform/families.h</text>
</a>
</g>
</g>
<!-- Node2 -->
<g id="Node000002" class="node">
<title>Node2</title>
<g id="a_Node000002"><a xlink:href="adc__handlers_8h.html" target="_top" xlink:title=" ">
<polygon fill="white" stroke="#666666" points="155,-24.5 0,-24.5 0,-5.5 155,-5.5 155,-24.5"/>
<text text-anchor="middle" x="77.5" y="-12.5" font-family="Helvetica,sans-Serif" font-size="10.00">hal_platform/adc_handlers.h</text>
</a>
</g>
</g>
<!-- Node1&#45;&gt;Node2 -->
<g id="edge1_Node000001_Node000002" class="edge">
<title>Node1&#45;&gt;Node2</title>
<g id="a_edge1_Node000001_Node000002"><a xlink:title=" ">
<path fill="none" stroke="#63b8ff" d="M1884.73,-74C1588.13,-71.85 505.51,-61.92 163.5,-30 150.1,-28.75 135.62,-26.68 122.43,-24.5"/>
<polygon fill="#63b8ff" stroke="#63b8ff" points="1884.92,-77.51 1894.95,-74.08 1884.97,-70.51 1884.92,-77.51"/>
</a>
</g>
</g>
<!-- Node3 -->
<g id="Node000003" class="node">
<title>Node3</title>
<g id="a_Node000003"><a xlink:href="adc__impl_8h.html" target="_top" xlink:title=" ">
<polygon fill="white" stroke="#666666" points="308,-24.5 173,-24.5 173,-5.5 308,-5.5 308,-24.5"/>
<text text-anchor="middle" x="240.5" y="-12.5" font-family="Helvetica,sans-Serif" font-size="10.00">hal_platform/adc_impl.h</text>
</a>
</g>
</g>
<!-- Node1&#45;&gt;Node3 -->
<g id="edge2_Node000001_Node000003" class="edge">
<title>Node1&#45;&gt;Node3</title>
<g id="a_edge2_Node000001_Node000003"><a xlink:title=" ">
<path fill="none" stroke="#63b8ff" d="M1884.69,-74.01C1604.36,-71.95 626.62,-62.56 316.5,-30 304.62,-28.75 291.82,-26.68 280.17,-24.51"/>
<polygon fill="#63b8ff" stroke="#63b8ff" points="1884.74,-77.51 1894.76,-74.08 1884.79,-70.51 1884.74,-77.51"/>
</a>
</g>
</g>
<!-- Node4 -->
<g id="Node000004" class="node">
<title>Node4</title>
<g id="a_Node000004"><a xlink:href="core__handlers_8h.html" target="_top" xlink:title=" ">
<polygon fill="white" stroke="#666666" points="485,-24.5 326,-24.5 326,-5.5 485,-5.5 485,-24.5"/>
<text text-anchor="middle" x="405.5" y="-12.5" font-family="Helvetica,sans-Serif" font-size="10.00">hal_platform/core_handlers.h</text>
</a>
</g>
</g>
<!-- Node1&#45;&gt;Node4 -->
<g id="edge3_Node000001_Node000004" class="edge">
<title>Node1&#45;&gt;Node4</title>
<g id="a_edge3_Node000001_Node000004"><a xlink:title=" ">
<path fill="none" stroke="#63b8ff" d="M1884.72,-73.48C1624.39,-69.77 767.62,-55.86 493.5,-30 479.95,-28.72 465.31,-26.67 451.94,-24.52"/>
<polygon fill="#63b8ff" stroke="#63b8ff" points="1884.78,-76.98 1894.83,-73.62 1884.88,-69.98 1884.78,-76.98"/>
</a>
</g>
</g>
<!-- Node5 -->
<g id="Node000005" class="node">
<title>Node5</title>
<g id="a_Node000005"><a xlink:href="core__impl_8h.html" target="_top" xlink:title=" ">
<polygon fill="white" stroke="#666666" points="642,-24.5 503,-24.5 503,-5.5 642,-5.5 642,-24.5"/>
<text text-anchor="middle" x="572.5" y="-12.5" font-family="Helvetica,sans-Serif" font-size="10.00">hal_platform/core_impl.h</text>
</a>
</g>
</g>
<!-- Node1&#45;&gt;Node5 -->
<g id="edge4_Node000001_Node000005" class="edge">
<title>Node1&#45;&gt;Node5</title>
<g id="a_edge4_Node000001_Node000005"><a xlink:title=" ">
<path fill="none" stroke="#63b8ff" d="M1884.76,-73.36C1643.12,-69.49 892.27,-55.67 650.5,-30 638.46,-28.72 625.48,-26.67 613.63,-24.52"/>
<polygon fill="#63b8ff" stroke="#63b8ff" points="1884.8,-76.86 1894.85,-73.52 1884.91,-69.86 1884.8,-76.86"/>
</a>
</g>
</g>
<!-- Node6 -->
<g id="Node000006" class="node">
<title>Node6</title>
<g id="a_Node000006"><a xlink:href="crypto__handlers_8h.html" target="_top" xlink:title=" ">
<polygon fill="white" stroke="#666666" points="773,-30 660,-30 660,0 773,0 773,-30"/>
<text text-anchor="start" x="668" y="-18" font-family="Helvetica,sans-Serif" font-size="10.00">hal_platform/crypto</text>
<text text-anchor="middle" x="716.5" y="-7" font-family="Helvetica,sans-Serif" font-size="10.00">_handlers.h</text>
</a>
</g>
</g>
<!-- Node1&#45;&gt;Node6 -->
<g id="edge5_Node000001_Node000006" class="edge">
<title>Node1&#45;&gt;Node6</title>
<g id="a_edge5_Node000001_Node000006"><a xlink:title=" ">
<path fill="none" stroke="#63b8ff" d="M1884.71,-73.37C1659.41,-69.73 996.17,-56.96 781.5,-30 778.75,-29.65 775.95,-29.25 773.12,-28.8"/>
<polygon fill="#63b8ff" stroke="#63b8ff" points="1884.72,-76.87 1894.78,-73.53 1884.84,-69.87 1884.72,-76.87"/>
</a>
</g>
</g>
<!-- Node7 -->
<g id="Node000007" class="node">
<title>Node7</title>
<g id="a_Node000007"><a xlink:href="crypto__impl_8h.html" target="_top" xlink:title=" ">
<polygon fill="white" stroke="#666666" points="904,-30 791,-30 791,0 904,0 904,-30"/>
<text text-anchor="start" x="799" y="-18" font-family="Helvetica,sans-Serif" font-size="10.00">hal_platform/crypto</text>
<text text-anchor="middle" x="847.5" y="-7" font-family="Helvetica,sans-Serif" font-size="10.00">_impl.h</text>
</a>
</g>
</g>
<!-- Node1&#45;&gt;Node7 -->
<g id="edge6_Node000001_Node000007" class="edge">
<title>Node1&#45;&gt;Node7</title>
<g id="a_edge6_Node000001_Node000007"><a xlink:title=" ">
<path fill="none" stroke="#63b8ff" d="M1884.75,-72.92C1677.05,-68.33 1101.54,-53.77 913.5,-30 910.48,-29.62 907.39,-29.17 904.28,-28.67"/>
<polygon fill="#63b8ff" stroke="#63b8ff" points="1884.87,-76.42 1894.95,-73.14 1885.03,-69.43 1884.87,-76.42"/>
</a>
</g>
</g>
<!-- Node8 -->
<g id="Node000008" class="node">
<title>Node8</title>
<g id="a_Node000008"><a xlink:href="dma__handlers_8h.html" target="_top" xlink:title=" ">
<polygon fill="white" stroke="#666666" points="1082.5,-24.5 922.5,-24.5 922.5,-5.5 1082.5,-5.5 1082.5,-24.5"/>
<text text-anchor="middle" x="1002.5" y="-12.5" font-family="Helvetica,sans-Serif" font-size="10.00">hal_platform/dma_handlers.h</text>
</a>
</g>
</g>
<!-- Node1&#45;&gt;Node8 -->
<g id="edge7_Node000001_Node000008" class="edge">
<title>Node1&#45;&gt;Node8</title>
<g id="a_edge7_Node000001_Node000008"><a xlink:title=" ">
<path fill="none" stroke="#63b8ff" d="M1884.81,-73.29C1733.65,-70.29 1383.79,-60.39 1091.5,-30 1078.28,-28.63 1064.02,-26.62 1050.88,-24.55"/>
<polygon fill="#63b8ff" stroke="#63b8ff" points="1884.85,-76.79 1894.91,-73.49 1884.98,-69.79 1884.85,-76.79"/>
</a>
</g>
</g>
<!-- Node9 -->
<g id="Node000009" class="node">
<title>Node9</title>
<g id="a_Node000009"><a xlink:href="dma__impl_8h.html" target="_top" xlink:title=" ">
<polygon fill="white" stroke="#666666" points="1240.5,-24.5 1100.5,-24.5 1100.5,-5.5 1240.5,-5.5 1240.5,-24.5"/>
<text text-anchor="middle" x="1170.5" y="-12.5" font-family="Helvetica,sans-Serif" font-size="10.00">hal_platform/dma_impl.h</text>
</a>
</g>
</g>
<!-- Node1&#45;&gt;Node9 -->
<g id="edge8_Node000001_Node000009" class="edge">
<title>Node1&#45;&gt;Node9</title>
<g id="a_edge8_Node000001_Node000009"><a xlink:title=" ">
<path fill="none" stroke="#63b8ff" d="M1884.32,-72.55C1753.91,-68.59 1479.67,-57.51 1249.5,-30 1237.74,-28.59 1225.09,-26.58 1213.42,-24.51"/>
<polygon fill="#63b8ff" stroke="#63b8ff" points="1884.5,-76.06 1894.6,-72.86 1884.71,-69.06 1884.5,-76.06"/>
</a>
</g>
</g>
<!-- Node10 -->
<g id="Node000010" class="node">
<title>Node10</title>
<g id="a_Node000010"><a xlink:href="eeprom__impl_8h.html" target="_top" xlink:title=" ">
<polygon fill="white" stroke="#666666" points="1378,-30 1259,-30 1259,0 1378,0 1378,-30"/>
<text text-anchor="start" x="1267" y="-18" font-family="Helvetica,sans-Serif" font-size="10.00">hal_platform/eeprom</text>
<text text-anchor="middle" x="1318.5" y="-7" font-family="Helvetica,sans-Serif" font-size="10.00">_impl.h</text>
</a>
</g>
</g>
<!-- Node1&#45;&gt;Node10 -->
<g id="edge9_Node000001_Node000010" class="edge">
<title>Node1&#45;&gt;Node10</title>
<g id="a_edge9_Node000001_Node000010"><a xlink:title=" ">
<path fill="none" stroke="#63b8ff" d="M1884.77,-71.66C1774.64,-66.85 1564.05,-55.06 1386.5,-30 1383.75,-29.61 1380.95,-29.18 1378.13,-28.72"/>
<polygon fill="#63b8ff" stroke="#63b8ff" points="1884.64,-75.16 1894.79,-72.09 1884.95,-68.17 1884.64,-75.16"/>
</a>
</g>
</g>
<!-- Node11 -->
<g id="Node000011" class="node">
<title>Node11</title>
<g id="a_Node000011"><a xlink:href="entropy__handlers_8h.html" target="_top" xlink:title=" ">
<polygon fill="white" stroke="#666666" points="1515,-30 1396,-30 1396,0 1515,0 1515,-30"/>
<text text-anchor="start" x="1404" y="-18" font-family="Helvetica,sans-Serif" font-size="10.00">hal_platform/entropy</text>
<text text-anchor="middle" x="1455.5" y="-7" font-family="Helvetica,sans-Serif" font-size="10.00">_handlers.h</text>
</a>
</g>
</g>
<!-- Node1&#45;&gt;Node11 -->
<g id="edge10_Node000001_Node000011" class="edge">
<title>Node1&#45;&gt;Node11</title>
<g id="a_edge10_Node000001_Node000011"><a xlink:title=" ">
<path fill="none" stroke="#63b8ff" d="M1884.62,-69.12C1797.23,-62.39 1649.48,-49.33 1523.5,-30 1520.76,-29.58 1517.96,-29.12 1515.14,-28.64"/>
<polygon fill="#63b8ff" stroke="#63b8ff" points="1884.48,-72.62 1894.72,-69.89 1885.01,-65.64 1884.48,-72.62"/>
</a>
</g>
</g>
<!-- Node12 -->
<g id="Node000012" class="node">
<title>Node12</title>
<g id="a_Node000012"><a xlink:href="entropy__impl_8h.html" target="_top" xlink:title=" ">
<polygon fill="white" stroke="#666666" points="1652,-30 1533,-30 1533,0 1652,0 1652,-30"/>
<text text-anchor="start" x="1541" y="-18" font-family="Helvetica,sans-Serif" font-size="10.00">hal_platform/entropy</text>
<text text-anchor="middle" x="1592.5" y="-7" font-family="Helvetica,sans-Serif" font-size="10.00">_impl.h</text>
</a>
</g>
</g>
<!-- Node1&#45;&gt;Node12 -->
<g id="edge11_Node000001_Node000012" class="edge">
<title>Node1&#45;&gt;Node12</title>
<g id="a_edge11_Node000001_Node000012"><a xlink:title=" ">
<path fill="none" stroke="#63b8ff" d="M1886.24,-64.55C1825.63,-56.17 1737.85,-43.42 1661.5,-30 1658.49,-29.47 1655.41,-28.91 1652.3,-28.33"/>
<polygon fill="#63b8ff" stroke="#63b8ff" points="1886.09,-68.06 1896.48,-65.96 1887.05,-61.13 1886.09,-68.06"/>
</a>
</g>
</g>
<!-- Node13 -->
<g id="Node000013" class="node">
<title>Node13</title>
<g id="a_Node000013"><a xlink:href="exti_8h.html" target="_top" xlink:title=" ">
<polygon fill="white" stroke="#666666" points="1780.5,-24.5 1670.5,-24.5 1670.5,-5.5 1780.5,-5.5 1780.5,-24.5"/>
<text text-anchor="middle" x="1725.5" y="-12.5" font-family="Helvetica,sans-Serif" font-size="10.00">hal_platform/exti.h</text>
</a>
</g>
</g>
<!-- Node1&#45;&gt;Node13 -->
<g id="edge12_Node000001_Node000013" class="edge">
<title>Node1&#45;&gt;Node13</title>
<g id="a_edge12_Node000001_Node000013"><a xlink:title=" ">
<path fill="none" stroke="#63b8ff" d="M1916.47,-63.54C1871.04,-52.23 1801.15,-34.83 1759.71,-24.52"/>
<polygon fill="#63b8ff" stroke="#63b8ff" points="1915.78,-66.97 1926.33,-65.99 1917.47,-60.18 1915.78,-66.97"/>
</a>
</g>
</g>
<!-- Node14 -->
<g id="Node000014" class="node">
<title>Node14</title>
<g id="a_Node000014"><a xlink:href="exti__handlers_8h.html" target="_top" xlink:title=" ">
<polygon fill="white" stroke="#666666" points="1956,-24.5 1799,-24.5 1799,-5.5 1956,-5.5 1956,-24.5"/>
<text text-anchor="middle" x="1877.5" y="-12.5" font-family="Helvetica,sans-Serif" font-size="10.00">hal_platform/exti_handlers.h</text>
</a>
</g>
</g>
<!-- Node1&#45;&gt;Node14 -->
<g id="edge13_Node000001_Node000014" class="edge">
<title>Node1&#45;&gt;Node14</title>
<g id="a_edge13_Node000001_Node000014"><a xlink:title=" ">
<path fill="none" stroke="#63b8ff" d="M1939.71,-59.85C1923.99,-48.77 1902.94,-33.93 1889.8,-24.67"/>
<polygon fill="#63b8ff" stroke="#63b8ff" points="1938.06,-62.97 1948.25,-65.87 1942.1,-57.25 1938.06,-62.97"/>
</a>
</g>
</g>
<!-- Node15 -->
<g id="Node000015" class="node">
<title>Node15</title>
<g id="a_Node000015"><a xlink:href="gpio__impl_8h.html" target="_top" xlink:title=" ">
<polygon fill="white" stroke="#666666" points="2113,-24.5 1974,-24.5 1974,-5.5 2113,-5.5 2113,-24.5"/>
<text text-anchor="middle" x="2043.5" y="-12.5" font-family="Helvetica,sans-Serif" font-size="10.00">hal_platform/gpio_impl.h</text>
</a>
</g>
</g>
<!-- Node1&#45;&gt;Node15 -->
<g id="edge14_Node000001_Node000015" class="edge">
<title>Node1&#45;&gt;Node15</title>
<g id="a_edge14_Node000001_Node000015"><a xlink:title=" ">
<path fill="none" stroke="#63b8ff" d="M1981.29,-59.85C1997.01,-48.77 2018.06,-33.93 2031.2,-24.67"/>
<polygon fill="#63b8ff" stroke="#63b8ff" points="1978.9,-57.25 1972.75,-65.87 1982.94,-62.97 1978.9,-57.25"/>
</a>
</g>
</g>
<!-- Node16 -->
<g id="Node000016" class="node">
<title>Node16</title>
<g id="a_Node000016"><a xlink:href="id__impl_8h.html" target="_top" xlink:title=" ">
<polygon fill="white" stroke="#666666" points="2258,-24.5 2131,-24.5 2131,-5.5 2258,-5.5 2258,-24.5"/>
<text text-anchor="middle" x="2194.5" y="-12.5" font-family="Helvetica,sans-Serif" font-size="10.00">hal_platform/id_impl.h</text>
</a>
</g>
</g>
<!-- Node1&#45;&gt;Node16 -->
<g id="edge15_Node000001_Node000016" class="edge">
<title>Node1&#45;&gt;Node16</title>
<g id="a_edge15_Node000001_Node000016"><a xlink:title=" ">
<path fill="none" stroke="#63b8ff" d="M2004.35,-63.54C2049.58,-52.23 2119.17,-34.83 2160.43,-24.52"/>
<polygon fill="#63b8ff" stroke="#63b8ff" points="2003.38,-60.17 1994.53,-65.99 2005.08,-66.96 2003.38,-60.17"/>
</a>
</g>
</g>
<!-- Node17 -->
<g id="Node000017" class="node">
<title>Node17</title>
<g id="a_Node000017"><a xlink:href="rtc__handlers_8h.html" target="_top" xlink:title=" ">
<polygon fill="white" stroke="#666666" points="2427,-24.5 2276,-24.5 2276,-5.5 2427,-5.5 2427,-24.5"/>
<text text-anchor="middle" x="2351.5" y="-12.5" font-family="Helvetica,sans-Serif" font-size="10.00">hal_platform/rtc_handlers.h</text>
</a>
</g>
</g>
<!-- Node1&#45;&gt;Node17 -->
<g id="edge16_Node000001_Node000017" class="edge">
<title>Node1&#45;&gt;Node17</title>
<g id="a_edge16_Node000001_Node000017"><a xlink:title=" ">
<path fill="none" stroke="#63b8ff" d="M2032.12,-64.56C2094.38,-55.81 2186.97,-42.55 2267.5,-30 2278.46,-28.29 2290.2,-26.38 2301.34,-24.54"/>
<polygon fill="#63b8ff" stroke="#63b8ff" points="2031.43,-61.12 2022.01,-65.98 2032.4,-68.05 2031.43,-61.12"/>
</a>
</g>
</g>
<!-- Node18 -->
<g id="Node000018" class="node">
<title>Node18</title>
<g id="a_Node000018"><a xlink:href="rtc__impl_8h.html" target="_top" xlink:title=" ">
<polygon fill="white" stroke="#666666" points="2576,-24.5 2445,-24.5 2445,-5.5 2576,-5.5 2576,-24.5"/>
<text text-anchor="middle" x="2510.5" y="-12.5" font-family="Helvetica,sans-Serif" font-size="10.00">hal_platform/rtc_impl.h</text>
</a>
</g>
</g>
<!-- Node1&#45;&gt;Node18 -->
<g id="edge17_Node000001_Node000018" class="edge">
<title>Node1&#45;&gt;Node18</title>
<g id="a_edge17_Node000001_Node000018"><a xlink:title=" ">
<path fill="none" stroke="#63b8ff" d="M2036.17,-69.62C2130.29,-63.06 2295.75,-49.85 2436.5,-30 2447.12,-28.5 2458.52,-26.53 2469.13,-24.54"/>
<polygon fill="#63b8ff" stroke="#63b8ff" points="2035.91,-66.13 2026.17,-70.32 2036.39,-73.12 2035.91,-66.13"/>
</a>
</g>
</g>
<!-- Node19 -->
<g id="Node000019" class="node">
<title>Node19</title>
<g id="a_Node000019"><a xlink:href="shared__handlers_8h.html" target="_top" xlink:title=" ">
<polygon fill="white" stroke="#666666" points="2709,-30 2594,-30 2594,0 2709,0 2709,-30"/>
<text text-anchor="start" x="2602" y="-18" font-family="Helvetica,sans-Serif" font-size="10.00">hal_platform/shared</text>
<text text-anchor="middle" x="2651.5" y="-7" font-family="Helvetica,sans-Serif" font-size="10.00">_handlers.h</text>
</a>
</g>
</g>
<!-- Node1&#45;&gt;Node19 -->
<g id="edge18_Node000001_Node000019" class="edge">
<title>Node1&#45;&gt;Node19</title>
<g id="a_edge18_Node000001_Node000019"><a xlink:title=" ">
<path fill="none" stroke="#63b8ff" d="M2036.05,-72.48C2153.91,-68.58 2388.47,-57.78 2585.5,-30 2588.28,-29.61 2591.13,-29.17 2593.99,-28.69"/>
<polygon fill="#63b8ff" stroke="#63b8ff" points="2035.93,-68.98 2026.05,-72.81 2036.15,-75.98 2035.93,-68.98"/>
</a>
</g>
</g>
<!-- Node20 -->
<g id="Node000020" class="node">
<title>Node20</title>
<g id="a_Node000020"><a xlink:href="timer__handlers_8h.html" target="_top" xlink:title=" ">
<polygon fill="white" stroke="#666666" points="2835.5,-30 2727.5,-30 2727.5,0 2835.5,0 2835.5,-30"/>
<text text-anchor="start" x="2735.5" y="-18" font-family="Helvetica,sans-Serif" font-size="10.00">hal_platform/timer</text>
<text text-anchor="middle" x="2781.5" y="-7" font-family="Helvetica,sans-Serif" font-size="10.00">_handlers.h</text>
</a>
</g>
</g>
<!-- Node1&#45;&gt;Node20 -->
<g id="edge19_Node000001_Node000020" class="edge">
<title>Node1&#45;&gt;Node20</title>
<g id="a_edge19_Node000001_Node000020"><a xlink:title=" ">
<path fill="none" stroke="#63b8ff" d="M2036.63,-74.05C2173.66,-72.35 2470.69,-64.58 2718.5,-30 2721.39,-29.6 2724.33,-29.13 2727.3,-28.62"/>
<polygon fill="#63b8ff" stroke="#63b8ff" points="2036.2,-70.55 2026.24,-74.17 2036.29,-77.55 2036.2,-70.55"/>
</a>
</g>
</g>
<!-- Node21 -->
<g id="Node000021" class="node">
<title>Node21</title>
<g id="a_Node000021"><a xlink:href="timer__impl_8h.html" target="_top" xlink:title=" ">
<polygon fill="white" stroke="#666666" points="2961.5,-30 2853.5,-30 2853.5,0 2961.5,0 2961.5,-30"/>
<text text-anchor="start" x="2861.5" y="-18" font-family="Helvetica,sans-Serif" font-size="10.00">hal_platform/timer</text>
<text text-anchor="middle" x="2907.5" y="-7" font-family="Helvetica,sans-Serif" font-size="10.00">_impl.h</text>
</a>
</g>
</g>
<!-- Node1&#45;&gt;Node21 -->
<g id="edge20_Node000001_Node000021" class="edge">
<title>Node1&#45;&gt;Node21</title>
<g id="a_edge20_Node000001_Node000021"><a xlink:title=" ">
<path fill="none" stroke="#63b8ff" d="M2036.24,-74.97C2189.56,-74.97 2547.34,-70.21 2844.5,-30 2847.39,-29.61 2850.34,-29.15 2853.31,-28.65"/>
<polygon fill="#63b8ff" stroke="#63b8ff" points="2036,-71.47 2026,-74.96 2036,-78.47 2036,-71.47"/>
</a>
</g>
</g>
<!-- Node22 -->
<g id="Node000022" class="node">
<title>Node22</title>
<g id="a_Node000022"><a xlink:href="uart__handlers_8h.html" target="_top" xlink:title=" ">
<polygon fill="white" stroke="#666666" points="3137.5,-24.5 2979.5,-24.5 2979.5,-5.5 3137.5,-5.5 3137.5,-24.5"/>
<text text-anchor="middle" x="3058.5" y="-12.5" font-family="Helvetica,sans-Serif" font-size="10.00">hal_platform/uart_handlers.h</text>
</a>
</g>
</g>
<!-- Node1&#45;&gt;Node22 -->
<g id="edge21_Node000001_Node000022" class="edge">
<title>Node1&#45;&gt;Node22</title>
<g id="a_edge21_Node000001_Node000022"><a xlink:title=" ">
<path fill="none" stroke="#63b8ff" d="M2036.27,-74.1C2204.69,-72.57 2622.68,-65.21 2970.5,-30 2983.74,-28.66 2998.01,-26.64 3011.13,-24.55"/>
<polygon fill="#63b8ff" stroke="#63b8ff" points="2036.24,-70.6 2026.27,-74.19 2036.3,-77.6 2036.24,-70.6"/>
</a>
</g>
</g>
<!-- Node23 -->
<g id="Node000023" class="node">
<title>Node23</title>
<g id="a_Node000023"><a xlink:href="uart__impl_8h.html" target="_top" xlink:title=" ">
<polygon fill="white" stroke="#666666" points="3293,-24.5 3156,-24.5 3156,-5.5 3293,-5.5 3293,-24.5"/>
<text text-anchor="middle" x="3224.5" y="-12.5" font-family="Helvetica,sans-Serif" font-size="10.00">hal_platform/uart_impl.h</text>
</a>
</g>
</g>
<!-- Node1&#45;&gt;Node23 -->
<g id="edge22_Node000001_Node000023" class="edge">
<title>Node1&#45;&gt;Node23</title>
<g id="a_edge22_Node000001_Node000023"><a xlink:title=" ">
<path fill="none" stroke="#63b8ff" d="M2036.31,-73.05C2262.45,-68.49 2929.99,-53.38 3146.5,-30 3158.4,-28.72 3171.22,-26.69 3182.96,-24.57"/>
<polygon fill="#63b8ff" stroke="#63b8ff" points="2036.13,-69.55 2026.2,-73.25 2036.27,-76.55 2036.13,-69.55"/>
</a>
</g>
</g>
<!-- Node24 -->
<g id="Node000024" class="node">
<title>Node24</title>
<g id="a_Node000024"><a xlink:href="uc__map__impl_8h.html" target="_top" xlink:title=" ">
<polygon fill="white" stroke="#666666" points="3431.5,-30 3311.5,-30 3311.5,0 3431.5,0 3431.5,-30"/>
<text text-anchor="start" x="3319.5" y="-18" font-family="Helvetica,sans-Serif" font-size="10.00">hal_platform/uc_map</text>
<text text-anchor="middle" x="3371.5" y="-7" font-family="Helvetica,sans-Serif" font-size="10.00">_impl.h</text>
</a>
</g>
</g>
<!-- Node1&#45;&gt;Node24 -->
<g id="edge23_Node000001_Node000024" class="edge">
<title>Node1&#45;&gt;Node24</title>
<g id="a_edge23_Node000001_Node000024"><a xlink:title=" ">
<path fill="none" stroke="#63b8ff" d="M2036.41,-73.65C2282.18,-70.64 3054.56,-59.06 3302.5,-30 3305.41,-29.66 3308.39,-29.26 3311.38,-28.81"/>
<polygon fill="#63b8ff" stroke="#63b8ff" points="2036.11,-70.15 2026.15,-73.78 2036.19,-77.15 2036.11,-70.15"/>
</a>
</g>
</g>
<!-- Node25 -->
<g id="Node000025" class="node">
<title>Node25</title>
<g id="a_Node000025"><a xlink:href="usb__handlers_8h.html" target="_top" xlink:title=" ">
<polygon fill="white" stroke="#666666" points="3605,-24.5 3450,-24.5 3450,-5.5 3605,-5.5 3605,-24.5"/>
<text text-anchor="middle" x="3527.5" y="-12.5" font-family="Helvetica,sans-Serif" font-size="10.00">hal_platform/usb_handlers.h</text>
</a>
</g>
</g>
<!-- Node1&#45;&gt;Node25 -->
<g id="edge24_Node000001_Node000025" class="edge">
<title>Node1&#45;&gt;Node25</title>
<g id="a_edge24_Node000001_Node000025"><a xlink:title=" ">
<path fill="none" stroke="#63b8ff" d="M2036.5,-73.52C2298.61,-69.92 3163.82,-56.31 3440.5,-30 3453.9,-28.73 3468.37,-26.67 3481.59,-24.53"/>
<polygon fill="#63b8ff" stroke="#63b8ff" points="2036.28,-70.02 2026.32,-73.66 2036.37,-77.02 2036.28,-70.02"/>
</a>
</g>
</g>
<!-- Node26 -->
<g id="Node000026" class="node">
<title>Node26</title>
<g id="a_Node000026"><a xlink:href="usb__impl_8h.html" target="_top" xlink:title=" ">
<polygon fill="white" stroke="#666666" points="3758,-24.5 3623,-24.5 3623,-5.5 3758,-5.5 3758,-24.5"/>
<text text-anchor="middle" x="3690.5" y="-12.5" font-family="Helvetica,sans-Serif" font-size="10.00">hal_platform/usb_impl.h</text>
</a>
</g>
</g>
<!-- Node1&#45;&gt;Node26 -->
<g id="edge25_Node000001_Node000026" class="edge">
<title>Node1&#45;&gt;Node26</title>
<g id="a_edge25_Node000001_Node000026"><a xlink:title=" ">
<path fill="none" stroke="#63b8ff" d="M2036.29,-74.02C2317.7,-72.02 3302.31,-62.75 3614.5,-30 3626.38,-28.75 3639.18,-26.68 3650.83,-24.51"/>
<polygon fill="#63b8ff" stroke="#63b8ff" points="2036.16,-70.53 2026.19,-74.1 2036.21,-77.53 2036.16,-70.53"/>
</a>
</g>
</g>
<!-- Node27 -->
<g id="Node000027" class="node">
<title>Node27</title>
<g id="a_Node000027"><a xlink:href="usbcdc__impl_8h.html" target="_top" xlink:title=" ">
<polygon fill="white" stroke="#666666" points="3892.5,-30 3776.5,-30 3776.5,0 3892.5,0 3892.5,-30"/>
<text text-anchor="start" x="3784.5" y="-18" font-family="Helvetica,sans-Serif" font-size="10.00">hal_platform/usbcdc</text>
<text text-anchor="middle" x="3834.5" y="-7" font-family="Helvetica,sans-Serif" font-size="10.00">_impl.h</text>
</a>
</g>
</g>
<!-- Node1&#45;&gt;Node27 -->
<g id="edge26_Node000001_Node000027" class="edge">
<title>Node1&#45;&gt;Node27</title>
<g id="a_edge26_Node000001_Node000027"><a xlink:title=" ">
<path fill="none" stroke="#63b8ff" d="M2036.74,-74.46C2335.16,-74.04 3424.38,-69.74 3767.5,-30 3770.33,-29.67 3773.22,-29.28 3776.14,-28.85"/>
<polygon fill="#63b8ff" stroke="#63b8ff" points="2036.46,-70.96 2026.46,-74.48 2036.47,-77.96 2036.46,-70.96"/>
</a>
</g>
</g>
</g>
</svg>
