<?xml version="1.0" encoding="UTF-8" standalone="no"?>
<!DOCTYPE svg PUBLIC "-//W3C//DTD SVG 1.1//EN"
 "http://www.w3.org/Graphics/SVG/1.1/DTD/svg11.dtd">
<!-- Generated by graphviz version 2.43.0 (0)
 -->
<!-- Title: hal_platform/h7rsxx/usb_impl.h Pages: 1 -->
<svg width="389pt" height="173pt"
 viewBox="0.00 0.00 389.00 173.00" xmlns="http://www.w3.org/2000/svg" xmlns:xlink="http://www.w3.org/1999/xlink">
<g id="graph0" class="graph" transform="scale(1 1) rotate(0) translate(4 169)">
<title>hal_platform/h7rsxx/usb_impl.h</title>
<!-- Node1 -->
<g id="node1" class="node">
<title>Node1</title>
<g id="a_node1"><a xlink:title=" ">
<polygon fill="#bfbfbf" stroke="black" points="133,-134.5 133,-164.5 248,-164.5 248,-134.5 133,-134.5"/>
<text text-anchor="start" x="141" y="-152.5" font-family="Helvetica,sans-Serif" font-size="10.00">hal_platform/h7rsxx</text>
<text text-anchor="middle" x="190.5" y="-141.5" font-family="Helvetica,sans-Serif" font-size="10.00">/usb_impl.h</text>
</a>
</g>
</g>
<!-- Node2 -->
<g id="node2" class="node">
<title>Node2</title>
<g id="a_node2"><a xlink:href="h7rsxx_2usb__descriptors_8c.html" target="_top" xlink:title=" ">
<polygon fill="none" stroke="black" points="0,-67.5 0,-97.5 115,-97.5 115,-67.5 0,-67.5"/>
<text text-anchor="start" x="8" y="-85.5" font-family="Helvetica,sans-Serif" font-size="10.00">hal_platform/h7rsxx</text>
<text text-anchor="middle" x="57.5" y="-74.5" font-family="Helvetica,sans-Serif" font-size="10.00">/usb_descriptors.c</text>
</a>
</g>
</g>
<!-- Node1&#45;&gt;Node2 -->
<g id="edge1" class="edge">
<title>Node1&#45;&gt;Node2</title>
<path fill="none" stroke="midnightblue" d="M152.63,-129.99C131.55,-119.69 105.72,-107.07 86.3,-97.58"/>
<polygon fill="midnightblue" stroke="midnightblue" points="151.12,-133.15 161.64,-134.4 154.19,-126.86 151.12,-133.15"/>
</g>
<!-- Node3 -->
<g id="node3" class="node">
<title>Node3</title>
<g id="a_node3"><a xlink:href="h7rsxx_2usb__handlers_8h.html" target="_top" xlink:title=" ">
<polygon fill="none" stroke="black" points="133,-67.5 133,-97.5 248,-97.5 248,-67.5 133,-67.5"/>
<text text-anchor="start" x="141" y="-85.5" font-family="Helvetica,sans-Serif" font-size="10.00">hal_platform/h7rsxx</text>
<text text-anchor="middle" x="190.5" y="-74.5" font-family="Helvetica,sans-Serif" font-size="10.00">/usb_handlers.h</text>
</a>
</g>
</g>
<!-- Node1&#45;&gt;Node3 -->
<g id="edge2" class="edge">
<title>Node1&#45;&gt;Node3</title>
<path fill="none" stroke="midnightblue" d="M190.5,-124.11C190.5,-115.15 190.5,-105.32 190.5,-97.58"/>
<polygon fill="midnightblue" stroke="midnightblue" points="187,-124.4 190.5,-134.4 194,-124.4 187,-124.4"/>
</g>
<!-- Node5 -->
<g id="node5" class="node">
<title>Node5</title>
<g id="a_node5"><a xlink:href="h7rsxx_2usb__impl_8c.html" target="_top" xlink:title=" ">
<polygon fill="none" stroke="black" points="266,-67.5 266,-97.5 381,-97.5 381,-67.5 266,-67.5"/>
<text text-anchor="start" x="274" y="-85.5" font-family="Helvetica,sans-Serif" font-size="10.00">hal_platform/h7rsxx</text>
<text text-anchor="middle" x="323.5" y="-74.5" font-family="Helvetica,sans-Serif" font-size="10.00">/usb_impl.c</text>
</a>
</g>
</g>
<!-- Node1&#45;&gt;Node5 -->
<g id="edge4" class="edge">
<title>Node1&#45;&gt;Node5</title>
<path fill="none" stroke="midnightblue" d="M228.37,-129.99C249.45,-119.69 275.28,-107.07 294.7,-97.58"/>
<polygon fill="midnightblue" stroke="midnightblue" points="226.81,-126.86 219.36,-134.4 229.88,-133.15 226.81,-126.86"/>
</g>
<!-- Node4 -->
<g id="node4" class="node">
<title>Node4</title>
<g id="a_node4"><a xlink:href="h7rsxx_2usb__handlers_8c.html" target="_top" xlink:title=" ">
<polygon fill="none" stroke="black" points="133,-0.5 133,-30.5 248,-30.5 248,-0.5 133,-0.5"/>
<text text-anchor="start" x="141" y="-18.5" font-family="Helvetica,sans-Serif" font-size="10.00">hal_platform/h7rsxx</text>
<text text-anchor="middle" x="190.5" y="-7.5" font-family="Helvetica,sans-Serif" font-size="10.00">/usb_handlers.c</text>
</a>
</g>
</g>
<!-- Node3&#45;&gt;Node4 -->
<g id="edge3" class="edge">
<title>Node3&#45;&gt;Node4</title>
<path fill="none" stroke="midnightblue" d="M190.5,-57.11C190.5,-48.15 190.5,-38.32 190.5,-30.58"/>
<polygon fill="midnightblue" stroke="midnightblue" points="187,-57.4 190.5,-67.4 194,-57.4 187,-57.4"/>
</g>
</g>
</svg>
