<?xml version="1.0" encoding="UTF-8" standalone="no"?>
<!DOCTYPE svg PUBLIC "-//W3C//DTD SVG 1.1//EN"
 "http://www.w3.org/Graphics/SVG/1.1/DTD/svg11.dtd">
<!-- Generated by graphviz version 2.43.0 (0)
 -->
<!-- Title: hal_platform/h7rsxx/usbcdc_impl.h Pages: 1 -->
<svg width="166pt" height="95pt"
 viewBox="0.00 0.00 165.50 95.00" xmlns="http://www.w3.org/2000/svg" xmlns:xlink="http://www.w3.org/1999/xlink">
<g id="graph0" class="graph" transform="scale(1 1) rotate(0) translate(4 91)">
<title>hal_platform/h7rsxx/usbcdc_impl.h</title>
<!-- Node1 -->
<g id="node1" class="node">
<title>Node1</title>
<g id="a_node1"><a xlink:title=" ">
<polygon fill="#bfbfbf" stroke="black" points="32.5,-56.5 32.5,-86.5 147.5,-86.5 147.5,-56.5 32.5,-56.5"/>
<text text-anchor="start" x="40.5" y="-74.5" font-family="Helvetica,sans-Serif" font-size="10.00">hal_platform/h7rsxx</text>
<text text-anchor="middle" x="90" y="-63.5" font-family="Helvetica,sans-Serif" font-size="10.00">/usbcdc_impl.h</text>
</a>
</g>
</g>
<!-- Node2 -->
<g id="node2" class="node">
<title>Node2</title>
<g id="a_node2"><a xlink:title=" ">
<polygon fill="none" stroke="#bfbfbf" points="0,-0.5 0,-19.5 92,-19.5 92,-0.5 0,-0.5"/>
<text text-anchor="middle" x="46" y="-7.5" font-family="Helvetica,sans-Serif" font-size="10.00">hal/uc/usbcdc.h</text>
</a>
</g>
</g>
<!-- Node1&#45;&gt;Node2 -->
<g id="edge1" class="edge">
<title>Node1&#45;&gt;Node2</title>
<path fill="none" stroke="midnightblue" d="M79.57,-56.4C73.24,-47.84 65.13,-36.87 58.47,-27.86"/>
<polygon fill="midnightblue" stroke="midnightblue" points="61.16,-25.62 52.4,-19.66 55.53,-29.78 61.16,-25.62"/>
</g>
<!-- Node3 -->
<g id="node3" class="node">
<title>Node3</title>
<g id="a_node3"><a xlink:title=" ">
<polygon fill="none" stroke="#bfbfbf" points="110.5,-0.5 110.5,-19.5 157.5,-19.5 157.5,-0.5 110.5,-0.5"/>
<text text-anchor="middle" x="134" y="-7.5" font-family="Helvetica,sans-Serif" font-size="10.00">tusb.h</text>
</a>
</g>
</g>
<!-- Node1&#45;&gt;Node3 -->
<g id="edge2" class="edge">
<title>Node1&#45;&gt;Node3</title>
<path fill="none" stroke="midnightblue" d="M100.43,-56.4C106.76,-47.84 114.87,-36.87 121.53,-27.86"/>
<polygon fill="midnightblue" stroke="midnightblue" points="124.47,-29.78 127.6,-19.66 118.84,-25.62 124.47,-29.78"/>
</g>
</g>
</svg>
