<?xml version="1.0" encoding="UTF-8" standalone="no"?>
<!DOCTYPE svg PUBLIC "-//W3C//DTD SVG 1.1//EN"
 "http://www.w3.org/Graphics/SVG/1.1/DTD/svg11.dtd">
<!-- Generated by graphviz version 2.43.0 (0)
 -->
<!-- Title: hal_platform/h7rsxx/exti_handlers.c Pages: 1 -->
<svg width="777pt" height="95pt"
 viewBox="0.00 0.00 776.50 95.00" xmlns="http://www.w3.org/2000/svg" xmlns:xlink="http://www.w3.org/1999/xlink">
<g id="graph0" class="graph" transform="scale(1 1) rotate(0) translate(4 91)">
<title>hal_platform/h7rsxx/exti_handlers.c</title>
<!-- Node1 -->
<g id="node1" class="node">
<title>Node1</title>
<g id="a_node1"><a xlink:title=" ">
<polygon fill="#bfbfbf" stroke="black" points="323.5,-56.5 323.5,-86.5 438.5,-86.5 438.5,-56.5 323.5,-56.5"/>
<text text-anchor="start" x="331.5" y="-74.5" font-family="Helvetica,sans-Serif" font-size="10.00">hal_platform/h7rsxx</text>
<text text-anchor="middle" x="381" y="-63.5" font-family="Helvetica,sans-Serif" font-size="10.00">/exti_handlers.c</text>
</a>
</g>
</g>
<!-- Node2 -->
<g id="node2" class="node">
<title>Node2</title>
<g id="a_node2"><a xlink:title=" ">
<polygon fill="none" stroke="#bfbfbf" points="0,-0.5 0,-19.5 110,-19.5 110,-0.5 0,-0.5"/>
<text text-anchor="middle" x="55" y="-7.5" font-family="Helvetica,sans-Serif" font-size="10.00">stm32h7rsxx_hal.h</text>
</a>
</g>
</g>
<!-- Node1&#45;&gt;Node2 -->
<g id="edge1" class="edge">
<title>Node1&#45;&gt;Node2</title>
<path fill="none" stroke="midnightblue" d="M323.47,-60C263.77,-49.1 170.99,-32.17 111.63,-21.34"/>
<polygon fill="midnightblue" stroke="midnightblue" points="112.14,-17.87 101.67,-19.52 110.88,-24.76 112.14,-17.87"/>
</g>
<!-- Node3 -->
<g id="node3" class="node">
<title>Node3</title>
<g id="a_node3"><a xlink:title=" ">
<polygon fill="none" stroke="#bfbfbf" points="128,-0.5 128,-19.5 208,-19.5 208,-0.5 128,-0.5"/>
<text text-anchor="middle" x="168" y="-7.5" font-family="Helvetica,sans-Serif" font-size="10.00">application.h</text>
</a>
</g>
</g>
<!-- Node1&#45;&gt;Node3 -->
<g id="edge2" class="edge">
<title>Node1&#45;&gt;Node3</title>
<path fill="none" stroke="midnightblue" d="M330.79,-56.47C293.4,-46.03 243.02,-31.96 208.26,-22.25"/>
<polygon fill="midnightblue" stroke="midnightblue" points="209.02,-18.83 198.45,-19.51 207.14,-25.57 209.02,-18.83"/>
</g>
<!-- Node4 -->
<g id="node4" class="node">
<title>Node4</title>
<g id="a_node4"><a xlink:title=" ">
<polygon fill="none" stroke="#bfbfbf" points="226,-0.5 226,-19.5 312,-19.5 312,-0.5 226,-0.5"/>
<text text-anchor="middle" x="269" y="-7.5" font-family="Helvetica,sans-Serif" font-size="10.00">irq_handlers.h</text>
</a>
</g>
</g>
<!-- Node1&#45;&gt;Node4 -->
<g id="edge3" class="edge">
<title>Node1&#45;&gt;Node4</title>
<path fill="none" stroke="midnightblue" d="M354.46,-56.4C336.34,-46.77 312.46,-34.09 294.56,-24.58"/>
<polygon fill="midnightblue" stroke="midnightblue" points="295.77,-21.26 285.3,-19.66 292.49,-27.44 295.77,-21.26"/>
</g>
<!-- Node5 -->
<g id="node5" class="node">
<title>Node5</title>
<g id="a_node5"><a xlink:title=" ">
<polygon fill="none" stroke="#bfbfbf" points="330.5,-0.5 330.5,-19.5 431.5,-19.5 431.5,-0.5 330.5,-0.5"/>
<text text-anchor="middle" x="381" y="-7.5" font-family="Helvetica,sans-Serif" font-size="10.00">platform/debug.h</text>
</a>
</g>
</g>
<!-- Node1&#45;&gt;Node5 -->
<g id="edge4" class="edge">
<title>Node1&#45;&gt;Node5</title>
<path fill="none" stroke="midnightblue" d="M381,-56.4C381,-48.47 381,-38.46 381,-29.86"/>
<polygon fill="midnightblue" stroke="midnightblue" points="384.5,-29.66 381,-19.66 377.5,-29.66 384.5,-29.66"/>
</g>
<!-- Node6 -->
<g id="node6" class="node">
<title>Node6</title>
<g id="a_node6"><a xlink:title=" ">
<polygon fill="none" stroke="#bfbfbf" points="449.5,-0.5 449.5,-19.5 528.5,-19.5 528.5,-0.5 449.5,-0.5"/>
<text text-anchor="middle" x="489" y="-7.5" font-family="Helvetica,sans-Serif" font-size="10.00">hal/uc/gpio.h</text>
</a>
</g>
</g>
<!-- Node1&#45;&gt;Node6 -->
<g id="edge5" class="edge">
<title>Node1&#45;&gt;Node6</title>
<path fill="none" stroke="midnightblue" d="M406.59,-56.4C424.07,-46.77 447.09,-34.09 464.36,-24.58"/>
<polygon fill="midnightblue" stroke="midnightblue" points="466.22,-27.55 473.29,-19.66 462.84,-21.42 466.22,-27.55"/>
</g>
<!-- Node7 -->
<g id="node7" class="node">
<title>Node7</title>
<g id="a_node7"><a xlink:href="h7rsxx_2exti__handlers_8h.html" target="_top" xlink:title=" ">
<polygon fill="none" stroke="black" points="547,-0.5 547,-19.5 639,-19.5 639,-0.5 547,-0.5"/>
<text text-anchor="middle" x="593" y="-7.5" font-family="Helvetica,sans-Serif" font-size="10.00">exti_handlers.h</text>
</a>
</g>
</g>
<!-- Node1&#45;&gt;Node7 -->
<g id="edge6" class="edge">
<title>Node1&#45;&gt;Node7</title>
<path fill="none" stroke="midnightblue" d="M430.97,-56.47C468.19,-46.03 518.33,-31.96 552.93,-22.25"/>
<polygon fill="midnightblue" stroke="midnightblue" points="554.01,-25.58 562.69,-19.51 552.12,-18.84 554.01,-25.58"/>
</g>
<!-- Node8 -->
<g id="node8" class="node">
<title>Node8</title>
<g id="a_node8"><a xlink:title=" ">
<polygon fill="none" stroke="#bfbfbf" points="657.5,-0.5 657.5,-19.5 768.5,-19.5 768.5,-0.5 657.5,-0.5"/>
<text text-anchor="middle" x="713" y="-7.5" font-family="Helvetica,sans-Serif" font-size="10.00">platform/sections.h</text>
</a>
</g>
</g>
<!-- Node1&#45;&gt;Node8 -->
<g id="edge7" class="edge">
<title>Node1&#45;&gt;Node8</title>
<path fill="none" stroke="midnightblue" d="M438.83,-60.14C499.6,-49.25 594.61,-32.22 655.32,-21.34"/>
<polygon fill="midnightblue" stroke="midnightblue" points="656.27,-24.72 665.5,-19.51 655.04,-17.83 656.27,-24.72"/>
</g>
</g>
</svg>
