<?xml version="1.0" encoding="UTF-8" standalone="no"?>
<!DOCTYPE svg PUBLIC "-//W3C//DTD SVG 1.1//EN"
 "http://www.w3.org/Graphics/SVG/1.1/DTD/svg11.dtd">
<!-- Generated by graphviz version 2.43.0 (0)
 -->
<!-- Title: hal_platform/h7rsxx/exti_handlers.h Pages: 1 -->
<svg width="256pt" height="170pt"
 viewBox="0.00 0.00 256.00 170.00" xmlns="http://www.w3.org/2000/svg" xmlns:xlink="http://www.w3.org/1999/xlink">
<g id="graph0" class="graph" transform="scale(1 1) rotate(0) translate(4 166)">
<title>hal_platform/h7rsxx/exti_handlers.h</title>
<!-- Node1 -->
<g id="Node000001" class="node">
<title>Node1</title>
<g id="a_Node000001"><a xlink:title=" ">
<polygon fill="#999999" stroke="#666666" points="181,-162 66,-162 66,-132 181,-132 181,-162"/>
<text text-anchor="start" x="74" y="-150" font-family="Helvetica,sans-Serif" font-size="10.00">hal_platform/h7rsxx</text>
<text text-anchor="middle" x="123.5" y="-139" font-family="Helvetica,sans-Serif" font-size="10.00">/exti_handlers.h</text>
</a>
</g>
</g>
<!-- Node2 -->
<g id="Node000002" class="node">
<title>Node2</title>
<g id="a_Node000002"><a xlink:href="h7rsxx_2exti__handlers_8c.html" target="_top" xlink:title=" ">
<polygon fill="white" stroke="#666666" points="115,-96 0,-96 0,-66 115,-66 115,-96"/>
<text text-anchor="start" x="8" y="-84" font-family="Helvetica,sans-Serif" font-size="10.00">hal_platform/h7rsxx</text>
<text text-anchor="middle" x="57.5" y="-73" font-family="Helvetica,sans-Serif" font-size="10.00">/exti_handlers.c</text>
</a>
</g>
</g>
<!-- Node1&#45;&gt;Node2 -->
<g id="edge1_Node000001_Node000002" class="edge">
<title>Node1&#45;&gt;Node2</title>
<g id="a_edge1_Node000001_Node000002"><a xlink:title=" ">
<path fill="none" stroke="#63b8ff" d="M101.48,-124.65C91.81,-115.27 80.73,-104.53 72.11,-96.16"/>
<polygon fill="#63b8ff" stroke="#63b8ff" points="99.24,-127.35 108.85,-131.8 104.11,-122.32 99.24,-127.35"/>
</a>
</g>
</g>
<!-- Node3 -->
<g id="Node000003" class="node">
<title>Node3</title>
<g id="a_Node000003"><a xlink:href="h7rsxx_2gpio__impl_8h.html" target="_top" xlink:title=" ">
<polygon fill="white" stroke="#666666" points="248,-96 133,-96 133,-66 248,-66 248,-96"/>
<text text-anchor="start" x="141" y="-84" font-family="Helvetica,sans-Serif" font-size="10.00">hal_platform/h7rsxx</text>
<text text-anchor="middle" x="190.5" y="-73" font-family="Helvetica,sans-Serif" font-size="10.00">/gpio_impl.h</text>
</a>
</g>
</g>
<!-- Node1&#45;&gt;Node3 -->
<g id="edge2_Node000001_Node000003" class="edge">
<title>Node1&#45;&gt;Node3</title>
<g id="a_edge2_Node000001_Node000003"><a xlink:title=" ">
<path fill="none" stroke="#63b8ff" d="M145.85,-124.65C155.67,-115.27 166.92,-104.53 175.67,-96.16"/>
<polygon fill="#63b8ff" stroke="#63b8ff" points="143.18,-122.36 138.37,-131.8 148.02,-127.42 143.18,-122.36"/>
</a>
</g>
</g>
<!-- Node4 -->
<g id="Node000004" class="node">
<title>Node4</title>
<g id="a_Node000004"><a xlink:href="h7rsxx_2gpio__impl_8c.html" target="_top" xlink:title=" ">
<polygon fill="white" stroke="#666666" points="248,-30 133,-30 133,0 248,0 248,-30"/>
<text text-anchor="start" x="141" y="-18" font-family="Helvetica,sans-Serif" font-size="10.00">hal_platform/h7rsxx</text>
<text text-anchor="middle" x="190.5" y="-7" font-family="Helvetica,sans-Serif" font-size="10.00">/gpio_impl.c</text>
</a>
</g>
</g>
<!-- Node3&#45;&gt;Node4 -->
<g id="edge3_Node000003_Node000004" class="edge">
<title>Node3&#45;&gt;Node4</title>
<g id="a_edge3_Node000003_Node000004"><a xlink:title=" ">
<path fill="none" stroke="#63b8ff" d="M190.5,-55.54C190.5,-46.96 190.5,-37.61 190.5,-30.16"/>
<polygon fill="#63b8ff" stroke="#63b8ff" points="187,-55.8 190.5,-65.8 194,-55.8 187,-55.8"/>
</a>
</g>
</g>
</g>
</svg>
