<?xml version="1.0" encoding="UTF-8" standalone="no"?>
<!DOCTYPE svg PUBLIC "-//W3C//DTD SVG 1.1//EN"
 "http://www.w3.org/Graphics/SVG/1.1/DTD/svg11.dtd">
<!-- Generated by graphviz version 2.43.0 (0)
 -->
<!-- Title: hal_platform/h7rsxx/core_impl.c Pages: 1 -->
<svg width="156pt" height="151pt"
 viewBox="0.00 0.00 156.00 151.00" xmlns="http://www.w3.org/2000/svg" xmlns:xlink="http://www.w3.org/1999/xlink">
<g id="graph0" class="graph" transform="scale(1 1) rotate(0) translate(4 147)">
<title>hal_platform/h7rsxx/core_impl.c</title>
<!-- Node1 -->
<g id="node1" class="node">
<title>Node1</title>
<g id="a_node1"><a xlink:title=" ">
<polygon fill="#bfbfbf" stroke="black" points="10,-112.5 10,-142.5 125,-142.5 125,-112.5 10,-112.5"/>
<text text-anchor="start" x="18" y="-130.5" font-family="Helvetica,sans-Serif" font-size="10.00">hal_platform/h7rsxx</text>
<text text-anchor="middle" x="67.5" y="-119.5" font-family="Helvetica,sans-Serif" font-size="10.00">/core_impl.c</text>
</a>
</g>
</g>
<!-- Node2 -->
<g id="node2" class="node">
<title>Node2</title>
<g id="a_node2"><a xlink:title=" ">
<polygon fill="none" stroke="#bfbfbf" points="0,-56.5 0,-75.5 53,-75.5 53,-56.5 0,-56.5"/>
<text text-anchor="middle" x="26.5" y="-63.5" font-family="Helvetica,sans-Serif" font-size="10.00">string.h</text>
</a>
</g>
</g>
<!-- Node1&#45;&gt;Node2 -->
<g id="edge1" class="edge">
<title>Node1&#45;&gt;Node2</title>
<path fill="none" stroke="midnightblue" d="M57.78,-112.4C51.95,-103.93 44.48,-93.1 38.31,-84.14"/>
<polygon fill="midnightblue" stroke="midnightblue" points="41.02,-81.91 32.47,-75.66 35.26,-85.88 41.02,-81.91"/>
</g>
<!-- Node3 -->
<g id="node3" class="node">
<title>Node3</title>
<g id="a_node3"><a xlink:href="h7rsxx_2core__impl_8h.html" target="_top" xlink:title=" ">
<polygon fill="none" stroke="black" points="71.5,-56.5 71.5,-75.5 145.5,-75.5 145.5,-56.5 71.5,-56.5"/>
<text text-anchor="middle" x="108.5" y="-63.5" font-family="Helvetica,sans-Serif" font-size="10.00">core_impl.h</text>
</a>
</g>
</g>
<!-- Node1&#45;&gt;Node3 -->
<g id="edge2" class="edge">
<title>Node1&#45;&gt;Node3</title>
<path fill="none" stroke="midnightblue" d="M77.22,-112.4C83.05,-103.93 90.52,-93.1 96.69,-84.14"/>
<polygon fill="midnightblue" stroke="midnightblue" points="99.74,-85.88 102.53,-75.66 93.98,-81.91 99.74,-85.88"/>
</g>
<!-- Node4 -->
<g id="node4" class="node">
<title>Node4</title>
<g id="a_node4"><a xlink:title=" ">
<polygon fill="none" stroke="#bfbfbf" points="69,-0.5 69,-19.5 148,-19.5 148,-0.5 69,-0.5"/>
<text text-anchor="middle" x="108.5" y="-7.5" font-family="Helvetica,sans-Serif" font-size="10.00">hal/uc/core.h</text>
</a>
</g>
</g>
<!-- Node3&#45;&gt;Node4 -->
<g id="edge3" class="edge">
<title>Node3&#45;&gt;Node4</title>
<path fill="none" stroke="midnightblue" d="M108.5,-56.08C108.5,-49.01 108.5,-38.86 108.5,-29.99"/>
<polygon fill="midnightblue" stroke="midnightblue" points="112,-29.75 108.5,-19.75 105,-29.75 112,-29.75"/>
</g>
</g>
</svg>
