<?xml version="1.0" encoding="UTF-8" standalone="no"?>
<!DOCTYPE svg PUBLIC "-//W3C//DTD SVG 1.1//EN"
 "http://www.w3.org/Graphics/SVG/1.1/DTD/svg11.dtd">
<!-- Generated by graphviz version 2.43.0 (0)
 -->
<!-- Title: hal_platform/h7rsxx/uc_map_impl.h Pages: 1 -->
<svg width="314pt" height="95pt"
 viewBox="0.00 0.00 314.00 95.00" xmlns="http://www.w3.org/2000/svg" xmlns:xlink="http://www.w3.org/1999/xlink">
<g id="graph0" class="graph" transform="scale(1 1) rotate(0) translate(4 91)">
<title>hal_platform/h7rsxx/uc_map_impl.h</title>
<!-- Node1 -->
<g id="node1" class="node">
<title>Node1</title>
<g id="a_node1"><a xlink:title=" ">
<polygon fill="#bfbfbf" stroke="black" points="80.5,-56.5 80.5,-86.5 195.5,-86.5 195.5,-56.5 80.5,-56.5"/>
<text text-anchor="start" x="88.5" y="-74.5" font-family="Helvetica,sans-Serif" font-size="10.00">hal_platform/h7rsxx</text>
<text text-anchor="middle" x="138" y="-63.5" font-family="Helvetica,sans-Serif" font-size="10.00">/uc_map_impl.h</text>
</a>
</g>
</g>
<!-- Node2 -->
<g id="node2" class="node">
<title>Node2</title>
<g id="a_node2"><a xlink:title=" ">
<polygon fill="none" stroke="#bfbfbf" points="0,-0.5 0,-19.5 80,-19.5 80,-0.5 0,-0.5"/>
<text text-anchor="middle" x="40" y="-7.5" font-family="Helvetica,sans-Serif" font-size="10.00">hal/uc/map.h</text>
</a>
</g>
</g>
<!-- Node1&#45;&gt;Node2 -->
<g id="edge1" class="edge">
<title>Node1&#45;&gt;Node2</title>
<path fill="none" stroke="midnightblue" d="M114.78,-56.4C99.21,-46.95 78.8,-34.56 63.24,-25.11"/>
<polygon fill="midnightblue" stroke="midnightblue" points="64.62,-21.86 54.26,-19.66 60.99,-27.84 64.62,-21.86"/>
</g>
<!-- Node3 -->
<g id="node3" class="node">
<title>Node3</title>
<g id="a_node3"><a xlink:title=" ">
<polygon fill="none" stroke="#bfbfbf" points="98,-0.5 98,-19.5 178,-19.5 178,-0.5 98,-0.5"/>
<text text-anchor="middle" x="138" y="-7.5" font-family="Helvetica,sans-Serif" font-size="10.00">application.h</text>
</a>
</g>
</g>
<!-- Node1&#45;&gt;Node3 -->
<g id="edge2" class="edge">
<title>Node1&#45;&gt;Node3</title>
<path fill="none" stroke="midnightblue" d="M138,-56.4C138,-48.47 138,-38.46 138,-29.86"/>
<polygon fill="midnightblue" stroke="midnightblue" points="141.5,-29.66 138,-19.66 134.5,-29.66 141.5,-29.66"/>
</g>
<!-- Node4 -->
<g id="node4" class="node">
<title>Node4</title>
<g id="a_node4"><a xlink:title=" ">
<polygon fill="none" stroke="#bfbfbf" points="196,-0.5 196,-19.5 306,-19.5 306,-0.5 196,-0.5"/>
<text text-anchor="middle" x="251" y="-7.5" font-family="Helvetica,sans-Serif" font-size="10.00">stm32h7rsxx_hal.h</text>
</a>
</g>
</g>
<!-- Node1&#45;&gt;Node4 -->
<g id="edge3" class="edge">
<title>Node1&#45;&gt;Node4</title>
<path fill="none" stroke="midnightblue" d="M164.78,-56.4C183.06,-46.77 207.15,-34.09 225.21,-24.58"/>
<polygon fill="midnightblue" stroke="midnightblue" points="227.34,-27.41 234.56,-19.66 224.08,-21.22 227.34,-27.41"/>
</g>
</g>
</svg>
