<?xml version="1.0" encoding="UTF-8" standalone="no"?>
<!DOCTYPE svg PUBLIC "-//W3C//DTD SVG 1.1//EN"
 "http://www.w3.org/Graphics/SVG/1.1/DTD/svg11.dtd">
<!-- Generated by graphviz version 2.43.0 (0)
 -->
<!-- Title: hal_platform/h7rsxx/usb_impl.h Pages: 1 -->
<svg width="389pt" height="170pt"
 viewBox="0.00 0.00 389.00 170.00" xmlns="http://www.w3.org/2000/svg" xmlns:xlink="http://www.w3.org/1999/xlink">
<g id="graph0" class="graph" transform="scale(1 1) rotate(0) translate(4 166)">
<title>hal_platform/h7rsxx/usb_impl.h</title>
<!-- Node1 -->
<g id="Node000001" class="node">
<title>Node1</title>
<g id="a_Node000001"><a xlink:title=" ">
<polygon fill="#999999" stroke="#666666" points="248,-162 133,-162 133,-132 248,-132 248,-162"/>
<text text-anchor="start" x="141" y="-150" font-family="Helvetica,sans-Serif" font-size="10.00">hal_platform/h7rsxx</text>
<text text-anchor="middle" x="190.5" y="-139" font-family="Helvetica,sans-Serif" font-size="10.00">/usb_impl.h</text>
</a>
</g>
</g>
<!-- Node2 -->
<g id="Node000002" class="node">
<title>Node2</title>
<g id="a_Node000002"><a xlink:href="h7rsxx_2usb__descriptors_8c.html" target="_top" xlink:title=" ">
<polygon fill="white" stroke="#666666" points="115,-96 0,-96 0,-66 115,-66 115,-96"/>
<text text-anchor="start" x="8" y="-84" font-family="Helvetica,sans-Serif" font-size="10.00">hal_platform/h7rsxx</text>
<text text-anchor="middle" x="57.5" y="-73" font-family="Helvetica,sans-Serif" font-size="10.00">/usb_descriptors.c</text>
</a>
</g>
</g>
<!-- Node1&#45;&gt;Node2 -->
<g id="edge1_Node000001_Node000002" class="edge">
<title>Node1&#45;&gt;Node2</title>
<g id="a_edge1_Node000001_Node000002"><a xlink:title=" ">
<path fill="none" stroke="#63b8ff" d="M152.08,-127.51C131.22,-117.47 105.83,-105.26 86.62,-96.01"/>
<polygon fill="#63b8ff" stroke="#63b8ff" points="150.78,-130.77 161.31,-131.95 153.82,-124.46 150.78,-130.77"/>
</a>
</g>
</g>
<!-- Node3 -->
<g id="Node000003" class="node">
<title>Node3</title>
<g id="a_Node000003"><a xlink:href="h7rsxx_2usb__handlers_8h.html" target="_top" xlink:title=" ">
<polygon fill="white" stroke="#666666" points="248,-96 133,-96 133,-66 248,-66 248,-96"/>
<text text-anchor="start" x="141" y="-84" font-family="Helvetica,sans-Serif" font-size="10.00">hal_platform/h7rsxx</text>
<text text-anchor="middle" x="190.5" y="-73" font-family="Helvetica,sans-Serif" font-size="10.00">/usb_handlers.h</text>
</a>
</g>
</g>
<!-- Node1&#45;&gt;Node3 -->
<g id="edge2_Node000001_Node000003" class="edge">
<title>Node1&#45;&gt;Node3</title>
<g id="a_edge2_Node000001_Node000003"><a xlink:title=" ">
<path fill="none" stroke="#63b8ff" d="M190.5,-121.54C190.5,-112.96 190.5,-103.61 190.5,-96.16"/>
<polygon fill="#63b8ff" stroke="#63b8ff" points="187,-121.8 190.5,-131.8 194,-121.8 187,-121.8"/>
</a>
</g>
</g>
<!-- Node5 -->
<g id="Node000005" class="node">
<title>Node5</title>
<g id="a_Node000005"><a xlink:href="h7rsxx_2usb__impl_8c.html" target="_top" xlink:title=" ">
<polygon fill="white" stroke="#666666" points="381,-96 266,-96 266,-66 381,-66 381,-96"/>
<text text-anchor="start" x="274" y="-84" font-family="Helvetica,sans-Serif" font-size="10.00">hal_platform/h7rsxx</text>
<text text-anchor="middle" x="323.5" y="-73" font-family="Helvetica,sans-Serif" font-size="10.00">/usb_impl.c</text>
</a>
</g>
</g>
<!-- Node1&#45;&gt;Node5 -->
<g id="edge4_Node000001_Node000005" class="edge">
<title>Node1&#45;&gt;Node5</title>
<g id="a_edge4_Node000001_Node000005"><a xlink:title=" ">
<path fill="none" stroke="#63b8ff" d="M228.92,-127.51C249.78,-117.47 275.17,-105.26 294.38,-96.01"/>
<polygon fill="#63b8ff" stroke="#63b8ff" points="227.18,-124.46 219.69,-131.95 230.22,-130.77 227.18,-124.46"/>
</a>
</g>
</g>
<!-- Node4 -->
<g id="Node000004" class="node">
<title>Node4</title>
<g id="a_Node000004"><a xlink:href="h7rsxx_2usb__handlers_8c.html" target="_top" xlink:title=" ">
<polygon fill="white" stroke="#666666" points="248,-30 133,-30 133,0 248,0 248,-30"/>
<text text-anchor="start" x="141" y="-18" font-family="Helvetica,sans-Serif" font-size="10.00">hal_platform/h7rsxx</text>
<text text-anchor="middle" x="190.5" y="-7" font-family="Helvetica,sans-Serif" font-size="10.00">/usb_handlers.c</text>
</a>
</g>
</g>
<!-- Node3&#45;&gt;Node4 -->
<g id="edge3_Node000003_Node000004" class="edge">
<title>Node3&#45;&gt;Node4</title>
<g id="a_edge3_Node000003_Node000004"><a xlink:title=" ">
<path fill="none" stroke="#63b8ff" d="M190.5,-55.54C190.5,-46.96 190.5,-37.61 190.5,-30.16"/>
<polygon fill="#63b8ff" stroke="#63b8ff" points="187,-55.8 190.5,-65.8 194,-55.8 187,-55.8"/>
</a>
</g>
</g>
</g>
</svg>
