<?xml version="1.0" encoding="UTF-8" standalone="no"?>
<!DOCTYPE svg PUBLIC "-//W3C//DTD SVG 1.1//EN"
 "http://www.w3.org/Graphics/SVG/1.1/DTD/svg11.dtd">
<!-- Generated by graphviz version 2.43.0 (0)
 -->
<!-- Title: hal_platform/h7rsxx/usb_impl.c Pages: 1 -->
<svg width="308pt" height="151pt"
 viewBox="0.00 0.00 307.50 151.00" xmlns="http://www.w3.org/2000/svg" xmlns:xlink="http://www.w3.org/1999/xlink">
<g id="graph0" class="graph" transform="scale(1 1) rotate(0) translate(4 147)">
<title>hal_platform/h7rsxx/usb_impl.c</title>
<!-- Node1 -->
<g id="node1" class="node">
<title>Node1</title>
<g id="a_node1"><a xlink:title=" ">
<polygon fill="#bfbfbf" stroke="black" points="45,-112.5 45,-142.5 160,-142.5 160,-112.5 45,-112.5"/>
<text text-anchor="start" x="53" y="-130.5" font-family="Helvetica,sans-Serif" font-size="10.00">hal_platform/h7rsxx</text>
<text text-anchor="middle" x="102.5" y="-119.5" font-family="Helvetica,sans-Serif" font-size="10.00">/usb_impl.c</text>
</a>
</g>
</g>
<!-- Node2 -->
<g id="node2" class="node">
<title>Node2</title>
<g id="a_node2"><a xlink:href="h7rsxx_2usb__impl_8h.html" target="_top" xlink:title=" ">
<polygon fill="none" stroke="black" points="67.5,-56.5 67.5,-75.5 137.5,-75.5 137.5,-56.5 67.5,-56.5"/>
<text text-anchor="middle" x="102.5" y="-63.5" font-family="Helvetica,sans-Serif" font-size="10.00">usb_impl.h</text>
</a>
</g>
</g>
<!-- Node1&#45;&gt;Node2 -->
<g id="edge1" class="edge">
<title>Node1&#45;&gt;Node2</title>
<path fill="none" stroke="midnightblue" d="M102.5,-112.4C102.5,-104.47 102.5,-94.46 102.5,-85.86"/>
<polygon fill="midnightblue" stroke="midnightblue" points="106,-85.66 102.5,-75.66 99,-85.66 106,-85.66"/>
</g>
<!-- Node4 -->
<g id="node4" class="node">
<title>Node4</title>
<g id="a_node4"><a xlink:title=" ">
<polygon fill="none" stroke="#bfbfbf" points="0,-0.5 0,-19.5 47,-19.5 47,-0.5 0,-0.5"/>
<text text-anchor="middle" x="23.5" y="-7.5" font-family="Helvetica,sans-Serif" font-size="10.00">tusb.h</text>
</a>
</g>
</g>
<!-- Node1&#45;&gt;Node4 -->
<g id="edge7" class="edge">
<title>Node1&#45;&gt;Node4</title>
<path fill="none" stroke="midnightblue" d="M88.49,-112.19C79.35,-102.44 67.5,-89 58.5,-76 48.04,-60.88 38.31,-42.3 31.78,-28.88"/>
<polygon fill="midnightblue" stroke="midnightblue" points="34.91,-27.3 27.45,-19.77 28.58,-30.3 34.91,-27.3"/>
</g>
<!-- Node7 -->
<g id="node7" class="node">
<title>Node7</title>
<g id="a_node7"><a xlink:title=" ">
<polygon fill="none" stroke="#bfbfbf" points="156,-56.5 156,-75.5 235,-75.5 235,-56.5 156,-56.5"/>
<text text-anchor="middle" x="195.5" y="-63.5" font-family="Helvetica,sans-Serif" font-size="10.00">hal/uc/gpio.h</text>
</a>
</g>
</g>
<!-- Node1&#45;&gt;Node7 -->
<g id="edge6" class="edge">
<title>Node1&#45;&gt;Node7</title>
<path fill="none" stroke="midnightblue" d="M124.54,-112.4C139.31,-102.95 158.68,-90.56 173.45,-81.11"/>
<polygon fill="midnightblue" stroke="midnightblue" points="175.43,-84 181.97,-75.66 171.66,-78.1 175.43,-84"/>
</g>
<!-- Node3 -->
<g id="node3" class="node">
<title>Node3</title>
<g id="a_node3"><a xlink:title=" ">
<polygon fill="none" stroke="#bfbfbf" points="65,-0.5 65,-19.5 140,-19.5 140,-0.5 65,-0.5"/>
<text text-anchor="middle" x="102.5" y="-7.5" font-family="Helvetica,sans-Serif" font-size="10.00">hal/uc/usb.h</text>
</a>
</g>
</g>
<!-- Node2&#45;&gt;Node3 -->
<g id="edge2" class="edge">
<title>Node2&#45;&gt;Node3</title>
<path fill="none" stroke="midnightblue" d="M102.5,-56.08C102.5,-49.01 102.5,-38.86 102.5,-29.99"/>
<polygon fill="midnightblue" stroke="midnightblue" points="106,-29.75 102.5,-19.75 99,-29.75 106,-29.75"/>
</g>
<!-- Node2&#45;&gt;Node4 -->
<g id="edge3" class="edge">
<title>Node2&#45;&gt;Node4</title>
<path fill="none" stroke="midnightblue" d="M89.81,-56.32C77.6,-47.98 58.92,-35.21 44.5,-25.35"/>
<polygon fill="midnightblue" stroke="midnightblue" points="46.39,-22.41 36.16,-19.65 42.44,-28.19 46.39,-22.41"/>
</g>
<!-- Node5 -->
<g id="node5" class="node">
<title>Node5</title>
<g id="a_node5"><a xlink:title=" ">
<polygon fill="none" stroke="#bfbfbf" points="158,-0.5 158,-19.5 225,-19.5 225,-0.5 158,-0.5"/>
<text text-anchor="middle" x="191.5" y="-7.5" font-family="Helvetica,sans-Serif" font-size="10.00">hal/uc/id.h</text>
</a>
</g>
</g>
<!-- Node2&#45;&gt;Node5 -->
<g id="edge4" class="edge">
<title>Node2&#45;&gt;Node5</title>
<path fill="none" stroke="midnightblue" d="M116.8,-56.32C130.68,-47.9 151.99,-34.97 168.3,-25.07"/>
<polygon fill="midnightblue" stroke="midnightblue" points="170.5,-27.83 177.24,-19.65 166.87,-21.85 170.5,-27.83"/>
</g>
<!-- Node6 -->
<g id="node6" class="node">
<title>Node6</title>
<g id="a_node6"><a xlink:title=" ">
<polygon fill="none" stroke="#bfbfbf" points="243.5,-0.5 243.5,-19.5 299.5,-19.5 299.5,-0.5 243.5,-0.5"/>
<text text-anchor="middle" x="271.5" y="-7.5" font-family="Helvetica,sans-Serif" font-size="10.00">iomap.h</text>
</a>
</g>
</g>
<!-- Node2&#45;&gt;Node6 -->
<g id="edge5" class="edge">
<title>Node2&#45;&gt;Node6</title>
<path fill="none" stroke="midnightblue" d="M129.28,-56.44C157.83,-47.32 203.23,-32.81 235.04,-22.65"/>
<polygon fill="midnightblue" stroke="midnightblue" points="236.39,-25.89 244.85,-19.52 234.26,-19.23 236.39,-25.89"/>
</g>
</g>
</svg>
