<?xml version="1.0" encoding="UTF-8" standalone="no"?>
<!DOCTYPE svg PUBLIC "-//W3C//DTD SVG 1.1//EN"
 "http://www.w3.org/Graphics/SVG/1.1/DTD/svg11.dtd">
<!-- Generated by graphviz version 2.43.0 (0)
 -->
<!-- Title: hal_platform/h7rsxx/uart_impl.c Pages: 1 -->
<svg width="390pt" height="148pt"
 viewBox="0.00 0.00 389.50 148.00" xmlns="http://www.w3.org/2000/svg" xmlns:xlink="http://www.w3.org/1999/xlink">

<svg id="main" version="1.1" xmlns="http://www.w3.org/2000/svg" xmlns:xlink="http://www.w3.org/1999/xlink" xml:space="preserve" onload="init(evt)">
<style type="text/css"><![CDATA[
.node, .edge {opacity: 0.7;}
.node.selected, .edge.selected {opacity: 1;}
.edge:hover path { stroke: red; }
.edge:hover polygon { stroke: red; fill: red; }
]]></style>
<script type="application/ecmascript" xlink:href="svg.min.js"/>
<svg id="graph" class="graph">
<g id="graph0" class="graph" transform="scale(1 1) rotate(0) translate(4 144)">
<title>hal_platform/h7rsxx/uart_impl.c</title>
<!-- Node1 -->
<g id="Node000001" class="node">
<title>Node1</title>
<g id="a_Node000001"><a xlink:title=" ">
<polygon fill="#999999" stroke="#666666" points="305,-140 190,-140 190,-110 305,-110 305,-140"/>
<text text-anchor="start" x="198" y="-128" font-family="Helvetica,sans-Serif" font-size="10.00">hal_platform/h7rsxx</text>
<text text-anchor="middle" x="247.5" y="-117" font-family="Helvetica,sans-Serif" font-size="10.00">/uart_impl.c</text>
</a>
</g>
</g>
<!-- Node2 -->
<g id="Node000002" class="node">
<title>Node2</title>
<g id="a_Node000002"><a xlink:href="h7rsxx_2uart__impl_8h.html" target="_top" xlink:title=" ">
<polygon fill="white" stroke="#666666" points="228.5,-74 156.5,-74 156.5,-55 228.5,-55 228.5,-74"/>
<text text-anchor="middle" x="192.5" y="-62" font-family="Helvetica,sans-Serif" font-size="10.00">uart_impl.h</text>
</a>
</g>
</g>
<!-- Node1&#45;&gt;Node2 -->
<g id="edge1_Node000001_Node000002" class="edge">
<title>Node1&#45;&gt;Node2</title>
<g id="a_edge1_Node000001_Node000002"><a xlink:title=" ">
<path fill="none" stroke="#63b8ff" d="M234.19,-109.84C226.2,-101.35 216.02,-90.52 207.72,-81.69"/>
<polygon fill="#63b8ff" stroke="#63b8ff" points="210.14,-79.15 200.74,-74.27 205.04,-83.95 210.14,-79.15"/>
</a>
</g>
</g>
<!-- Node7 -->
<g id="Node000007" class="node">
<title>Node7</title>
<g id="a_Node000007"><a xlink:title=" ">
<polygon fill="#e0e0e0" stroke="#999999" points="358,-74 247,-74 247,-55 358,-55 358,-74"/>
<text text-anchor="middle" x="302.5" y="-62" font-family="Helvetica,sans-Serif" font-size="10.00">platform/sections.h</text>
</a>
</g>
</g>
<!-- Node1&#45;&gt;Node7 -->
<g id="edge6_Node000001_Node000007" class="edge">
<title>Node1&#45;&gt;Node7</title>
<g id="a_edge6_Node000001_Node000007"><a xlink:title=" ">
<path fill="none" stroke="#63b8ff" d="M260.81,-109.84C268.8,-101.35 278.98,-90.52 287.28,-81.69"/>
<polygon fill="#63b8ff" stroke="#63b8ff" points="289.96,-83.95 294.26,-74.27 284.86,-79.15 289.96,-83.95"/>
</a>
</g>
</g>
<!-- Node3 -->
<g id="Node000003" class="node">
<title>Node3</title>
<g id="a_Node000003"><a xlink:title=" ">
<polygon fill="#e0e0e0" stroke="#999999" points="77,-19 0,-19 0,0 77,0 77,-19"/>
<text text-anchor="middle" x="38.5" y="-7" font-family="Helvetica,sans-Serif" font-size="10.00">hal/uc/uart.h</text>
</a>
</g>
</g>
<!-- Node2&#45;&gt;Node3 -->
<g id="edge2_Node000002_Node000003" class="edge">
<title>Node2&#45;&gt;Node3</title>
<g id="a_edge2_Node000002_Node000003"><a xlink:title=" ">
<path fill="none" stroke="#63b8ff" d="M167.76,-54.98C142.13,-46.16 101.87,-32.31 73.09,-22.41"/>
<polygon fill="#63b8ff" stroke="#63b8ff" points="74.03,-19.03 63.44,-19.08 71.75,-25.65 74.03,-19.03"/>
</a>
</g>
</g>
<!-- Node4 -->
<g id="Node000004" class="node">
<title>Node4</title>
<g id="a_Node000004"><a xlink:title=" ">
<polygon fill="#e0e0e0" stroke="#999999" points="188,-19 95,-19 95,0 188,0 188,-19"/>
<text text-anchor="middle" x="141.5" y="-7" font-family="Helvetica,sans-Serif" font-size="10.00">hal/types/uart.h</text>
</a>
</g>
</g>
<!-- Node2&#45;&gt;Node4 -->
<g id="edge3_Node000002_Node000004" class="edge">
<title>Node2&#45;&gt;Node4</title>
<g id="a_edge3_Node000002_Node000004"><a xlink:title=" ">
<path fill="none" stroke="#63b8ff" d="M184.08,-54.75C176.73,-47.11 165.87,-35.82 156.96,-26.56"/>
<polygon fill="#63b8ff" stroke="#63b8ff" points="159.22,-23.87 149.76,-19.09 154.18,-28.72 159.22,-23.87"/>
</a>
</g>
</g>
<!-- Node5 -->
<g id="Node000005" class="node">
<title>Node5</title>
<g id="a_Node000005"><a xlink:title=" ">
<polygon fill="#e0e0e0" stroke="#999999" points="283,-19 206,-19 206,0 283,0 283,-19"/>
<text text-anchor="middle" x="244.5" y="-7" font-family="Helvetica,sans-Serif" font-size="10.00">ds/bytebuf.h</text>
</a>
</g>
</g>
<!-- Node2&#45;&gt;Node5 -->
<g id="edge4_Node000002_Node000005" class="edge">
<title>Node2&#45;&gt;Node5</title>
<g id="a_edge4_Node000002_Node000005"><a xlink:title=" ">
<path fill="none" stroke="#63b8ff" d="M201.09,-54.75C208.66,-47.03 219.88,-35.6 229.01,-26.28"/>
<polygon fill="#63b8ff" stroke="#63b8ff" points="231.57,-28.68 236.07,-19.09 226.57,-23.78 231.57,-28.68"/>
</a>
</g>
</g>
<!-- Node6 -->
<g id="Node000006" class="node">
<title>Node6</title>
<g id="a_Node000006"><a xlink:title=" ">
<polygon fill="#e0e0e0" stroke="#999999" points="381.5,-19 301.5,-19 301.5,0 381.5,0 381.5,-19"/>
<text text-anchor="middle" x="341.5" y="-7" font-family="Helvetica,sans-Serif" font-size="10.00">printf/printf.h</text>
</a>
</g>
</g>
<!-- Node2&#45;&gt;Node6 -->
<g id="edge5_Node000002_Node000006" class="edge">
<title>Node2&#45;&gt;Node6</title>
<g id="a_edge5_Node000002_Node000006"><a xlink:title=" ">
<path fill="none" stroke="#63b8ff" d="M216.44,-54.98C241.06,-46.23 279.62,-32.51 307.42,-22.62"/>
<polygon fill="#63b8ff" stroke="#63b8ff" points="308.88,-25.82 317.12,-19.17 306.53,-19.22 308.88,-25.82"/>
</a>
</g>
</g>
</g>
</svg>
</svg>

<style type='text/css'>
<![CDATA[
[data-mouse-over-selected='false'] { opacity: 0.7; }
[data-mouse-over-selected='true']  { opacity: 1.0; }
]]>
</style>
<script type="application/ecmascript"><![CDATA[
document.addEventListener('DOMContentLoaded', (event) => {
  highlightEdges();
  highlightAdjacentNodes();
});
]]></script>
</svg>
