<?xml version="1.0" encoding="UTF-8" standalone="no"?>
<!DOCTYPE svg PUBLIC "-//W3C//DTD SVG 1.1//EN"
 "http://www.w3.org/Graphics/SVG/1.1/DTD/svg11.dtd">
<!-- Generated by graphviz version 2.43.0 (0)
 -->
<!-- Title: USART2_LPUART2_IRQHandler Pages: 1 -->
<svg width="488pt" height="138pt"
 viewBox="0.00 0.00 488.00 138.00" xmlns="http://www.w3.org/2000/svg" xmlns:xlink="http://www.w3.org/1999/xlink">
<g id="graph0" class="graph" transform="scale(1 1) rotate(0) translate(4 134)">
<title>USART2_LPUART2_IRQHandler</title>
<!-- Node1 -->
<g id="Node000001" class="node">
<title>Node1</title>
<g id="a_Node000001"><a xlink:title=" ">
<polygon fill="#999999" stroke="#666666" points="165,-74 0,-74 0,-55 165,-55 165,-74"/>
<text text-anchor="middle" x="82.5" y="-62" font-family="Helvetica,sans-Serif" font-size="10.00">USART2_LPUART2_IRQHandler</text>
</a>
</g>
</g>
<!-- Node2 -->
<g id="Node000002" class="node">
<title>Node2</title>
<g id="a_Node000002"><a xlink:href="u0xx_2uart__handlers_8c.html#a4f38e659deb4a98bdcffdace3cc1e67a" target="_top" xlink:title=" ">
<polygon fill="white" stroke="#666666" points="310,-93 206,-93 206,-74 310,-74 310,-93"/>
<text text-anchor="middle" x="258" y="-81" font-family="Helvetica,sans-Serif" font-size="10.00">_uart_handler_fifo</text>
</a>
</g>
</g>
<!-- Node1&#45;&gt;Node2 -->
<g id="edge1_Node000001_Node000002" class="edge">
<title>Node1&#45;&gt;Node2</title>
<g id="a_edge1_Node000001_Node000002"><a xlink:title=" ">
<path fill="none" stroke="#63b8ff" d="M165.17,-73.44C175.48,-74.57 185.88,-75.71 195.79,-76.8"/>
<polygon fill="#63b8ff" stroke="#63b8ff" points="195.6,-80.3 205.92,-77.91 196.36,-73.34 195.6,-80.3"/>
</a>
</g>
</g>
<!-- Node5 -->
<g id="Node000005" class="node">
<title>Node5</title>
<g id="a_Node000005"><a xlink:href="u0xx_2uart__handlers_8c.html#a27beff98dd4d12551e37d6e6da1472d3" target="_top" xlink:title=" ">
<polygon fill="white" stroke="#666666" points="315,-56 201,-56 201,-37 315,-37 315,-56"/>
<text text-anchor="middle" x="258" y="-44" font-family="Helvetica,sans-Serif" font-size="10.00">_uart_handler_norm</text>
</a>
</g>
</g>
<!-- Node1&#45;&gt;Node5 -->
<g id="edge4_Node000001_Node000005" class="edge">
<title>Node1&#45;&gt;Node5</title>
<g id="a_edge4_Node000001_Node000005"><a xlink:title=" ">
<path fill="none" stroke="#63b8ff" d="M165.17,-56.03C173.67,-55.15 182.23,-54.26 190.53,-53.4"/>
<polygon fill="#63b8ff" stroke="#63b8ff" points="190.92,-56.87 200.5,-52.36 190.2,-49.91 190.92,-56.87"/>
</a>
</g>
</g>
<!-- Node3 -->
<g id="Node000003" class="node">
<title>Node3</title>
<g id="a_Node000003"><a xlink:href="u0xx_2uart__handlers_8c.html#a1e4191876907842a4ea483cdeff7bf66" target="_top" xlink:title=" ">
<polygon fill="white" stroke="#666666" points="475,-130 356,-130 356,-111 475,-111 475,-130"/>
<text text-anchor="middle" x="415.5" y="-118" font-family="Helvetica,sans-Serif" font-size="10.00">_uart_handler_rx_fifo</text>
</a>
</g>
</g>
<!-- Node2&#45;&gt;Node3 -->
<g id="edge2_Node000002_Node000003" class="edge">
<title>Node2&#45;&gt;Node3</title>
<g id="a_edge2_Node000002_Node000003"><a xlink:title=" ">
<path fill="none" stroke="#63b8ff" d="M299.05,-93.03C319.01,-97.78 343.35,-103.57 364.53,-108.61"/>
<polygon fill="#63b8ff" stroke="#63b8ff" points="363.78,-112.03 374.32,-110.94 365.4,-105.22 363.78,-112.03"/>
</a>
</g>
</g>
<!-- Node4 -->
<g id="Node000004" class="node">
<title>Node4</title>
<g id="a_Node000004"><a xlink:href="u0xx_2uart__handlers_8c.html#a2929227508ac730f7ebef4e9b3cfffbe" target="_top" xlink:title=" ">
<polygon fill="white" stroke="#666666" points="475,-93 356,-93 356,-74 475,-74 475,-93"/>
<text text-anchor="middle" x="415.5" y="-81" font-family="Helvetica,sans-Serif" font-size="10.00">_uart_handler_tx_fifo</text>
</a>
</g>
</g>
<!-- Node2&#45;&gt;Node4 -->
<g id="edge3_Node000002_Node000004" class="edge">
<title>Node2&#45;&gt;Node4</title>
<g id="a_edge3_Node000002_Node000004"><a xlink:title=" ">
<path fill="none" stroke="#63b8ff" d="M310.35,-83.5C321.64,-83.5 333.77,-83.5 345.62,-83.5"/>
<polygon fill="#63b8ff" stroke="#63b8ff" points="345.94,-87 355.94,-83.5 345.94,-80 345.94,-87"/>
</a>
</g>
</g>
<!-- Node6 -->
<g id="Node000006" class="node">
<title>Node6</title>
<g id="a_Node000006"><a xlink:href="u0xx_2uart__handlers_8c.html#ae33ad38dd73e4248bbafd715dc4e377e" target="_top" xlink:title=" ">
<polygon fill="white" stroke="#666666" points="480,-56 351,-56 351,-37 480,-37 480,-56"/>
<text text-anchor="middle" x="415.5" y="-44" font-family="Helvetica,sans-Serif" font-size="10.00">_uart_handler_rx_norm</text>
</a>
</g>
</g>
<!-- Node5&#45;&gt;Node6 -->
<g id="edge5_Node000005_Node000006" class="edge">
<title>Node5&#45;&gt;Node6</title>
<g id="a_edge5_Node000005_Node000006"><a xlink:title=" ">
<path fill="none" stroke="#63b8ff" d="M315.14,-46.5C323.46,-46.5 332.13,-46.5 340.74,-46.5"/>
<polygon fill="#63b8ff" stroke="#63b8ff" points="340.79,-50 350.79,-46.5 340.79,-43 340.79,-50"/>
</a>
</g>
</g>
<!-- Node7 -->
<g id="Node000007" class="node">
<title>Node7</title>
<g id="a_Node000007"><a xlink:href="u0xx_2uart__handlers_8c.html#a931efbc9e4e039b7b4a2187ddaaf7443" target="_top" xlink:title=" ">
<polygon fill="white" stroke="#666666" points="480,-19 351,-19 351,0 480,0 480,-19"/>
<text text-anchor="middle" x="415.5" y="-7" font-family="Helvetica,sans-Serif" font-size="10.00">_uart_handler_tx_norm</text>
</a>
</g>
</g>
<!-- Node5&#45;&gt;Node7 -->
<g id="edge6_Node000005_Node000007" class="edge">
<title>Node5&#45;&gt;Node7</title>
<g id="a_edge6_Node000005_Node000007"><a xlink:title=" ">
<path fill="none" stroke="#63b8ff" d="M299.05,-36.97C319.01,-32.22 343.35,-26.43 364.53,-21.39"/>
<polygon fill="#63b8ff" stroke="#63b8ff" points="365.4,-24.78 374.32,-19.06 363.78,-17.97 365.4,-24.78"/>
</a>
</g>
</g>
</g>
</svg>
