<?xml version="1.0" encoding="UTF-8" standalone="no"?>
<!DOCTYPE svg PUBLIC "-//W3C//DTD SVG 1.1//EN"
 "http://www.w3.org/Graphics/SVG/1.1/DTD/svg11.dtd">
<!-- Generated by graphviz version 2.43.0 (0)
 -->
<!-- Title: USART3_LPUART1_IRQHandler Pages: 1 -->
<svg width="488pt" height="142pt"
 viewBox="0.00 0.00 488.00 142.00" xmlns="http://www.w3.org/2000/svg" xmlns:xlink="http://www.w3.org/1999/xlink">
<g id="graph0" class="graph" transform="scale(1 1) rotate(0) translate(4 138)">
<title>USART3_LPUART1_IRQHandler</title>
<!-- Node1 -->
<g id="node1" class="node">
<title>Node1</title>
<g id="a_node1"><a xlink:title=" ">
<polygon fill="#bfbfbf" stroke="black" points="0,-57.5 0,-76.5 165,-76.5 165,-57.5 0,-57.5"/>
<text text-anchor="middle" x="82.5" y="-64.5" font-family="Helvetica,sans-Serif" font-size="10.00">USART3_LPUART1_IRQHandler</text>
</a>
</g>
</g>
<!-- Node2 -->
<g id="node2" class="node">
<title>Node2</title>
<g id="a_node2"><a xlink:href="u0xx_2uart__handlers_8c.html#a4f38e659deb4a98bdcffdace3cc1e67a" target="_top" xlink:title=" ">
<polygon fill="none" stroke="black" points="206,-76.5 206,-95.5 310,-95.5 310,-76.5 206,-76.5"/>
<text text-anchor="middle" x="258" y="-83.5" font-family="Helvetica,sans-Serif" font-size="10.00">_uart_handler_fifo</text>
</a>
</g>
</g>
<!-- Node1&#45;&gt;Node2 -->
<g id="edge1" class="edge">
<title>Node1&#45;&gt;Node2</title>
<path fill="none" stroke="midnightblue" d="M165.17,-75.94C175.48,-77.07 185.88,-78.21 195.79,-79.3"/>
<polygon fill="midnightblue" stroke="midnightblue" points="195.6,-82.8 205.92,-80.41 196.36,-75.84 195.6,-82.8"/>
</g>
<!-- Node5 -->
<g id="node5" class="node">
<title>Node5</title>
<g id="a_node5"><a xlink:href="u0xx_2uart__handlers_8c.html#a27beff98dd4d12551e37d6e6da1472d3" target="_top" xlink:title=" ">
<polygon fill="none" stroke="black" points="201,-38.5 201,-57.5 315,-57.5 315,-38.5 201,-38.5"/>
<text text-anchor="middle" x="258" y="-45.5" font-family="Helvetica,sans-Serif" font-size="10.00">_uart_handler_norm</text>
</a>
</g>
</g>
<!-- Node1&#45;&gt;Node5 -->
<g id="edge4" class="edge">
<title>Node1&#45;&gt;Node5</title>
<path fill="none" stroke="midnightblue" d="M165.17,-58.06C173.67,-57.13 182.23,-56.19 190.53,-55.28"/>
<polygon fill="midnightblue" stroke="midnightblue" points="190.95,-58.75 200.5,-54.19 190.18,-51.8 190.95,-58.75"/>
</g>
<!-- Node3 -->
<g id="node3" class="node">
<title>Node3</title>
<g id="a_node3"><a xlink:href="u0xx_2uart__handlers_8c.html#a1e4191876907842a4ea483cdeff7bf66" target="_top" xlink:title=" ">
<polygon fill="none" stroke="black" points="356,-114.5 356,-133.5 475,-133.5 475,-114.5 356,-114.5"/>
<text text-anchor="middle" x="415.5" y="-121.5" font-family="Helvetica,sans-Serif" font-size="10.00">_uart_handler_rx_fifo</text>
</a>
</g>
</g>
<!-- Node2&#45;&gt;Node3 -->
<g id="edge2" class="edge">
<title>Node2&#45;&gt;Node3</title>
<path fill="none" stroke="midnightblue" d="M298.24,-95.59C318.76,-100.6 344.07,-106.79 365.83,-112.11"/>
<polygon fill="midnightblue" stroke="midnightblue" points="365,-115.51 375.54,-114.48 366.66,-108.71 365,-115.51"/>
</g>
<!-- Node4 -->
<g id="node4" class="node">
<title>Node4</title>
<g id="a_node4"><a xlink:href="u0xx_2uart__handlers_8c.html#a2929227508ac730f7ebef4e9b3cfffbe" target="_top" xlink:title=" ">
<polygon fill="none" stroke="black" points="356,-76.5 356,-95.5 475,-95.5 475,-76.5 356,-76.5"/>
<text text-anchor="middle" x="415.5" y="-83.5" font-family="Helvetica,sans-Serif" font-size="10.00">_uart_handler_tx_fifo</text>
</a>
</g>
</g>
<!-- Node2&#45;&gt;Node4 -->
<g id="edge3" class="edge">
<title>Node2&#45;&gt;Node4</title>
<path fill="none" stroke="midnightblue" d="M310.35,-86C321.64,-86 333.77,-86 345.62,-86"/>
<polygon fill="midnightblue" stroke="midnightblue" points="345.94,-89.5 355.94,-86 345.94,-82.5 345.94,-89.5"/>
</g>
<!-- Node6 -->
<g id="node6" class="node">
<title>Node6</title>
<g id="a_node6"><a xlink:href="u0xx_2uart__handlers_8c.html#ae33ad38dd73e4248bbafd715dc4e377e" target="_top" xlink:title=" ">
<polygon fill="none" stroke="black" points="351,-38.5 351,-57.5 480,-57.5 480,-38.5 351,-38.5"/>
<text text-anchor="middle" x="415.5" y="-45.5" font-family="Helvetica,sans-Serif" font-size="10.00">_uart_handler_rx_norm</text>
</a>
</g>
</g>
<!-- Node5&#45;&gt;Node6 -->
<g id="edge5" class="edge">
<title>Node5&#45;&gt;Node6</title>
<path fill="none" stroke="midnightblue" d="M315.14,-48C323.46,-48 332.13,-48 340.74,-48"/>
<polygon fill="midnightblue" stroke="midnightblue" points="340.79,-51.5 350.79,-48 340.79,-44.5 340.79,-51.5"/>
</g>
<!-- Node7 -->
<g id="node7" class="node">
<title>Node7</title>
<g id="a_node7"><a xlink:href="u0xx_2uart__handlers_8c.html#a931efbc9e4e039b7b4a2187ddaaf7443" target="_top" xlink:title=" ">
<polygon fill="none" stroke="black" points="351,-0.5 351,-19.5 480,-19.5 480,-0.5 351,-0.5"/>
<text text-anchor="middle" x="415.5" y="-7.5" font-family="Helvetica,sans-Serif" font-size="10.00">_uart_handler_tx_norm</text>
</a>
</g>
</g>
<!-- Node5&#45;&gt;Node7 -->
<g id="edge6" class="edge">
<title>Node5&#45;&gt;Node7</title>
<path fill="none" stroke="midnightblue" d="M298.24,-38.41C318.76,-33.4 344.07,-27.21 365.83,-21.89"/>
<polygon fill="midnightblue" stroke="midnightblue" points="366.66,-25.29 375.54,-19.52 365,-18.49 366.66,-25.29"/>
</g>
</g>
</svg>
