<?xml version="1.0" encoding="UTF-8" standalone="no"?>
<!DOCTYPE svg PUBLIC "-//W3C//DTD SVG 1.1//EN"
 "http://www.w3.org/Graphics/SVG/1.1/DTD/svg11.dtd">
<!-- Generated by graphviz version 2.43.0 (0)
 -->
<!-- Title: _uart_handler_tx_fifo Pages: 1 -->
<svg width="468pt" height="142pt"
 viewBox="0.00 0.00 468.00 142.00" xmlns="http://www.w3.org/2000/svg" xmlns:xlink="http://www.w3.org/1999/xlink">
<g id="graph0" class="graph" transform="scale(1 1) rotate(0) translate(4 138)">
<title>_uart_handler_tx_fifo</title>
<!-- Node1 -->
<g id="node1" class="node">
<title>Node1</title>
<g id="a_node1"><a xlink:title=" ">
<polygon fill="#bfbfbf" stroke="black" points="341,-57.5 341,-76.5 460,-76.5 460,-57.5 341,-57.5"/>
<text text-anchor="middle" x="400.5" y="-64.5" font-family="Helvetica,sans-Serif" font-size="10.00">_uart_handler_tx_fifo</text>
</a>
</g>
</g>
<!-- Node2 -->
<g id="node2" class="node">
<title>Node2</title>
<g id="a_node2"><a xlink:href="u0xx_2uart__handlers_8c.html#a4f38e659deb4a98bdcffdace3cc1e67a" target="_top" xlink:title=" ">
<polygon fill="none" stroke="black" points="201,-57.5 201,-76.5 305,-76.5 305,-57.5 201,-57.5"/>
<text text-anchor="middle" x="253" y="-64.5" font-family="Helvetica,sans-Serif" font-size="10.00">_uart_handler_fifo</text>
</a>
</g>
</g>
<!-- Node1&#45;&gt;Node2 -->
<g id="edge1" class="edge">
<title>Node1&#45;&gt;Node2</title>
<path fill="none" stroke="midnightblue" d="M330.66,-67C322.03,-67 313.32,-67 305.02,-67"/>
<polygon fill="midnightblue" stroke="midnightblue" points="330.74,-70.5 340.74,-67 330.74,-63.5 330.74,-70.5"/>
</g>
<!-- Node3 -->
<g id="node3" class="node">
<title>Node3</title>
<g id="a_node3"><a xlink:href="u0xx_2uart__handlers_8c.html#a7139cd4baabbbcbab0c1fe6d7d4ae1cc" target="_top" xlink:title=" ">
<polygon fill="none" stroke="black" points="24.5,-114.5 24.5,-133.5 140.5,-133.5 140.5,-114.5 24.5,-114.5"/>
<text text-anchor="middle" x="82.5" y="-121.5" font-family="Helvetica,sans-Serif" font-size="10.00">USART1_IRQHandler</text>
</a>
</g>
</g>
<!-- Node2&#45;&gt;Node3 -->
<g id="edge2" class="edge">
<title>Node2&#45;&gt;Node3</title>
<path fill="none" stroke="midnightblue" d="M223.48,-81.03C206.74,-88.87 185.01,-98.36 165,-105 154.11,-108.62 142.18,-111.81 130.88,-114.5"/>
<polygon fill="midnightblue" stroke="midnightblue" points="225.18,-84.1 232.71,-76.65 222.17,-77.78 225.18,-84.1"/>
</g>
<!-- Node4 -->
<g id="node4" class="node">
<title>Node4</title>
<g id="a_node4"><a xlink:href="u0xx_2uart__handlers_8c.html#ad81f8f5f4eeb37afbe93e95d0727bb73" target="_top" xlink:title=" ">
<polygon fill="none" stroke="black" points="0,-76.5 0,-95.5 165,-95.5 165,-76.5 0,-76.5"/>
<text text-anchor="middle" x="82.5" y="-83.5" font-family="Helvetica,sans-Serif" font-size="10.00">USART2_LPUART2_IRQHandler</text>
</a>
</g>
</g>
<!-- Node2&#45;&gt;Node4 -->
<g id="edge3" class="edge">
<title>Node2&#45;&gt;Node4</title>
<path fill="none" stroke="midnightblue" d="M190.94,-73.88C182.56,-74.83 173.83,-75.81 165.15,-76.79"/>
<polygon fill="midnightblue" stroke="midnightblue" points="191.44,-77.35 200.99,-72.75 190.66,-70.39 191.44,-77.35"/>
</g>
<!-- Node5 -->
<g id="node5" class="node">
<title>Node5</title>
<g id="a_node5"><a xlink:href="u0xx_2uart__handlers_8c.html#a492d1f59d4204ccb4244427b72c6a540" target="_top" xlink:title=" ">
<polygon fill="none" stroke="black" points="0,-38.5 0,-57.5 165,-57.5 165,-38.5 0,-38.5"/>
<text text-anchor="middle" x="82.5" y="-45.5" font-family="Helvetica,sans-Serif" font-size="10.00">USART3_LPUART1_IRQHandler</text>
</a>
</g>
</g>
<!-- Node2&#45;&gt;Node5 -->
<g id="edge4" class="edge">
<title>Node2&#45;&gt;Node5</title>
<path fill="none" stroke="midnightblue" d="M190.94,-60.12C182.56,-59.17 173.83,-58.19 165.15,-57.21"/>
<polygon fill="midnightblue" stroke="midnightblue" points="190.66,-63.61 200.99,-61.25 191.44,-56.65 190.66,-63.61"/>
</g>
<!-- Node6 -->
<g id="node6" class="node">
<title>Node6</title>
<g id="a_node6"><a xlink:href="u0xx_2uart__handlers_8c.html#a3ceed8d959febe9f78eef3c20b3285b8" target="_top" xlink:title=" ">
<polygon fill="none" stroke="black" points="0,-0.5 0,-19.5 165,-19.5 165,-0.5 0,-0.5"/>
<text text-anchor="middle" x="82.5" y="-7.5" font-family="Helvetica,sans-Serif" font-size="10.00">USART4_LPUART3_IRQHandler</text>
</a>
</g>
</g>
<!-- Node2&#45;&gt;Node6 -->
<g id="edge5" class="edge">
<title>Node2&#45;&gt;Node6</title>
<path fill="none" stroke="midnightblue" d="M223.48,-52.97C206.74,-45.13 185.01,-35.64 165,-29 154.11,-25.38 142.18,-22.19 130.88,-19.5"/>
<polygon fill="midnightblue" stroke="midnightblue" points="222.17,-56.22 232.71,-57.35 225.18,-49.9 222.17,-56.22"/>
</g>
</g>
</svg>
