<?xml version="1.0" encoding="UTF-8" standalone="no"?>
<!DOCTYPE svg PUBLIC "-//W3C//DTD SVG 1.1//EN"
 "http://www.w3.org/Graphics/SVG/1.1/DTD/svg11.dtd">
<!-- Generated by graphviz version 2.43.0 (0)
 -->
<!-- Title: USART1_IRQHandler Pages: 1 -->
<svg width="439pt" height="138pt"
 viewBox="0.00 0.00 439.00 138.00" xmlns="http://www.w3.org/2000/svg" xmlns:xlink="http://www.w3.org/1999/xlink">
<g id="graph0" class="graph" transform="scale(1 1) rotate(0) translate(4 134)">
<title>USART1_IRQHandler</title>
<!-- Node1 -->
<g id="Node000001" class="node">
<title>Node1</title>
<g id="a_Node000001"><a xlink:title=" ">
<polygon fill="#999999" stroke="#666666" points="116,-74 0,-74 0,-55 116,-55 116,-74"/>
<text text-anchor="middle" x="58" y="-62" font-family="Helvetica,sans-Serif" font-size="10.00">USART1_IRQHandler</text>
</a>
</g>
</g>
<!-- Node2 -->
<g id="Node000002" class="node">
<title>Node2</title>
<g id="a_Node000002"><a xlink:href="u0xx_2uart__handlers_8c.html#a4f38e659deb4a98bdcffdace3cc1e67a" target="_top" xlink:title=" ">
<polygon fill="white" stroke="#666666" points="261,-93 157,-93 157,-74 261,-74 261,-93"/>
<text text-anchor="middle" x="209" y="-81" font-family="Helvetica,sans-Serif" font-size="10.00">_uart_handler_fifo</text>
</a>
</g>
</g>
<!-- Node1&#45;&gt;Node2 -->
<g id="edge1_Node000001_Node000002" class="edge">
<title>Node1&#45;&gt;Node2</title>
<g id="a_edge1_Node000001_Node000002"><a xlink:title=" ">
<path fill="none" stroke="#63b8ff" d="M116.18,-71.79C126.15,-73.06 136.56,-74.39 146.64,-75.68"/>
<polygon fill="#63b8ff" stroke="#63b8ff" points="146.22,-79.15 156.58,-76.94 147.1,-72.21 146.22,-79.15"/>
</a>
</g>
</g>
<!-- Node5 -->
<g id="Node000005" class="node">
<title>Node5</title>
<g id="a_Node000005"><a xlink:href="u0xx_2uart__handlers_8c.html#a27beff98dd4d12551e37d6e6da1472d3" target="_top" xlink:title=" ">
<polygon fill="white" stroke="#666666" points="266,-56 152,-56 152,-37 266,-37 266,-56"/>
<text text-anchor="middle" x="209" y="-44" font-family="Helvetica,sans-Serif" font-size="10.00">_uart_handler_norm</text>
</a>
</g>
</g>
<!-- Node1&#45;&gt;Node5 -->
<g id="edge4_Node000001_Node000005" class="edge">
<title>Node1&#45;&gt;Node5</title>
<g id="a_edge4_Node000001_Node000005"><a xlink:title=" ">
<path fill="none" stroke="#63b8ff" d="M116.18,-57.59C124.56,-56.58 133.24,-55.53 141.78,-54.5"/>
<polygon fill="#63b8ff" stroke="#63b8ff" points="142.2,-57.97 151.71,-53.3 141.36,-51.02 142.2,-57.97"/>
</a>
</g>
</g>
<!-- Node3 -->
<g id="Node000003" class="node">
<title>Node3</title>
<g id="a_Node000003"><a xlink:href="u0xx_2uart__handlers_8c.html#a1e4191876907842a4ea483cdeff7bf66" target="_top" xlink:title=" ">
<polygon fill="white" stroke="#666666" points="426,-130 307,-130 307,-111 426,-111 426,-130"/>
<text text-anchor="middle" x="366.5" y="-118" font-family="Helvetica,sans-Serif" font-size="10.00">_uart_handler_rx_fifo</text>
</a>
</g>
</g>
<!-- Node2&#45;&gt;Node3 -->
<g id="edge2_Node000002_Node000003" class="edge">
<title>Node2&#45;&gt;Node3</title>
<g id="a_edge2_Node000002_Node000003"><a xlink:title=" ">
<path fill="none" stroke="#63b8ff" d="M250.05,-93.03C270.01,-97.78 294.35,-103.57 315.53,-108.61"/>
<polygon fill="#63b8ff" stroke="#63b8ff" points="314.78,-112.03 325.32,-110.94 316.4,-105.22 314.78,-112.03"/>
</a>
</g>
</g>
<!-- Node4 -->
<g id="Node000004" class="node">
<title>Node4</title>
<g id="a_Node000004"><a xlink:href="u0xx_2uart__handlers_8c.html#a2929227508ac730f7ebef4e9b3cfffbe" target="_top" xlink:title=" ">
<polygon fill="white" stroke="#666666" points="426,-93 307,-93 307,-74 426,-74 426,-93"/>
<text text-anchor="middle" x="366.5" y="-81" font-family="Helvetica,sans-Serif" font-size="10.00">_uart_handler_tx_fifo</text>
</a>
</g>
</g>
<!-- Node2&#45;&gt;Node4 -->
<g id="edge3_Node000002_Node000004" class="edge">
<title>Node2&#45;&gt;Node4</title>
<g id="a_edge3_Node000002_Node000004"><a xlink:title=" ">
<path fill="none" stroke="#63b8ff" d="M261.35,-83.5C272.64,-83.5 284.77,-83.5 296.62,-83.5"/>
<polygon fill="#63b8ff" stroke="#63b8ff" points="296.94,-87 306.94,-83.5 296.94,-80 296.94,-87"/>
</a>
</g>
</g>
<!-- Node6 -->
<g id="Node000006" class="node">
<title>Node6</title>
<g id="a_Node000006"><a xlink:href="u0xx_2uart__handlers_8c.html#ae33ad38dd73e4248bbafd715dc4e377e" target="_top" xlink:title=" ">
<polygon fill="white" stroke="#666666" points="431,-56 302,-56 302,-37 431,-37 431,-56"/>
<text text-anchor="middle" x="366.5" y="-44" font-family="Helvetica,sans-Serif" font-size="10.00">_uart_handler_rx_norm</text>
</a>
</g>
</g>
<!-- Node5&#45;&gt;Node6 -->
<g id="edge5_Node000005_Node000006" class="edge">
<title>Node5&#45;&gt;Node6</title>
<g id="a_edge5_Node000005_Node000006"><a xlink:title=" ">
<path fill="none" stroke="#63b8ff" d="M266.14,-46.5C274.46,-46.5 283.13,-46.5 291.74,-46.5"/>
<polygon fill="#63b8ff" stroke="#63b8ff" points="291.79,-50 301.79,-46.5 291.79,-43 291.79,-50"/>
</a>
</g>
</g>
<!-- Node7 -->
<g id="Node000007" class="node">
<title>Node7</title>
<g id="a_Node000007"><a xlink:href="u0xx_2uart__handlers_8c.html#a931efbc9e4e039b7b4a2187ddaaf7443" target="_top" xlink:title=" ">
<polygon fill="white" stroke="#666666" points="431,-19 302,-19 302,0 431,0 431,-19"/>
<text text-anchor="middle" x="366.5" y="-7" font-family="Helvetica,sans-Serif" font-size="10.00">_uart_handler_tx_norm</text>
</a>
</g>
</g>
<!-- Node5&#45;&gt;Node7 -->
<g id="edge6_Node000005_Node000007" class="edge">
<title>Node5&#45;&gt;Node7</title>
<g id="a_edge6_Node000005_Node000007"><a xlink:title=" ">
<path fill="none" stroke="#63b8ff" d="M250.05,-36.97C270.01,-32.22 294.35,-26.43 315.53,-21.39"/>
<polygon fill="#63b8ff" stroke="#63b8ff" points="316.4,-24.78 325.32,-19.06 314.78,-17.97 316.4,-24.78"/>
</a>
</g>
</g>
</g>
</svg>
