<?xml version="1.0" encoding="UTF-8" standalone="no"?>
<!DOCTYPE svg PUBLIC "-//W3C//DTD SVG 1.1//EN"
 "http://www.w3.org/Graphics/SVG/1.1/DTD/svg11.dtd">
<!-- Generated by graphviz version 2.43.0 (0)
 -->
<!-- Title: USART1_IRQHandler Pages: 1 -->
<svg width="439pt" height="142pt"
 viewBox="0.00 0.00 439.00 142.00" xmlns="http://www.w3.org/2000/svg" xmlns:xlink="http://www.w3.org/1999/xlink">
<g id="graph0" class="graph" transform="scale(1 1) rotate(0) translate(4 138)">
<title>USART1_IRQHandler</title>
<!-- Node1 -->
<g id="node1" class="node">
<title>Node1</title>
<g id="a_node1"><a xlink:title=" ">
<polygon fill="#bfbfbf" stroke="black" points="0,-57.5 0,-76.5 116,-76.5 116,-57.5 0,-57.5"/>
<text text-anchor="middle" x="58" y="-64.5" font-family="Helvetica,sans-Serif" font-size="10.00">USART1_IRQHandler</text>
</a>
</g>
</g>
<!-- Node2 -->
<g id="node2" class="node">
<title>Node2</title>
<g id="a_node2"><a xlink:href="u0xx_2uart__handlers_8c.html#a4f38e659deb4a98bdcffdace3cc1e67a" target="_top" xlink:title=" ">
<polygon fill="none" stroke="black" points="157,-76.5 157,-95.5 261,-95.5 261,-76.5 157,-76.5"/>
<text text-anchor="middle" x="209" y="-83.5" font-family="Helvetica,sans-Serif" font-size="10.00">_uart_handler_fifo</text>
</a>
</g>
</g>
<!-- Node1&#45;&gt;Node2 -->
<g id="edge1" class="edge">
<title>Node1&#45;&gt;Node2</title>
<path fill="none" stroke="midnightblue" d="M116.18,-74.29C126.15,-75.56 136.56,-76.89 146.64,-78.18"/>
<polygon fill="midnightblue" stroke="midnightblue" points="146.22,-81.65 156.58,-79.44 147.1,-74.71 146.22,-81.65"/>
</g>
<!-- Node5 -->
<g id="node5" class="node">
<title>Node5</title>
<g id="a_node5"><a xlink:href="u0xx_2uart__handlers_8c.html#a27beff98dd4d12551e37d6e6da1472d3" target="_top" xlink:title=" ">
<polygon fill="none" stroke="black" points="152,-38.5 152,-57.5 266,-57.5 266,-38.5 152,-38.5"/>
<text text-anchor="middle" x="209" y="-45.5" font-family="Helvetica,sans-Serif" font-size="10.00">_uart_handler_norm</text>
</a>
</g>
</g>
<!-- Node1&#45;&gt;Node5 -->
<g id="edge4" class="edge">
<title>Node1&#45;&gt;Node5</title>
<path fill="none" stroke="midnightblue" d="M116.18,-59.71C124.56,-58.64 133.24,-57.53 141.78,-56.44"/>
<polygon fill="midnightblue" stroke="midnightblue" points="142.23,-59.91 151.71,-55.18 141.35,-52.97 142.23,-59.91"/>
</g>
<!-- Node3 -->
<g id="node3" class="node">
<title>Node3</title>
<g id="a_node3"><a xlink:href="u0xx_2uart__handlers_8c.html#a1e4191876907842a4ea483cdeff7bf66" target="_top" xlink:title=" ">
<polygon fill="none" stroke="black" points="307,-114.5 307,-133.5 426,-133.5 426,-114.5 307,-114.5"/>
<text text-anchor="middle" x="366.5" y="-121.5" font-family="Helvetica,sans-Serif" font-size="10.00">_uart_handler_rx_fifo</text>
</a>
</g>
</g>
<!-- Node2&#45;&gt;Node3 -->
<g id="edge2" class="edge">
<title>Node2&#45;&gt;Node3</title>
<path fill="none" stroke="midnightblue" d="M249.24,-95.59C269.76,-100.6 295.07,-106.79 316.83,-112.11"/>
<polygon fill="midnightblue" stroke="midnightblue" points="316,-115.51 326.54,-114.48 317.66,-108.71 316,-115.51"/>
</g>
<!-- Node4 -->
<g id="node4" class="node">
<title>Node4</title>
<g id="a_node4"><a xlink:href="u0xx_2uart__handlers_8c.html#a2929227508ac730f7ebef4e9b3cfffbe" target="_top" xlink:title=" ">
<polygon fill="none" stroke="black" points="307,-76.5 307,-95.5 426,-95.5 426,-76.5 307,-76.5"/>
<text text-anchor="middle" x="366.5" y="-83.5" font-family="Helvetica,sans-Serif" font-size="10.00">_uart_handler_tx_fifo</text>
</a>
</g>
</g>
<!-- Node2&#45;&gt;Node4 -->
<g id="edge3" class="edge">
<title>Node2&#45;&gt;Node4</title>
<path fill="none" stroke="midnightblue" d="M261.35,-86C272.64,-86 284.77,-86 296.62,-86"/>
<polygon fill="midnightblue" stroke="midnightblue" points="296.94,-89.5 306.94,-86 296.94,-82.5 296.94,-89.5"/>
</g>
<!-- Node6 -->
<g id="node6" class="node">
<title>Node6</title>
<g id="a_node6"><a xlink:href="u0xx_2uart__handlers_8c.html#ae33ad38dd73e4248bbafd715dc4e377e" target="_top" xlink:title=" ">
<polygon fill="none" stroke="black" points="302,-38.5 302,-57.5 431,-57.5 431,-38.5 302,-38.5"/>
<text text-anchor="middle" x="366.5" y="-45.5" font-family="Helvetica,sans-Serif" font-size="10.00">_uart_handler_rx_norm</text>
</a>
</g>
</g>
<!-- Node5&#45;&gt;Node6 -->
<g id="edge5" class="edge">
<title>Node5&#45;&gt;Node6</title>
<path fill="none" stroke="midnightblue" d="M266.14,-48C274.46,-48 283.13,-48 291.74,-48"/>
<polygon fill="midnightblue" stroke="midnightblue" points="291.79,-51.5 301.79,-48 291.79,-44.5 291.79,-51.5"/>
</g>
<!-- Node7 -->
<g id="node7" class="node">
<title>Node7</title>
<g id="a_node7"><a xlink:href="u0xx_2uart__handlers_8c.html#a931efbc9e4e039b7b4a2187ddaaf7443" target="_top" xlink:title=" ">
<polygon fill="none" stroke="black" points="302,-0.5 302,-19.5 431,-19.5 431,-0.5 302,-0.5"/>
<text text-anchor="middle" x="366.5" y="-7.5" font-family="Helvetica,sans-Serif" font-size="10.00">_uart_handler_tx_norm</text>
</a>
</g>
</g>
<!-- Node5&#45;&gt;Node7 -->
<g id="edge6" class="edge">
<title>Node5&#45;&gt;Node7</title>
<path fill="none" stroke="midnightblue" d="M249.24,-38.41C269.76,-33.4 295.07,-27.21 316.83,-21.89"/>
<polygon fill="midnightblue" stroke="midnightblue" points="317.66,-25.29 326.54,-19.52 316,-18.49 317.66,-25.29"/>
</g>
</g>
</svg>
