<?xml version="1.0" encoding="UTF-8" standalone="no"?>
<!DOCTYPE svg PUBLIC "-//W3C//DTD SVG 1.1//EN"
 "http://www.w3.org/Graphics/SVG/1.1/DTD/svg11.dtd">
<!-- Generated by graphviz version 2.43.0 (0)
 -->
<!-- Title: hal_platform/u0xx/uart_impl.c Pages: 1 -->
<svg width="291pt" height="151pt"
 viewBox="0.00 0.00 291.00 151.00" xmlns="http://www.w3.org/2000/svg" xmlns:xlink="http://www.w3.org/1999/xlink">
<g id="graph0" class="graph" transform="scale(1 1) rotate(0) translate(4 147)">
<title>hal_platform/u0xx/uart_impl.c</title>
<!-- Node1 -->
<g id="node1" class="node">
<title>Node1</title>
<g id="a_node1"><a xlink:title=" ">
<polygon fill="#bfbfbf" stroke="black" points="77.5,-112.5 77.5,-142.5 205.5,-142.5 205.5,-112.5 77.5,-112.5"/>
<text text-anchor="start" x="85.5" y="-130.5" font-family="Helvetica,sans-Serif" font-size="10.00">hal_platform/u0xx/uart</text>
<text text-anchor="middle" x="141.5" y="-119.5" font-family="Helvetica,sans-Serif" font-size="10.00">_impl.c</text>
</a>
</g>
</g>
<!-- Node2 -->
<g id="node2" class="node">
<title>Node2</title>
<g id="a_node2"><a xlink:href="u0xx_2uart__impl_8h.html" target="_top" xlink:title=" ">
<polygon fill="none" stroke="black" points="105.5,-56.5 105.5,-75.5 177.5,-75.5 177.5,-56.5 105.5,-56.5"/>
<text text-anchor="middle" x="141.5" y="-63.5" font-family="Helvetica,sans-Serif" font-size="10.00">uart_impl.h</text>
</a>
</g>
</g>
<!-- Node1&#45;&gt;Node2 -->
<g id="edge1" class="edge">
<title>Node1&#45;&gt;Node2</title>
<path fill="none" stroke="midnightblue" d="M141.5,-112.4C141.5,-104.47 141.5,-94.46 141.5,-85.86"/>
<polygon fill="midnightblue" stroke="midnightblue" points="145,-85.66 141.5,-75.66 138,-85.66 145,-85.66"/>
</g>
<!-- Node3 -->
<g id="node3" class="node">
<title>Node3</title>
<g id="a_node3"><a xlink:title=" ">
<polygon fill="none" stroke="#bfbfbf" points="0,-0.5 0,-19.5 77,-19.5 77,-0.5 0,-0.5"/>
<text text-anchor="middle" x="38.5" y="-7.5" font-family="Helvetica,sans-Serif" font-size="10.00">hal/uc/uart.h</text>
</a>
</g>
</g>
<!-- Node2&#45;&gt;Node3 -->
<g id="edge2" class="edge">
<title>Node2&#45;&gt;Node3</title>
<path fill="none" stroke="midnightblue" d="M124.95,-56.32C108.51,-47.7 83.07,-34.36 64.03,-24.39"/>
<polygon fill="midnightblue" stroke="midnightblue" points="65.49,-21.2 55.01,-19.65 62.24,-27.4 65.49,-21.2"/>
</g>
<!-- Node4 -->
<g id="node4" class="node">
<title>Node4</title>
<g id="a_node4"><a xlink:title=" ">
<polygon fill="none" stroke="#bfbfbf" points="95,-0.5 95,-19.5 188,-19.5 188,-0.5 95,-0.5"/>
<text text-anchor="middle" x="141.5" y="-7.5" font-family="Helvetica,sans-Serif" font-size="10.00">hal/types/uart.h</text>
</a>
</g>
</g>
<!-- Node2&#45;&gt;Node4 -->
<g id="edge3" class="edge">
<title>Node2&#45;&gt;Node4</title>
<path fill="none" stroke="midnightblue" d="M141.5,-56.08C141.5,-49.01 141.5,-38.86 141.5,-29.99"/>
<polygon fill="midnightblue" stroke="midnightblue" points="145,-29.75 141.5,-19.75 138,-29.75 145,-29.75"/>
</g>
<!-- Node5 -->
<g id="node5" class="node">
<title>Node5</title>
<g id="a_node5"><a xlink:title=" ">
<polygon fill="none" stroke="#bfbfbf" points="206,-0.5 206,-19.5 283,-19.5 283,-0.5 206,-0.5"/>
<text text-anchor="middle" x="244.5" y="-7.5" font-family="Helvetica,sans-Serif" font-size="10.00">ds/bytebuf.h</text>
</a>
</g>
</g>
<!-- Node2&#45;&gt;Node5 -->
<g id="edge4" class="edge">
<title>Node2&#45;&gt;Node5</title>
<path fill="none" stroke="midnightblue" d="M158.05,-56.32C174.49,-47.7 199.93,-34.36 218.97,-24.39"/>
<polygon fill="midnightblue" stroke="midnightblue" points="220.76,-27.4 227.99,-19.65 217.51,-21.2 220.76,-27.4"/>
</g>
</g>
</svg>
