<?xml version="1.0" encoding="UTF-8" standalone="no"?>
<!DOCTYPE svg PUBLIC "-//W3C//DTD SVG 1.1//EN"
 "http://www.w3.org/Graphics/SVG/1.1/DTD/svg11.dtd">
<!-- Generated by graphviz version 2.43.0 (0)
 -->
<!-- Title: _uart_handler_tx_fifo Pages: 1 -->
<svg width="468pt" height="138pt"
 viewBox="0.00 0.00 468.00 138.00" xmlns="http://www.w3.org/2000/svg" xmlns:xlink="http://www.w3.org/1999/xlink">
<g id="graph0" class="graph" transform="scale(1 1) rotate(0) translate(4 134)">
<title>_uart_handler_tx_fifo</title>
<!-- Node1 -->
<g id="Node000001" class="node">
<title>Node1</title>
<g id="a_Node000001"><a xlink:title=" ">
<polygon fill="#999999" stroke="#666666" points="460,-74 341,-74 341,-55 460,-55 460,-74"/>
<text text-anchor="middle" x="400.5" y="-62" font-family="Helvetica,sans-Serif" font-size="10.00">_uart_handler_tx_fifo</text>
</a>
</g>
</g>
<!-- Node2 -->
<g id="Node000002" class="node">
<title>Node2</title>
<g id="a_Node000002"><a xlink:href="u0xx_2uart__handlers_8c.html#a4f38e659deb4a98bdcffdace3cc1e67a" target="_top" xlink:title=" ">
<polygon fill="white" stroke="#666666" points="305,-74 201,-74 201,-55 305,-55 305,-74"/>
<text text-anchor="middle" x="253" y="-62" font-family="Helvetica,sans-Serif" font-size="10.00">_uart_handler_fifo</text>
</a>
</g>
</g>
<!-- Node1&#45;&gt;Node2 -->
<g id="edge1_Node000001_Node000002" class="edge">
<title>Node1&#45;&gt;Node2</title>
<g id="a_edge1_Node000001_Node000002"><a xlink:title=" ">
<path fill="none" stroke="#63b8ff" d="M330.66,-64.5C322.03,-64.5 313.32,-64.5 305.02,-64.5"/>
<polygon fill="#63b8ff" stroke="#63b8ff" points="330.74,-68 340.74,-64.5 330.74,-61 330.74,-68"/>
</a>
</g>
</g>
<!-- Node3 -->
<g id="Node000003" class="node">
<title>Node3</title>
<g id="a_Node000003"><a xlink:href="u0xx_2uart__handlers_8c.html#a7139cd4baabbbcbab0c1fe6d7d4ae1cc" target="_top" xlink:title=" ">
<polygon fill="white" stroke="#666666" points="140.5,-130 24.5,-130 24.5,-111 140.5,-111 140.5,-130"/>
<text text-anchor="middle" x="82.5" y="-118" font-family="Helvetica,sans-Serif" font-size="10.00">USART1_IRQHandler</text>
</a>
</g>
</g>
<!-- Node2&#45;&gt;Node3 -->
<g id="edge2_Node000002_Node000003" class="edge">
<title>Node2&#45;&gt;Node3</title>
<g id="a_edge2_Node000002_Node000003"><a xlink:title=" ">
<path fill="none" stroke="#63b8ff" d="M223.83,-78.47C207.06,-86.36 185.18,-95.93 165,-102.5 155.08,-105.73 144.29,-108.56 133.91,-110.97"/>
<polygon fill="#63b8ff" stroke="#63b8ff" points="225.56,-81.52 233.07,-74.05 222.54,-75.21 225.56,-81.52"/>
</a>
</g>
</g>
<!-- Node4 -->
<g id="Node000004" class="node">
<title>Node4</title>
<g id="a_Node000004"><a xlink:href="u0xx_2uart__handlers_8c.html#ad81f8f5f4eeb37afbe93e95d0727bb73" target="_top" xlink:title=" ">
<polygon fill="white" stroke="#666666" points="165,-93 0,-93 0,-74 165,-74 165,-93"/>
<text text-anchor="middle" x="82.5" y="-81" font-family="Helvetica,sans-Serif" font-size="10.00">USART2_LPUART2_IRQHandler</text>
</a>
</g>
</g>
<!-- Node2&#45;&gt;Node4 -->
<g id="edge3_Node000002_Node000004" class="edge">
<title>Node2&#45;&gt;Node4</title>
<g id="a_edge3_Node000002_Node000004"><a xlink:title=" ">
<path fill="none" stroke="#63b8ff" d="M190.94,-71.38C182.56,-72.33 173.83,-73.31 165.15,-74.29"/>
<polygon fill="#63b8ff" stroke="#63b8ff" points="191.44,-74.85 200.99,-70.25 190.66,-67.89 191.44,-74.85"/>
</a>
</g>
</g>
<!-- Node5 -->
<g id="Node000005" class="node">
<title>Node5</title>
<g id="a_Node000005"><a xlink:href="u0xx_2uart__handlers_8c.html#a492d1f59d4204ccb4244427b72c6a540" target="_top" xlink:title=" ">
<polygon fill="white" stroke="#666666" points="165,-56 0,-56 0,-37 165,-37 165,-56"/>
<text text-anchor="middle" x="82.5" y="-44" font-family="Helvetica,sans-Serif" font-size="10.00">USART3_LPUART1_IRQHandler</text>
</a>
</g>
</g>
<!-- Node2&#45;&gt;Node5 -->
<g id="edge4_Node000002_Node000005" class="edge">
<title>Node2&#45;&gt;Node5</title>
<g id="a_edge4_Node000002_Node000005"><a xlink:title=" ">
<path fill="none" stroke="#63b8ff" d="M190.94,-57.98C182.56,-57.08 173.83,-56.15 165.15,-55.22"/>
<polygon fill="#63b8ff" stroke="#63b8ff" points="190.67,-61.47 200.99,-59.05 191.42,-54.51 190.67,-61.47"/>
</a>
</g>
</g>
<!-- Node6 -->
<g id="Node000006" class="node">
<title>Node6</title>
<g id="a_Node000006"><a xlink:href="u0xx_2uart__handlers_8c.html#a3ceed8d959febe9f78eef3c20b3285b8" target="_top" xlink:title=" ">
<polygon fill="white" stroke="#666666" points="165,-19 0,-19 0,0 165,0 165,-19"/>
<text text-anchor="middle" x="82.5" y="-7" font-family="Helvetica,sans-Serif" font-size="10.00">USART4_LPUART3_IRQHandler</text>
</a>
</g>
</g>
<!-- Node2&#45;&gt;Node6 -->
<g id="edge5_Node000002_Node000006" class="edge">
<title>Node2&#45;&gt;Node6</title>
<g id="a_edge5_Node000002_Node000006"><a xlink:title=" ">
<path fill="none" stroke="#63b8ff" d="M222.41,-50.84C205.79,-43.53 184.52,-34.77 165,-28.5 153.93,-24.95 141.82,-21.76 130.41,-19.05"/>
<polygon fill="#63b8ff" stroke="#63b8ff" points="221.05,-54.07 231.61,-54.95 223.91,-47.68 221.05,-54.07"/>
</a>
</g>
</g>
</g>
</svg>
