<?xml version="1.0" encoding="UTF-8" standalone="no"?>
<!DOCTYPE svg PUBLIC "-//W3C//DTD SVG 1.1//EN"
 "http://www.w3.org/Graphics/SVG/1.1/DTD/svg11.dtd">
<!-- Generated by graphviz version 2.43.0 (0)
 -->
<!-- Title: hal_platform/u0xx/usb_impl.h Pages: 1 -->
<svg width="422pt" height="173pt"
 viewBox="0.00 0.00 422.00 173.00" xmlns="http://www.w3.org/2000/svg" xmlns:xlink="http://www.w3.org/1999/xlink">
<g id="graph0" class="graph" transform="scale(1 1) rotate(0) translate(4 169)">
<title>hal_platform/u0xx/usb_impl.h</title>
<!-- Node1 -->
<g id="node1" class="node">
<title>Node1</title>
<g id="a_node1"><a xlink:title=" ">
<polygon fill="#bfbfbf" stroke="black" points="144,-134.5 144,-164.5 270,-164.5 270,-134.5 144,-134.5"/>
<text text-anchor="start" x="152" y="-152.5" font-family="Helvetica,sans-Serif" font-size="10.00">hal_platform/u0xx/usb</text>
<text text-anchor="middle" x="207" y="-141.5" font-family="Helvetica,sans-Serif" font-size="10.00">_impl.h</text>
</a>
</g>
</g>
<!-- Node2 -->
<g id="node2" class="node">
<title>Node2</title>
<g id="a_node2"><a xlink:href="u0xx_2usb__descriptors_8c.html" target="_top" xlink:title=" ">
<polygon fill="none" stroke="black" points="0,-67.5 0,-97.5 126,-97.5 126,-67.5 0,-67.5"/>
<text text-anchor="start" x="8" y="-85.5" font-family="Helvetica,sans-Serif" font-size="10.00">hal_platform/u0xx/usb</text>
<text text-anchor="middle" x="63" y="-74.5" font-family="Helvetica,sans-Serif" font-size="10.00">_descriptors.c</text>
</a>
</g>
</g>
<!-- Node1&#45;&gt;Node2 -->
<g id="edge1" class="edge">
<title>Node1&#45;&gt;Node2</title>
<path fill="none" stroke="midnightblue" d="M166.61,-130.27C143.68,-119.92 115.4,-107.15 94.18,-97.58"/>
<polygon fill="midnightblue" stroke="midnightblue" points="165.2,-133.47 175.75,-134.4 168.08,-127.09 165.2,-133.47"/>
</g>
<!-- Node3 -->
<g id="node3" class="node">
<title>Node3</title>
<g id="a_node3"><a xlink:href="u0xx_2usb__handlers_8h.html" target="_top" xlink:title=" ">
<polygon fill="none" stroke="black" points="144,-67.5 144,-97.5 270,-97.5 270,-67.5 144,-67.5"/>
<text text-anchor="start" x="152" y="-85.5" font-family="Helvetica,sans-Serif" font-size="10.00">hal_platform/u0xx/usb</text>
<text text-anchor="middle" x="207" y="-74.5" font-family="Helvetica,sans-Serif" font-size="10.00">_handlers.h</text>
</a>
</g>
</g>
<!-- Node1&#45;&gt;Node3 -->
<g id="edge2" class="edge">
<title>Node1&#45;&gt;Node3</title>
<path fill="none" stroke="midnightblue" d="M207,-124.11C207,-115.15 207,-105.32 207,-97.58"/>
<polygon fill="midnightblue" stroke="midnightblue" points="203.5,-124.4 207,-134.4 210.5,-124.4 203.5,-124.4"/>
</g>
<!-- Node5 -->
<g id="node5" class="node">
<title>Node5</title>
<g id="a_node5"><a xlink:href="u0xx_2usb__impl_8c.html" target="_top" xlink:title=" ">
<polygon fill="none" stroke="black" points="288,-67.5 288,-97.5 414,-97.5 414,-67.5 288,-67.5"/>
<text text-anchor="start" x="296" y="-85.5" font-family="Helvetica,sans-Serif" font-size="10.00">hal_platform/u0xx/usb</text>
<text text-anchor="middle" x="351" y="-74.5" font-family="Helvetica,sans-Serif" font-size="10.00">_impl.c</text>
</a>
</g>
</g>
<!-- Node1&#45;&gt;Node5 -->
<g id="edge4" class="edge">
<title>Node1&#45;&gt;Node5</title>
<path fill="none" stroke="midnightblue" d="M247.39,-130.27C270.32,-119.92 298.6,-107.15 319.82,-97.58"/>
<polygon fill="midnightblue" stroke="midnightblue" points="245.92,-127.09 238.25,-134.4 248.8,-133.47 245.92,-127.09"/>
</g>
<!-- Node4 -->
<g id="node4" class="node">
<title>Node4</title>
<g id="a_node4"><a xlink:href="u0xx_2usb__handlers_8c.html" target="_top" xlink:title=" ">
<polygon fill="none" stroke="black" points="144,-0.5 144,-30.5 270,-30.5 270,-0.5 144,-0.5"/>
<text text-anchor="start" x="152" y="-18.5" font-family="Helvetica,sans-Serif" font-size="10.00">hal_platform/u0xx/usb</text>
<text text-anchor="middle" x="207" y="-7.5" font-family="Helvetica,sans-Serif" font-size="10.00">_handlers.c</text>
</a>
</g>
</g>
<!-- Node3&#45;&gt;Node4 -->
<g id="edge3" class="edge">
<title>Node3&#45;&gt;Node4</title>
<path fill="none" stroke="midnightblue" d="M207,-57.11C207,-48.15 207,-38.32 207,-30.58"/>
<polygon fill="midnightblue" stroke="midnightblue" points="203.5,-57.4 207,-67.4 210.5,-57.4 203.5,-57.4"/>
</g>
</g>
</svg>
