<?xml version="1.0" encoding="UTF-8" standalone="no"?>
<!DOCTYPE svg PUBLIC "-//W3C//DTD SVG 1.1//EN"
 "http://www.w3.org/Graphics/SVG/1.1/DTD/svg11.dtd">
<!-- Generated by graphviz version 2.43.0 (0)
 -->
<!-- Title: _uart_handler_tx_norm Pages: 1 -->
<svg width="488pt" height="142pt"
 viewBox="0.00 0.00 488.00 142.00" xmlns="http://www.w3.org/2000/svg" xmlns:xlink="http://www.w3.org/1999/xlink">
<g id="graph0" class="graph" transform="scale(1 1) rotate(0) translate(4 138)">
<title>_uart_handler_tx_norm</title>
<!-- Node1 -->
<g id="node1" class="node">
<title>Node1</title>
<g id="a_node1"><a xlink:title=" ">
<polygon fill="#bfbfbf" stroke="black" points="351,-57.5 351,-76.5 480,-76.5 480,-57.5 351,-57.5"/>
<text text-anchor="middle" x="415.5" y="-64.5" font-family="Helvetica,sans-Serif" font-size="10.00">_uart_handler_tx_norm</text>
</a>
</g>
</g>
<!-- Node2 -->
<g id="node2" class="node">
<title>Node2</title>
<g id="a_node2"><a xlink:href="u0xx_2uart__handlers_8c.html#a27beff98dd4d12551e37d6e6da1472d3" target="_top" xlink:title=" ">
<polygon fill="none" stroke="black" points="201,-57.5 201,-76.5 315,-76.5 315,-57.5 201,-57.5"/>
<text text-anchor="middle" x="258" y="-64.5" font-family="Helvetica,sans-Serif" font-size="10.00">_uart_handler_norm</text>
</a>
</g>
</g>
<!-- Node1&#45;&gt;Node2 -->
<g id="edge1" class="edge">
<title>Node1&#45;&gt;Node2</title>
<path fill="none" stroke="midnightblue" d="M340.54,-67C332.07,-67 323.55,-67 315.37,-67"/>
<polygon fill="midnightblue" stroke="midnightblue" points="340.8,-70.5 350.8,-67 340.8,-63.5 340.8,-70.5"/>
</g>
<!-- Node3 -->
<g id="node3" class="node">
<title>Node3</title>
<g id="a_node3"><a xlink:href="u0xx_2uart__handlers_8c.html#a7139cd4baabbbcbab0c1fe6d7d4ae1cc" target="_top" xlink:title=" ">
<polygon fill="none" stroke="black" points="24.5,-114.5 24.5,-133.5 140.5,-133.5 140.5,-114.5 24.5,-114.5"/>
<text text-anchor="middle" x="82.5" y="-121.5" font-family="Helvetica,sans-Serif" font-size="10.00">USART1_IRQHandler</text>
</a>
</g>
</g>
<!-- Node2&#45;&gt;Node3 -->
<g id="edge2" class="edge">
<title>Node2&#45;&gt;Node3</title>
<path fill="none" stroke="midnightblue" d="M227.25,-80.73C209.46,-88.58 186.24,-98.19 165,-105 153.93,-108.55 141.82,-111.74 130.4,-114.44"/>
<polygon fill="midnightblue" stroke="midnightblue" points="228.83,-83.86 236.53,-76.58 225.97,-77.47 228.83,-83.86"/>
</g>
<!-- Node4 -->
<g id="node4" class="node">
<title>Node4</title>
<g id="a_node4"><a xlink:href="u0xx_2uart__handlers_8c.html#ad81f8f5f4eeb37afbe93e95d0727bb73" target="_top" xlink:title=" ">
<polygon fill="none" stroke="black" points="0,-76.5 0,-95.5 165,-95.5 165,-76.5 0,-76.5"/>
<text text-anchor="middle" x="82.5" y="-83.5" font-family="Helvetica,sans-Serif" font-size="10.00">USART2_LPUART2_IRQHandler</text>
</a>
</g>
</g>
<!-- Node2&#45;&gt;Node4 -->
<g id="edge3" class="edge">
<title>Node2&#45;&gt;Node4</title>
<path fill="none" stroke="midnightblue" d="M190.62,-74.27C182.26,-75.18 173.63,-76.13 165.07,-77.07"/>
<polygon fill="midnightblue" stroke="midnightblue" points="191.11,-77.74 200.67,-73.17 190.35,-70.78 191.11,-77.74"/>
</g>
<!-- Node5 -->
<g id="node5" class="node">
<title>Node5</title>
<g id="a_node5"><a xlink:href="u0xx_2uart__handlers_8c.html#a492d1f59d4204ccb4244427b72c6a540" target="_top" xlink:title=" ">
<polygon fill="none" stroke="black" points="0,-38.5 0,-57.5 165,-57.5 165,-38.5 0,-38.5"/>
<text text-anchor="middle" x="82.5" y="-45.5" font-family="Helvetica,sans-Serif" font-size="10.00">USART3_LPUART1_IRQHandler</text>
</a>
</g>
</g>
<!-- Node2&#45;&gt;Node5 -->
<g id="edge4" class="edge">
<title>Node2&#45;&gt;Node5</title>
<path fill="none" stroke="midnightblue" d="M190.62,-59.73C182.26,-58.82 173.63,-57.87 165.07,-56.93"/>
<polygon fill="midnightblue" stroke="midnightblue" points="190.35,-63.22 200.67,-60.83 191.11,-56.26 190.35,-63.22"/>
</g>
<!-- Node6 -->
<g id="node6" class="node">
<title>Node6</title>
<g id="a_node6"><a xlink:href="u0xx_2uart__handlers_8c.html#a3ceed8d959febe9f78eef3c20b3285b8" target="_top" xlink:title=" ">
<polygon fill="none" stroke="black" points="0,-0.5 0,-19.5 165,-19.5 165,-0.5 0,-0.5"/>
<text text-anchor="middle" x="82.5" y="-7.5" font-family="Helvetica,sans-Serif" font-size="10.00">USART4_LPUART3_IRQHandler</text>
</a>
</g>
</g>
<!-- Node2&#45;&gt;Node6 -->
<g id="edge5" class="edge">
<title>Node2&#45;&gt;Node6</title>
<path fill="none" stroke="midnightblue" d="M227.25,-53.27C209.46,-45.42 186.24,-35.81 165,-29 153.93,-25.45 141.82,-22.26 130.4,-19.56"/>
<polygon fill="midnightblue" stroke="midnightblue" points="225.97,-56.53 236.53,-57.42 228.83,-50.14 225.97,-56.53"/>
</g>
</g>
</svg>
