<?xml version="1.0" encoding="UTF-8" standalone="no"?>
<!DOCTYPE svg PUBLIC "-//W3C//DTD SVG 1.1//EN"
 "http://www.w3.org/Graphics/SVG/1.1/DTD/svg11.dtd">
<!-- Generated by graphviz version 2.43.0 (0)
 -->
<!-- Title: _uart_handler_norm Pages: 1 -->
<svg width="287pt" height="64pt"
 viewBox="0.00 0.00 287.00 64.00" xmlns="http://www.w3.org/2000/svg" xmlns:xlink="http://www.w3.org/1999/xlink">
<g id="graph0" class="graph" transform="scale(1 1) rotate(0) translate(4 60)">
<title>_uart_handler_norm</title>
<!-- Node1 -->
<g id="Node000001" class="node">
<title>Node1</title>
<g id="a_Node000001"><a xlink:title=" ">
<polygon fill="#999999" stroke="#666666" points="114,-37 0,-37 0,-18 114,-18 114,-37"/>
<text text-anchor="middle" x="57" y="-25" font-family="Helvetica,sans-Serif" font-size="10.00">_uart_handler_norm</text>
</a>
</g>
</g>
<!-- Node2 -->
<g id="Node000002" class="node">
<title>Node2</title>
<g id="a_Node000002"><a xlink:href="u0xx_2uart__handlers_8c.html#ae33ad38dd73e4248bbafd715dc4e377e" target="_top" xlink:title=" ">
<polygon fill="white" stroke="#666666" points="279,-56 150,-56 150,-37 279,-37 279,-56"/>
<text text-anchor="middle" x="214.5" y="-44" font-family="Helvetica,sans-Serif" font-size="10.00">_uart_handler_rx_norm</text>
</a>
</g>
</g>
<!-- Node1&#45;&gt;Node2 -->
<g id="edge1_Node000001_Node000002" class="edge">
<title>Node1&#45;&gt;Node2</title>
<g id="a_edge1_Node000001_Node000002"><a xlink:title=" ">
<path fill="none" stroke="#63b8ff" d="M114.14,-34.36C122.46,-35.38 131.13,-36.44 139.74,-37.49"/>
<polygon fill="#63b8ff" stroke="#63b8ff" points="139.44,-40.98 149.79,-38.72 140.29,-34.03 139.44,-40.98"/>
</a>
</g>
</g>
<!-- Node3 -->
<g id="Node000003" class="node">
<title>Node3</title>
<g id="a_Node000003"><a xlink:href="u0xx_2uart__handlers_8c.html#a931efbc9e4e039b7b4a2187ddaaf7443" target="_top" xlink:title=" ">
<polygon fill="white" stroke="#666666" points="279,-19 150,-19 150,0 279,0 279,-19"/>
<text text-anchor="middle" x="214.5" y="-7" font-family="Helvetica,sans-Serif" font-size="10.00">_uart_handler_tx_norm</text>
</a>
</g>
</g>
<!-- Node1&#45;&gt;Node3 -->
<g id="edge2_Node000001_Node000003" class="edge">
<title>Node1&#45;&gt;Node3</title>
<g id="a_edge2_Node000001_Node000003"><a xlink:title=" ">
<path fill="none" stroke="#63b8ff" d="M114.14,-21C122.46,-20.04 131.13,-19.03 139.74,-18.04"/>
<polygon fill="#63b8ff" stroke="#63b8ff" points="140.26,-21.5 149.79,-16.87 139.45,-14.55 140.26,-21.5"/>
</a>
</g>
</g>
</g>
</svg>
