<?xml version="1.0" encoding="UTF-8" standalone="no"?>
<!DOCTYPE svg PUBLIC "-//W3C//DTD SVG 1.1//EN"
 "http://www.w3.org/Graphics/SVG/1.1/DTD/svg11.dtd">
<!-- Generated by graphviz version 2.43.0 (0)
 -->
<!-- Title: hal_platform/u0xx/usb_impl.c Pages: 1 -->
<svg width="267pt" height="148pt"
 viewBox="0.00 0.00 267.00 148.00" xmlns="http://www.w3.org/2000/svg" xmlns:xlink="http://www.w3.org/1999/xlink">
<g id="graph0" class="graph" transform="scale(1 1) rotate(0) translate(4 144)">
<title>hal_platform/u0xx/usb_impl.c</title>
<!-- Node1 -->
<g id="Node000001" class="node">
<title>Node1</title>
<g id="a_Node000001"><a xlink:title=" ">
<polygon fill="#999999" stroke="#666666" points="235.5,-140 109.5,-140 109.5,-110 235.5,-110 235.5,-140"/>
<text text-anchor="start" x="117.5" y="-128" font-family="Helvetica,sans-Serif" font-size="10.00">hal_platform/u0xx/usb</text>
<text text-anchor="middle" x="172.5" y="-117" font-family="Helvetica,sans-Serif" font-size="10.00">_impl.c</text>
</a>
</g>
</g>
<!-- Node2 -->
<g id="Node000002" class="node">
<title>Node2</title>
<g id="a_Node000002"><a xlink:href="u0xx_2usb__impl_8h.html" target="_top" xlink:title=" ">
<polygon fill="white" stroke="#666666" points="161.5,-74 91.5,-74 91.5,-55 161.5,-55 161.5,-74"/>
<text text-anchor="middle" x="126.5" y="-62" font-family="Helvetica,sans-Serif" font-size="10.00">usb_impl.h</text>
</a>
</g>
</g>
<!-- Node1&#45;&gt;Node2 -->
<g id="edge1_Node000001_Node000002" class="edge">
<title>Node1&#45;&gt;Node2</title>
<g id="a_edge1_Node000001_Node000002"><a xlink:title=" ">
<path fill="none" stroke="#63b8ff" d="M161.36,-109.84C154.82,-101.52 146.52,-90.96 139.66,-82.23"/>
<polygon fill="#63b8ff" stroke="#63b8ff" points="142.33,-79.96 133.39,-74.27 136.82,-84.29 142.33,-79.96"/>
</a>
</g>
</g>
<!-- Node6 -->
<g id="Node000006" class="node">
<title>Node6</title>
<g id="a_Node000006"><a xlink:title=" ">
<polygon fill="#e0e0e0" stroke="#999999" points="259,-74 180,-74 180,-55 259,-55 259,-74"/>
<text text-anchor="middle" x="219.5" y="-62" font-family="Helvetica,sans-Serif" font-size="10.00">hal/uc/gpio.h</text>
</a>
</g>
</g>
<!-- Node1&#45;&gt;Node6 -->
<g id="edge5_Node000001_Node000006" class="edge">
<title>Node1&#45;&gt;Node6</title>
<g id="a_edge5_Node000001_Node000006"><a xlink:title=" ">
<path fill="none" stroke="#63b8ff" d="M183.88,-109.84C190.56,-101.52 199.05,-90.96 206.06,-82.23"/>
<polygon fill="#63b8ff" stroke="#63b8ff" points="208.92,-84.25 212.46,-74.27 203.47,-79.87 208.92,-84.25"/>
</a>
</g>
</g>
<!-- Node3 -->
<g id="Node000003" class="node">
<title>Node3</title>
<g id="a_Node000003"><a xlink:title=" ">
<polygon fill="#e0e0e0" stroke="#999999" points="75,-19 0,-19 0,0 75,0 75,-19"/>
<text text-anchor="middle" x="37.5" y="-7" font-family="Helvetica,sans-Serif" font-size="10.00">hal/uc/usb.h</text>
</a>
</g>
</g>
<!-- Node2&#45;&gt;Node3 -->
<g id="edge2_Node000002_Node000003" class="edge">
<title>Node2&#45;&gt;Node3</title>
<g id="a_edge2_Node000002_Node000003"><a xlink:title=" ">
<path fill="none" stroke="#63b8ff" d="M112.2,-54.98C98.4,-46.77 77.26,-34.18 60.99,-24.49"/>
<polygon fill="#63b8ff" stroke="#63b8ff" points="62.44,-21.28 52.06,-19.17 58.86,-27.29 62.44,-21.28"/>
</a>
</g>
</g>
<!-- Node4 -->
<g id="Node000004" class="node">
<title>Node4</title>
<g id="a_Node000004"><a xlink:title=" ">
<polygon fill="#e0e0e0" stroke="#999999" points="160,-19 93,-19 93,0 160,0 160,-19"/>
<text text-anchor="middle" x="126.5" y="-7" font-family="Helvetica,sans-Serif" font-size="10.00">hal/uc/id.h</text>
</a>
</g>
</g>
<!-- Node2&#45;&gt;Node4 -->
<g id="edge3_Node000002_Node000004" class="edge">
<title>Node2&#45;&gt;Node4</title>
<g id="a_edge3_Node000002_Node000004"><a xlink:title=" ">
<path fill="none" stroke="#63b8ff" d="M126.5,-54.75C126.5,-47.8 126.5,-37.85 126.5,-29.13"/>
<polygon fill="#63b8ff" stroke="#63b8ff" points="130,-29.09 126.5,-19.09 123,-29.09 130,-29.09"/>
</a>
</g>
</g>
<!-- Node5 -->
<g id="Node000005" class="node">
<title>Node5</title>
<g id="a_Node000005"><a xlink:title=" ">
<polygon fill="#e0e0e0" stroke="#999999" points="234.5,-19 178.5,-19 178.5,0 234.5,0 234.5,-19"/>
<text text-anchor="middle" x="206.5" y="-7" font-family="Helvetica,sans-Serif" font-size="10.00">iomap.h</text>
</a>
</g>
</g>
<!-- Node2&#45;&gt;Node5 -->
<g id="edge4_Node000002_Node000005" class="edge">
<title>Node2&#45;&gt;Node5</title>
<g id="a_edge4_Node000002_Node000005"><a xlink:title=" ">
<path fill="none" stroke="#63b8ff" d="M139.35,-54.98C151.64,-46.84 170.41,-34.41 184.98,-24.76"/>
<polygon fill="#63b8ff" stroke="#63b8ff" points="187.01,-27.61 193.41,-19.17 183.14,-21.78 187.01,-27.61"/>
</a>
</g>
</g>
</g>
</svg>
