<?xml version="1.0" encoding="UTF-8" standalone="no"?>
<!DOCTYPE svg PUBLIC "-//W3C//DTD SVG 1.1//EN"
 "http://www.w3.org/Graphics/SVG/1.1/DTD/svg11.dtd">
<!-- Generated by graphviz version 2.43.0 (0)
 -->
<!-- Title: _uart_handler_fifo Pages: 1 -->
<svg width="267pt" height="66pt"
 viewBox="0.00 0.00 267.00 66.00" xmlns="http://www.w3.org/2000/svg" xmlns:xlink="http://www.w3.org/1999/xlink">
<g id="graph0" class="graph" transform="scale(1 1) rotate(0) translate(4 62)">
<title>_uart_handler_fifo</title>
<!-- Node1 -->
<g id="node1" class="node">
<title>Node1</title>
<g id="a_node1"><a xlink:title=" ">
<polygon fill="#bfbfbf" stroke="black" points="0,-19.5 0,-38.5 104,-38.5 104,-19.5 0,-19.5"/>
<text text-anchor="middle" x="52" y="-26.5" font-family="Helvetica,sans-Serif" font-size="10.00">_uart_handler_fifo</text>
</a>
</g>
</g>
<!-- Node2 -->
<g id="node2" class="node">
<title>Node2</title>
<g id="a_node2"><a xlink:href="u0xx_2uart__handlers_8c.html#a1e4191876907842a4ea483cdeff7bf66" target="_top" xlink:title=" ">
<polygon fill="none" stroke="black" points="140,-38.5 140,-57.5 259,-57.5 259,-38.5 140,-38.5"/>
<text text-anchor="middle" x="199.5" y="-45.5" font-family="Helvetica,sans-Serif" font-size="10.00">_uart_handler_rx_fifo</text>
</a>
</g>
</g>
<!-- Node1&#45;&gt;Node2 -->
<g id="edge1" class="edge">
<title>Node1&#45;&gt;Node2</title>
<path fill="none" stroke="midnightblue" d="M104.3,-35.7C112.59,-36.78 121.29,-37.92 129.91,-39.04"/>
<polygon fill="midnightblue" stroke="midnightblue" points="129.6,-42.53 139.97,-40.36 130.5,-35.59 129.6,-42.53"/>
</g>
<!-- Node3 -->
<g id="node3" class="node">
<title>Node3</title>
<g id="a_node3"><a xlink:href="u0xx_2uart__handlers_8c.html#a2929227508ac730f7ebef4e9b3cfffbe" target="_top" xlink:title=" ">
<polygon fill="none" stroke="black" points="140,-0.5 140,-19.5 259,-19.5 259,-0.5 140,-0.5"/>
<text text-anchor="middle" x="199.5" y="-7.5" font-family="Helvetica,sans-Serif" font-size="10.00">_uart_handler_tx_fifo</text>
</a>
</g>
</g>
<!-- Node1&#45;&gt;Node3 -->
<g id="edge2" class="edge">
<title>Node1&#45;&gt;Node3</title>
<path fill="none" stroke="midnightblue" d="M104.3,-22.3C112.59,-21.22 121.29,-20.08 129.91,-18.96"/>
<polygon fill="midnightblue" stroke="midnightblue" points="130.5,-22.41 139.97,-17.64 129.6,-15.47 130.5,-22.41"/>
</g>
</g>
</svg>
