<?xml version="1.0" encoding="UTF-8" standalone="no"?>
<!DOCTYPE svg PUBLIC "-//W3C//DTD SVG 1.1//EN"
 "http://www.w3.org/Graphics/SVG/1.1/DTD/svg11.dtd">
<!-- Generated by graphviz version 2.43.0 (0)
 -->
<!-- Title: exti_handler Pages: 1 -->
<svg width="243pt" height="104pt"
 viewBox="0.00 0.00 243.00 104.00" xmlns="http://www.w3.org/2000/svg" xmlns:xlink="http://www.w3.org/1999/xlink">
<g id="graph0" class="graph" transform="scale(1 1) rotate(0) translate(4 100)">
<title>exti_handler</title>
<!-- Node1 -->
<g id="node1" class="node">
<title>Node1</title>
<g id="a_node1"><a xlink:title=" ">
<polygon fill="#bfbfbf" stroke="black" points="158,-38.5 158,-57.5 235,-57.5 235,-38.5 158,-38.5"/>
<text text-anchor="middle" x="196.5" y="-45.5" font-family="Helvetica,sans-Serif" font-size="10.00">exti_handler</text>
</a>
</g>
</g>
<!-- Node2 -->
<g id="node2" class="node">
<title>Node2</title>
<g id="a_node2"><a xlink:href="u0xx_2exti__handlers_8c.html#af5dd30f24d12ce01d03c375f0802671f" target="_top" xlink:title="This function handles EXTI lines 0&#45;1 interrupts.">
<polygon fill="none" stroke="black" points="3,-76.5 3,-95.5 119,-95.5 119,-76.5 3,-76.5"/>
<text text-anchor="middle" x="61" y="-83.5" font-family="Helvetica,sans-Serif" font-size="10.00">EXTI0_1_IRQHandler</text>
</a>
</g>
</g>
<!-- Node1&#45;&gt;Node2 -->
<g id="edge1" class="edge">
<title>Node1&#45;&gt;Node2</title>
<path fill="none" stroke="midnightblue" d="M151.97,-60.39C133.69,-65.59 112.75,-71.55 95.68,-76.41"/>
<polygon fill="midnightblue" stroke="midnightblue" points="153.15,-63.69 161.81,-57.59 151.24,-56.96 153.15,-63.69"/>
</g>
<!-- Node3 -->
<g id="node3" class="node">
<title>Node3</title>
<g id="a_node3"><a xlink:href="u0xx_2exti__handlers_8c.html#ae00a10bd0f2f4c129c84120e78ad4382" target="_top" xlink:title="This function handles EXTI lines 2&#45;3 interrupts.">
<polygon fill="none" stroke="black" points="3,-38.5 3,-57.5 119,-57.5 119,-38.5 3,-38.5"/>
<text text-anchor="middle" x="61" y="-45.5" font-family="Helvetica,sans-Serif" font-size="10.00">EXTI2_3_IRQHandler</text>
</a>
</g>
</g>
<!-- Node1&#45;&gt;Node3 -->
<g id="edge2" class="edge">
<title>Node1&#45;&gt;Node3</title>
<path fill="none" stroke="midnightblue" d="M147.78,-48C138.52,-48 128.74,-48 119.21,-48"/>
<polygon fill="midnightblue" stroke="midnightblue" points="147.96,-51.5 157.96,-48 147.96,-44.5 147.96,-51.5"/>
</g>
<!-- Node4 -->
<g id="node4" class="node">
<title>Node4</title>
<g id="a_node4"><a xlink:href="u0xx_2exti__handlers_8c.html#a3595b205bdfadf55a525f2d4f438d122" target="_top" xlink:title="This function handles EXTI line 4&#45;15 interrupts.">
<polygon fill="none" stroke="black" points="0,-0.5 0,-19.5 122,-19.5 122,-0.5 0,-0.5"/>
<text text-anchor="middle" x="61" y="-7.5" font-family="Helvetica,sans-Serif" font-size="10.00">EXTI4_15_IRQHandler</text>
</a>
</g>
</g>
<!-- Node1&#45;&gt;Node4 -->
<g id="edge3" class="edge">
<title>Node1&#45;&gt;Node4</title>
<path fill="none" stroke="midnightblue" d="M151.97,-35.61C133.69,-30.41 112.75,-24.45 95.68,-19.59"/>
<polygon fill="midnightblue" stroke="midnightblue" points="151.24,-39.04 161.81,-38.41 153.15,-32.31 151.24,-39.04"/>
</g>
</g>
</svg>
