<?xml version="1.0" encoding="UTF-8" standalone="no"?>
<!DOCTYPE svg PUBLIC "-//W3C//DTD SVG 1.1//EN"
 "http://www.w3.org/Graphics/SVG/1.1/DTD/svg11.dtd">
<!-- Generated by graphviz version 2.43.0 (0)
 -->
<!-- Title: hal_platform/u0xx/entropy_impl.c Pages: 1 -->
<svg width="198pt" height="148pt"
 viewBox="0.00 0.00 197.50 148.00" xmlns="http://www.w3.org/2000/svg" xmlns:xlink="http://www.w3.org/1999/xlink">
<g id="graph0" class="graph" transform="scale(1 1) rotate(0) translate(4 144)">
<title>hal_platform/u0xx/entropy_impl.c</title>
<!-- Node1 -->
<g id="Node000001" class="node">
<title>Node1</title>
<g id="a_Node000001"><a xlink:title=" ">
<polygon fill="#999999" stroke="#666666" points="187,-140 41,-140 41,-110 187,-110 187,-140"/>
<text text-anchor="start" x="49" y="-128" font-family="Helvetica,sans-Serif" font-size="10.00">hal_platform/u0xx/entropy</text>
<text text-anchor="middle" x="114" y="-117" font-family="Helvetica,sans-Serif" font-size="10.00">_impl.c</text>
</a>
</g>
</g>
<!-- Node2 -->
<g id="Node000002" class="node">
<title>Node2</title>
<g id="a_Node000002"><a xlink:href="u0xx_2entropy__impl_8h.html" target="_top" xlink:title="STM32F4xx Entropy Implementation Notes.">
<polygon fill="white" stroke="#666666" points="123,-74 33,-74 33,-55 123,-55 123,-74"/>
<text text-anchor="middle" x="78" y="-62" font-family="Helvetica,sans-Serif" font-size="10.00">entropy_impl.h</text>
</a>
</g>
</g>
<!-- Node1&#45;&gt;Node2 -->
<g id="edge1_Node000001_Node000002" class="edge">
<title>Node1&#45;&gt;Node2</title>
<g id="a_edge1_Node000001_Node000002"><a xlink:title=" ">
<path fill="none" stroke="#63b8ff" d="M105.29,-109.84C100.33,-101.78 94.07,-91.62 88.8,-83.06"/>
<polygon fill="#63b8ff" stroke="#63b8ff" points="91.62,-80.95 83.39,-74.27 85.65,-84.62 91.62,-80.95"/>
</a>
</g>
</g>
<!-- Node4 -->
<g id="Node000004" class="node">
<title>Node4</title>
<g id="a_Node000004"><a xlink:title=" ">
<polygon fill="#e0e0e0" stroke="#999999" points="189.5,-19 112.5,-19 112.5,0 189.5,0 189.5,-19"/>
<text text-anchor="middle" x="151" y="-7" font-family="Helvetica,sans-Serif" font-size="10.00">ds/bytebuf.h</text>
</a>
</g>
</g>
<!-- Node1&#45;&gt;Node4 -->
<g id="edge4_Node000001_Node000004" class="edge">
<title>Node1&#45;&gt;Node4</title>
<g id="a_edge4_Node000001_Node000004"><a xlink:title=" ">
<path fill="none" stroke="#63b8ff" d="M119.41,-109.63C123.1,-99.68 128.02,-86.09 132,-74 136.96,-58.95 142.08,-41.73 145.75,-29.01"/>
<polygon fill="#63b8ff" stroke="#63b8ff" points="149.18,-29.75 148.57,-19.17 142.45,-27.82 149.18,-29.75"/>
</a>
</g>
</g>
<!-- Node3 -->
<g id="Node000003" class="node">
<title>Node3</title>
<g id="a_Node000003"><a xlink:title=" ">
<polygon fill="#e0e0e0" stroke="#999999" points="94,-19 0,-19 0,0 94,0 94,-19"/>
<text text-anchor="middle" x="47" y="-7" font-family="Helvetica,sans-Serif" font-size="10.00">hal/uc/entropy.h</text>
</a>
</g>
</g>
<!-- Node2&#45;&gt;Node3 -->
<g id="edge2_Node000002_Node000003" class="edge">
<title>Node2&#45;&gt;Node3</title>
<g id="a_edge2_Node000002_Node000003"><a xlink:title=" ">
<path fill="none" stroke="#63b8ff" d="M72.88,-54.75C68.64,-47.49 62.47,-36.95 57.22,-27.98"/>
<polygon fill="#63b8ff" stroke="#63b8ff" points="60.09,-25.95 52.02,-19.09 54.05,-29.49 60.09,-25.95"/>
</a>
</g>
</g>
<!-- Node2&#45;&gt;Node4 -->
<g id="edge3_Node000002_Node000004" class="edge">
<title>Node2&#45;&gt;Node4</title>
<g id="a_edge3_Node000002_Node000004"><a xlink:title=" ">
<path fill="none" stroke="#63b8ff" d="M89.73,-54.98C100.73,-47 117.42,-34.88 130.6,-25.31"/>
<polygon fill="#63b8ff" stroke="#63b8ff" points="133.02,-27.88 139.06,-19.17 128.91,-22.21 133.02,-27.88"/>
</a>
</g>
</g>
</g>
</svg>
