<?xml version="1.0" encoding="UTF-8" standalone="no"?>
<!DOCTYPE svg PUBLIC "-//W3C//DTD SVG 1.1//EN"
 "http://www.w3.org/Graphics/SVG/1.1/DTD/svg11.dtd">
<!-- Generated by graphviz version 2.43.0 (0)
 -->
<!-- Title: hal_platform/u0xx/usb_impl.c Pages: 1 -->
<svg width="267pt" height="151pt"
 viewBox="0.00 0.00 267.00 151.00" xmlns="http://www.w3.org/2000/svg" xmlns:xlink="http://www.w3.org/1999/xlink">
<g id="graph0" class="graph" transform="scale(1 1) rotate(0) translate(4 147)">
<title>hal_platform/u0xx/usb_impl.c</title>
<!-- Node1 -->
<g id="node1" class="node">
<title>Node1</title>
<g id="a_node1"><a xlink:title=" ">
<polygon fill="#bfbfbf" stroke="black" points="109.5,-112.5 109.5,-142.5 235.5,-142.5 235.5,-112.5 109.5,-112.5"/>
<text text-anchor="start" x="117.5" y="-130.5" font-family="Helvetica,sans-Serif" font-size="10.00">hal_platform/u0xx/usb</text>
<text text-anchor="middle" x="172.5" y="-119.5" font-family="Helvetica,sans-Serif" font-size="10.00">_impl.c</text>
</a>
</g>
</g>
<!-- Node2 -->
<g id="node2" class="node">
<title>Node2</title>
<g id="a_node2"><a xlink:href="u0xx_2usb__impl_8h.html" target="_top" xlink:title=" ">
<polygon fill="none" stroke="black" points="91.5,-56.5 91.5,-75.5 161.5,-75.5 161.5,-56.5 91.5,-56.5"/>
<text text-anchor="middle" x="126.5" y="-63.5" font-family="Helvetica,sans-Serif" font-size="10.00">usb_impl.h</text>
</a>
</g>
</g>
<!-- Node1&#45;&gt;Node2 -->
<g id="edge1" class="edge">
<title>Node1&#45;&gt;Node2</title>
<path fill="none" stroke="midnightblue" d="M161.6,-112.4C154.91,-103.75 146.32,-92.64 139.32,-83.58"/>
<polygon fill="midnightblue" stroke="midnightblue" points="142.08,-81.43 133.19,-75.66 136.54,-85.71 142.08,-81.43"/>
</g>
<!-- Node6 -->
<g id="node6" class="node">
<title>Node6</title>
<g id="a_node6"><a xlink:title=" ">
<polygon fill="none" stroke="#bfbfbf" points="180,-56.5 180,-75.5 259,-75.5 259,-56.5 180,-56.5"/>
<text text-anchor="middle" x="219.5" y="-63.5" font-family="Helvetica,sans-Serif" font-size="10.00">hal/uc/gpio.h</text>
</a>
</g>
</g>
<!-- Node1&#45;&gt;Node6 -->
<g id="edge5" class="edge">
<title>Node1&#45;&gt;Node6</title>
<path fill="none" stroke="midnightblue" d="M183.64,-112.4C190.47,-103.75 199.24,-92.64 206.41,-83.58"/>
<polygon fill="midnightblue" stroke="midnightblue" points="209.21,-85.67 212.66,-75.66 203.72,-81.34 209.21,-85.67"/>
</g>
<!-- Node3 -->
<g id="node3" class="node">
<title>Node3</title>
<g id="a_node3"><a xlink:title=" ">
<polygon fill="none" stroke="#bfbfbf" points="0,-0.5 0,-19.5 75,-19.5 75,-0.5 0,-0.5"/>
<text text-anchor="middle" x="37.5" y="-7.5" font-family="Helvetica,sans-Serif" font-size="10.00">hal/uc/usb.h</text>
</a>
</g>
</g>
<!-- Node2&#45;&gt;Node3 -->
<g id="edge2" class="edge">
<title>Node2&#45;&gt;Node3</title>
<path fill="none" stroke="midnightblue" d="M112.2,-56.32C98.32,-47.9 77.01,-34.97 60.7,-25.07"/>
<polygon fill="midnightblue" stroke="midnightblue" points="62.13,-21.85 51.76,-19.65 58.5,-27.83 62.13,-21.85"/>
</g>
<!-- Node4 -->
<g id="node4" class="node">
<title>Node4</title>
<g id="a_node4"><a xlink:title=" ">
<polygon fill="none" stroke="#bfbfbf" points="93,-0.5 93,-19.5 160,-19.5 160,-0.5 93,-0.5"/>
<text text-anchor="middle" x="126.5" y="-7.5" font-family="Helvetica,sans-Serif" font-size="10.00">hal/uc/id.h</text>
</a>
</g>
</g>
<!-- Node2&#45;&gt;Node4 -->
<g id="edge3" class="edge">
<title>Node2&#45;&gt;Node4</title>
<path fill="none" stroke="midnightblue" d="M126.5,-56.08C126.5,-49.01 126.5,-38.86 126.5,-29.99"/>
<polygon fill="midnightblue" stroke="midnightblue" points="130,-29.75 126.5,-19.75 123,-29.75 130,-29.75"/>
</g>
<!-- Node5 -->
<g id="node5" class="node">
<title>Node5</title>
<g id="a_node5"><a xlink:title=" ">
<polygon fill="none" stroke="#bfbfbf" points="178.5,-0.5 178.5,-19.5 234.5,-19.5 234.5,-0.5 178.5,-0.5"/>
<text text-anchor="middle" x="206.5" y="-7.5" font-family="Helvetica,sans-Serif" font-size="10.00">iomap.h</text>
</a>
</g>
</g>
<!-- Node2&#45;&gt;Node5 -->
<g id="edge4" class="edge">
<title>Node2&#45;&gt;Node5</title>
<path fill="none" stroke="midnightblue" d="M139.35,-56.32C151.72,-47.98 170.63,-35.21 185.24,-25.35"/>
<polygon fill="midnightblue" stroke="midnightblue" points="187.35,-28.15 193.68,-19.65 183.43,-22.35 187.35,-28.15"/>
</g>
</g>
</svg>
