<?xml version="1.0" encoding="UTF-8" standalone="no"?>
<!DOCTYPE svg PUBLIC "-//W3C//DTD SVG 1.1//EN"
 "http://www.w3.org/Graphics/SVG/1.1/DTD/svg11.dtd">
<!-- Generated by graphviz version 2.43.0 (0)
 -->
<!-- Title: hal_platform/u0xx/gpio_impl.h Pages: 1 -->
<svg width="259pt" height="95pt"
 viewBox="0.00 0.00 258.50 95.00" xmlns="http://www.w3.org/2000/svg" xmlns:xlink="http://www.w3.org/1999/xlink">
<g id="graph0" class="graph" transform="scale(1 1) rotate(0) translate(4 91)">
<title>hal_platform/u0xx/gpio_impl.h</title>
<!-- Node1 -->
<g id="node1" class="node">
<title>Node1</title>
<g id="a_node1"><a xlink:title=" ">
<polygon fill="#bfbfbf" stroke="black" points="53.5,-56.5 53.5,-86.5 183.5,-86.5 183.5,-56.5 53.5,-56.5"/>
<text text-anchor="start" x="61.5" y="-74.5" font-family="Helvetica,sans-Serif" font-size="10.00">hal_platform/u0xx/gpio</text>
<text text-anchor="middle" x="118.5" y="-63.5" font-family="Helvetica,sans-Serif" font-size="10.00">_impl.h</text>
</a>
</g>
</g>
<!-- Node2 -->
<g id="node2" class="node">
<title>Node2</title>
<g id="a_node2"><a xlink:title=" ">
<polygon fill="none" stroke="#bfbfbf" points="0,-0.5 0,-19.5 79,-19.5 79,-0.5 0,-0.5"/>
<text text-anchor="middle" x="39.5" y="-7.5" font-family="Helvetica,sans-Serif" font-size="10.00">hal/uc/gpio.h</text>
</a>
</g>
</g>
<!-- Node1&#45;&gt;Node2 -->
<g id="edge1" class="edge">
<title>Node1&#45;&gt;Node2</title>
<path fill="none" stroke="midnightblue" d="M99.78,-56.4C87.59,-47.22 71.71,-35.26 59.31,-25.92"/>
<polygon fill="midnightblue" stroke="midnightblue" points="61.09,-22.88 51,-19.66 56.88,-28.47 61.09,-22.88"/>
</g>
<!-- Node3 -->
<g id="node3" class="node">
<title>Node3</title>
<g id="a_node3"><a xlink:href="u0xx_2exti_8h.html" target="_top" xlink:title=" ">
<polygon fill="none" stroke="black" points="96.5,-0.5 96.5,-19.5 140.5,-19.5 140.5,-0.5 96.5,-0.5"/>
<text text-anchor="middle" x="118.5" y="-7.5" font-family="Helvetica,sans-Serif" font-size="10.00">exti.h</text>
</a>
</g>
</g>
<!-- Node1&#45;&gt;Node3 -->
<g id="edge2" class="edge">
<title>Node1&#45;&gt;Node3</title>
<path fill="none" stroke="midnightblue" d="M118.5,-56.4C118.5,-48.47 118.5,-38.46 118.5,-29.86"/>
<polygon fill="midnightblue" stroke="midnightblue" points="122,-29.66 118.5,-19.66 115,-29.66 122,-29.66"/>
</g>
<!-- Node4 -->
<g id="node4" class="node">
<title>Node4</title>
<g id="a_node4"><a xlink:href="u0xx_2exti__handlers_8h.html" target="_top" xlink:title=" ">
<polygon fill="none" stroke="black" points="158.5,-0.5 158.5,-19.5 250.5,-19.5 250.5,-0.5 158.5,-0.5"/>
<text text-anchor="middle" x="204.5" y="-7.5" font-family="Helvetica,sans-Serif" font-size="10.00">exti_handlers.h</text>
</a>
</g>
</g>
<!-- Node1&#45;&gt;Node4 -->
<g id="edge3" class="edge">
<title>Node1&#45;&gt;Node4</title>
<path fill="none" stroke="midnightblue" d="M138.88,-56.4C152.41,-47.04 170.11,-34.79 183.72,-25.38"/>
<polygon fill="midnightblue" stroke="midnightblue" points="185.75,-28.23 191.99,-19.66 181.77,-22.47 185.75,-28.23"/>
</g>
</g>
</svg>
