<?xml version="1.0" encoding="UTF-8" standalone="no"?>
<!DOCTYPE svg PUBLIC "-//W3C//DTD SVG 1.1//EN"
 "http://www.w3.org/Graphics/SVG/1.1/DTD/svg11.dtd">
<!-- Generated by graphviz version 2.43.0 (0)
 -->
<!-- Title: hal_platform/u0xx/entropy_impl.c Pages: 1 -->
<svg width="198pt" height="151pt"
 viewBox="0.00 0.00 197.50 151.00" xmlns="http://www.w3.org/2000/svg" xmlns:xlink="http://www.w3.org/1999/xlink">
<g id="graph0" class="graph" transform="scale(1 1) rotate(0) translate(4 147)">
<title>hal_platform/u0xx/entropy_impl.c</title>
<!-- Node1 -->
<g id="node1" class="node">
<title>Node1</title>
<g id="a_node1"><a xlink:title=" ">
<polygon fill="#bfbfbf" stroke="black" points="41,-112.5 41,-142.5 187,-142.5 187,-112.5 41,-112.5"/>
<text text-anchor="start" x="49" y="-130.5" font-family="Helvetica,sans-Serif" font-size="10.00">hal_platform/u0xx/entropy</text>
<text text-anchor="middle" x="114" y="-119.5" font-family="Helvetica,sans-Serif" font-size="10.00">_impl.c</text>
</a>
</g>
</g>
<!-- Node2 -->
<g id="node2" class="node">
<title>Node2</title>
<g id="a_node2"><a xlink:href="u0xx_2entropy__impl_8h.html" target="_top" xlink:title="STM32F4xx Entropy Implementation Notes.">
<polygon fill="none" stroke="black" points="33,-56.5 33,-75.5 123,-75.5 123,-56.5 33,-56.5"/>
<text text-anchor="middle" x="78" y="-63.5" font-family="Helvetica,sans-Serif" font-size="10.00">entropy_impl.h</text>
</a>
</g>
</g>
<!-- Node1&#45;&gt;Node2 -->
<g id="edge1" class="edge">
<title>Node1&#45;&gt;Node2</title>
<path fill="none" stroke="midnightblue" d="M105.47,-112.4C100.4,-104.02 93.93,-93.33 88.54,-84.42"/>
<polygon fill="midnightblue" stroke="midnightblue" points="91.41,-82.4 83.24,-75.66 85.42,-86.03 91.41,-82.4"/>
</g>
<!-- Node4 -->
<g id="node4" class="node">
<title>Node4</title>
<g id="a_node4"><a xlink:title=" ">
<polygon fill="none" stroke="#bfbfbf" points="112.5,-0.5 112.5,-19.5 189.5,-19.5 189.5,-0.5 112.5,-0.5"/>
<text text-anchor="middle" x="151" y="-7.5" font-family="Helvetica,sans-Serif" font-size="10.00">ds/bytebuf.h</text>
</a>
</g>
</g>
<!-- Node1&#45;&gt;Node4 -->
<g id="edge4" class="edge">
<title>Node1&#45;&gt;Node4</title>
<path fill="none" stroke="midnightblue" d="M119.26,-112.43C122.98,-102.34 127.98,-88.4 132,-76 137.04,-60.45 142.21,-42.61 145.88,-29.56"/>
<polygon fill="midnightblue" stroke="midnightblue" points="149.27,-30.45 148.58,-19.88 142.52,-28.58 149.27,-30.45"/>
</g>
<!-- Node3 -->
<g id="node3" class="node">
<title>Node3</title>
<g id="a_node3"><a xlink:title=" ">
<polygon fill="none" stroke="#bfbfbf" points="0,-0.5 0,-19.5 94,-19.5 94,-0.5 0,-0.5"/>
<text text-anchor="middle" x="47" y="-7.5" font-family="Helvetica,sans-Serif" font-size="10.00">hal/uc/entropy.h</text>
</a>
</g>
</g>
<!-- Node2&#45;&gt;Node3 -->
<g id="edge2" class="edge">
<title>Node2&#45;&gt;Node3</title>
<path fill="none" stroke="midnightblue" d="M72.88,-56.08C68.59,-48.61 62.34,-37.72 57.06,-28.52"/>
<polygon fill="midnightblue" stroke="midnightblue" points="60.04,-26.68 52.02,-19.75 53.97,-30.17 60.04,-26.68"/>
</g>
<!-- Node2&#45;&gt;Node4 -->
<g id="edge3" class="edge">
<title>Node2&#45;&gt;Node4</title>
<path fill="none" stroke="midnightblue" d="M89.73,-56.32C100.84,-48.11 117.74,-35.6 130.98,-25.81"/>
<polygon fill="midnightblue" stroke="midnightblue" points="133.1,-28.59 139.06,-19.83 128.94,-22.97 133.1,-28.59"/>
</g>
</g>
</svg>
